<svg xmlns="http://www.w3.org/2000/svg" width="26.231" height="12.081" viewBox="0 0 26.231 12.081"><defs><style>.a{fill:gray;}</style></defs><g transform="translate(0 0)"><g transform="translate(0 0)"><path class="a" d="M241.734-164.783c-.424,0-.849,0-1.273,0a1.216,1.216,0,0,1-1.291-1.209,1.212,1.212,0,0,1,1.289-1.208q1.131,0,2.263,0a3.625,3.625,0,0,0,3.69-3.6,3.623,3.623,0,0,0-3.68-3.639c-.754,0-1.508,0-2.263,0a1.209,1.209,0,0,1-1.3-1.2,1.207,1.207,0,0,1,1.281-1.217c.961,0,1.925-.024,2.883.04a5.993,5.993,0,0,1,5.461,5.455,6.006,6.006,0,0,1-4.781,6.447,2.6,2.6,0,0,1-.5.082Z" transform="translate(-222.584 176.862)"/><path class="a" d="M22.727-176.868c.434,0,.868-.006,1.3,0a1.209,1.209,0,0,1,1.265,1.234,1.211,1.211,0,0,1-1.286,1.182c-.773,0-1.546,0-2.32,0a3.615,3.615,0,0,0-3.637,3.593,3.615,3.615,0,0,0,1.793,3.144,3.466,3.466,0,0,0,1.774.5c.792.005,1.584,0,2.376,0a1.21,1.21,0,0,1,1.3,1.195,1.2,1.2,0,0,1-1.279,1.218,27.782,27.782,0,0,1-3.358-.109,5.943,5.943,0,0,1-4.989-5.383,6.013,6.013,0,0,1,4.806-6.456,3.07,3.07,0,0,1,.474-.074Z" transform="translate(-15.648 176.87)"/><path class="a" d="M117.412-110.456c-1.593,0-3.186.005-4.779,0a1.192,1.192,0,0,1-1.216-1.489,1.17,1.17,0,0,1,1.122-.907c.631-.014,1.263-.006,1.895-.006h7.721a1.187,1.187,0,0,1,1.269.972,1.18,1.18,0,0,1-1.118,1.424c-.706.021-1.414.008-2.121.008Z" transform="translate(-104.299 117.699)"/></g></g></svg>