<svg xmlns="http://www.w3.org/2000/svg" width="30.074" height="26.943" viewBox="0 0 30.074 26.943"><defs><style>.a{fill:#514dc5;stroke:#514dc5;}</style></defs><g transform="translate(0.502 -27.268)"><g transform="translate(-0.001 27.798)"><g transform="translate(0 0)"><path class="a" d="M28.761,38.033,14.981,27.943a.755.755,0,0,0-.892,0L.309,38.033A.755.755,0,0,0,1.2,39.252l13.334-9.763,13.334,9.763a.755.755,0,0,0,.892-1.219Z" transform="translate(0.001 -27.797)"/></g></g><g transform="translate(3.205 39.423)"><g transform="translate(0 0)"><path class="a" d="M78.357,232.543a.755.755,0,0,0-.755.755v12.023H71.559v-6.563a3.777,3.777,0,0,0-7.554,0v6.563H57.963V233.3a.755.755,0,1,0-1.511,0v12.778a.755.755,0,0,0,.755.755H64.76a.755.755,0,0,0,.752-.7.57.57,0,0,0,0-.059v-7.318a2.266,2.266,0,0,1,4.533,0v7.318a.555.555,0,0,0,0,.058.755.755,0,0,0,.752.7h7.553a.755.755,0,0,0,.755-.755V233.3A.755.755,0,0,0,78.357,232.543Z" transform="translate(-56.452 -232.543)"/></g></g></g></svg>