<svg xmlns="http://www.w3.org/2000/svg" width="724.513" height="454.145" viewBox="0 0 724.513 454.145"><defs><style>.a{fill:#b0d4ff;}.b{fill:#95c0f4;}.c{fill:#cae5ff;}.d{fill:#514dc5;}.e{fill:#aca9f8;}.f{fill:#fff;}.g{fill:#ffa412;}.h{fill:#eef6ff;}.i{fill:#78acea;}.j{fill:#bae8e3;}.k{fill:#a1d6ce;}.l{fill:#f99746;}.m{fill:#c0d8fb;}.n{fill:#dfebfd;}.o{fill:#b7d3f3;}.p{fill:#ffb27d;}.q{fill:#233862;}.r{fill:#a9453d;}.s{fill:#ed975d;}.t{fill:#2a4e96;}.u{fill:#5f9aa8;}.v{fill:#1e3d70;}.w{fill:#ed7d2b;}.x{fill:#163560;}.y{fill:#cbc9fb;}.z{fill:#e8945b;}.aa{fill:#ebf3fa;}.ab{fill:#f2ccaa;}.ac{fill:#b5453c;}.ad{fill:#2b478b;}.ae{fill:#ebf3ff;}.af{fill:#213f7a;}.ag{fill:#e2915a;}.ah{fill:#a6a3e2;}</style></defs><g transform="translate(-4839.25 -1473.415)"><g transform="translate(4839.25 1473.415)"><g transform="translate(0 0)"><g transform="translate(0 0)"><g transform="translate(359.806 287.09)"><g transform="translate(55.568 79.896)"><path class="a" d="M1835.69,1548.587h.121a1.27,1.27,0,0,0,1.27-1.3l-1.925-83.428-5.67-.662,4.835,84.1A1.372,1.372,0,0,0,1835.69,1548.587Z" transform="translate(-1829.485 -1463.198)"/></g><g transform="translate(88.61 79.896)"><path class="b" d="M1930.109,1548.587h.121a1.27,1.27,0,0,0,1.27-1.3l-1.925-83.428-5.67-.662,4.835,84.1A1.372,1.372,0,0,0,1930.109,1548.587Z" transform="translate(-1923.904 -1463.198)"/></g><g transform="translate(2.248 79.896)"><path class="a" d="M1678.509,1548.587h-.121a1.27,1.27,0,0,1-1.269-1.3l1.925-83.428,5.67-.662-4.835,84.1A1.372,1.372,0,0,1,1678.509,1548.587Z" transform="translate(-1677.118 -1463.198)"/></g><path class="a" d="M1808.188,1310.271V1253.1a18.214,18.214,0,0,0-18.214-18.214h-41.189a18.214,18.214,0,0,0-18.214,18.214v59.354Z" transform="translate(-1709.617 -1234.888)"/><path class="b" d="M9.025,0H85a0,0,0,0,1,0,0V9.025a0,0,0,0,1,0,0H0a0,0,0,0,1,0,0v0A9.025,9.025,0,0,1,9.025,0Z" transform="translate(98.571 84.409) rotate(180)"/><path class="c" d="M4.513,0H63.742a4.513,4.513,0,0,1,4.513,4.513v0a4.513,4.513,0,0,1-4.513,4.513H4.513A4.513,4.513,0,0,1,0,4.513v0A4.513,4.513,0,0,1,4.513,0Z" transform="translate(68.254 84.409) rotate(180)"/></g><g transform="translate(265.041 61.58)"><rect class="d" width="237.448" height="204.975" transform="translate(0 0)"/><g transform="translate(4.52 3.415)"><rect class="e" width="228.311" height="197.473"/><g transform="translate(29.768 15.799)"><path class="f" d="M1547.9,715.5h-50.029V653.025l8.484-7.647H1547.9Z" transform="translate(-1497.873 -645.377)"/><path class="a" d="M1497.873,653.025h8.211l.273-7.647Z" transform="translate(-1497.873 -645.377)"/><rect class="a" width="16.019" height="0.763" transform="translate(17.005 6.081)"/><rect class="a" width="23.561" height="0.763" transform="translate(13.234 8.369)"/><rect class="a" width="39.121" height="0.981" transform="translate(5.923 23.067)"/><rect class="a" width="39.121" height="0.981" transform="translate(5.923 26.045)"/><rect class="a" width="39.121" height="0.981" transform="translate(5.923 29.024)"/><rect class="a" width="39.121" height="0.981" transform="translate(5.923 32.002)"/><rect class="a" width="39.121" height="0.981" transform="translate(5.923 63.876)"/></g><g transform="translate(87.536 102.473)"><path class="f" d="M1712.98,963.176h-50.029V900.7l8.483-7.647h41.546Z" transform="translate(-1662.951 -893.056)"/><path class="a" d="M1662.951,900.7h8.211l.273-7.647Z" transform="translate(-1662.951 -893.056)"/><rect class="a" width="16.019" height="0.763" transform="translate(17.005 6.081)"/><rect class="a" width="23.56" height="0.763" transform="translate(13.234 8.369)"/><rect class="a" width="39.121" height="0.981" transform="translate(5.922 23.067)"/><rect class="a" width="39.121" height="0.981" transform="translate(5.922 26.045)"/><rect class="a" width="39.121" height="0.981" transform="translate(5.922 29.024)"/><rect class="a" width="39.121" height="0.981" transform="translate(5.922 32.002)"/><rect class="a" width="39.121" height="0.98" transform="translate(5.922 41.167)"/><rect class="a" width="39.121" height="0.981" transform="translate(5.922 44.145)"/><rect class="a" width="39.121" height="0.981" transform="translate(5.922 47.599)"/></g><g transform="translate(138.171 15.799)"><rect class="a" width="27.626" height="24.355"/><path class="g" d="M1843.663,651.416a1.209,1.209,0,1,1,1.209,1.209A1.209,1.209,0,0,1,1843.663,651.416Z" transform="translate(-1831.059 -648.517)"/></g><g transform="translate(137.357 47.807)"><rect class="f" width="27.626" height="24.355" transform="translate(0 1.924) rotate(-3.993)"/><path class="a" d="M1842.12,750a1.21,1.21,0,1,1,1.291,1.122A1.209,1.209,0,0,1,1842.12,750Z" transform="translate(-1829.24 -744.554)"/></g><g transform="translate(45.556 137.533)"><rect class="f" width="27.626" height="24.355" transform="translate(0 1.924) rotate(-3.993)"/><path class="a" d="M1579.791,1006.4a1.209,1.209,0,1,1,1.291,1.123A1.21,1.21,0,0,1,1579.791,1006.4Z" transform="translate(-1566.911 -1000.954)"/></g><g transform="translate(10.817 155.012)"><rect class="f" width="27.626" height="24.355" transform="matrix(1, -0.01, 0.01, 1, 0, 0.283)"/><path class="a" d="M1479.862,1053.961a1.21,1.21,0,1,1,1.222,1.2A1.209,1.209,0,0,1,1479.862,1053.961Z" transform="translate(-1467.214 -1049.398)"/></g><g transform="translate(175.261 62.518)"><rect class="h" width="27.626" height="24.355" transform="translate(4.285 0) rotate(10.133)"/><path class="i" d="M1960.086,792.967a1.052,1.052,0,1,1,.851,1.221A1.051,1.051,0,0,1,1960.086,792.967Z" transform="translate(-1943.82 -787.474)"/></g><g transform="translate(94.413 47.324)"><rect class="h" width="27.626" height="24.355" transform="translate(0 2.972) rotate(-6.177)"/><path class="i" d="M1719.861,747.242a1.052,1.052,0,1,1,1.159.932A1.052,1.052,0,0,1,1719.861,747.242Z" transform="translate(-1706.819 -742.362)"/></g><g transform="translate(23.153 104.895)"><rect class="j" width="27.626" height="24.355" transform="translate(0 5.761) rotate(-12.037)"/><path class="g" d="M1517.01,916.332a1.052,1.052,0,1,1,1.455-.31A1.052,1.052,0,0,1,1517.01,916.332Z" transform="translate(-1503.388 -909.351)"/></g><g transform="translate(96.169 15.799)"><path class="f" d="M1714.317,669.732h-26.293V652.066l7.28-6.688h19.014Z" transform="translate(-1687.883 -645.377)"/><path class="a" d="M1687.622,652.066h7.182l.238-6.688Z" transform="translate(-1687.622 -645.377)"/><path class="a" d="M1725.867,650.21a.865.865,0,1,1,.865.865A.865.865,0,0,1,1725.867,650.21Z" transform="translate(-1712.483 -647.957)"/></g><g transform="translate(172.994 160.415)"><path class="f" d="M1933.85,1082.986h-26.294V1065.32l7.28-6.689h19.014Z" transform="translate(-1907.416 -1058.631)"/><path class="a" d="M1907.156,1065.32h7.182l.238-6.689Z" transform="translate(-1907.156 -1058.631)"/><path class="a" d="M1945.4,1063.464a.864.864,0,1,1,.864.865A.864.864,0,0,1,1945.4,1063.464Z" transform="translate(-1932.018 -1061.211)"/></g><g transform="translate(184.988 125.355)"><path class="f" d="M1968.125,982.8h-26.294V965.133l7.28-6.689h19.014Z" transform="translate(-1941.692 -958.444)"/><path class="a" d="M1941.431,965.133h7.182l.239-6.689Z" transform="translate(-1941.431 -958.444)"/><path class="a" d="M1979.677,963.277a.864.864,0,1,1,.864.865A.864.864,0,0,1,1979.677,963.277Z" transform="translate(-1966.293 -961.024)"/></g><g transform="translate(150.289 125.355)"><path class="j" d="M1868.97,982.8h-26.294V965.133l7.28-6.689h19.014Z" transform="translate(-1842.536 -958.444)"/><path class="k" d="M1842.276,965.133h7.182l.238-6.689Z" transform="translate(-1842.276 -958.444)"/><path class="l" d="M1880.522,963.277a.864.864,0,1,1,.864.865A.864.864,0,0,1,1880.522,963.277Z" transform="translate(-1867.138 -961.024)"/></g><g transform="translate(192.408 9.703)"><path class="j" d="M1989.329,652.31h-26.294V634.644l7.28-6.689h19.014Z" transform="translate(-1962.895 -627.955)"/><path class="k" d="M1962.635,634.644h7.181l.239-6.689Z" transform="translate(-1962.635 -627.955)"/><path class="l" d="M2000.88,632.788a.864.864,0,1,1,.865.864A.864.864,0,0,1,2000.88,632.788Z" transform="translate(-1987.496 -630.534)"/></g></g></g><g transform="translate(174.2 0)"><rect class="m" width="58.364" height="56.622" rx="11.929" transform="translate(0)"/><rect class="n" width="53.307" height="51.716" rx="10.896" transform="translate(2.528 2.453)"/><g transform="translate(6.891 6.412)"><g transform="translate(21.082)"><path class="o" d="M1220.243,434.031a1.209,1.209,0,1,1,1.209,1.209A1.209,1.209,0,0,1,1220.243,434.031Z" transform="translate(-1220.243 -432.822)"/><path class="o" d="M1247.836,440a1.209,1.209,0,1,1,.469,1.644A1.209,1.209,0,0,1,1247.836,440Z" transform="translate(-1238.081 -437.087)"/><path class="o" d="M1270.974,459.775a1.209,1.209,0,1,1-.36,1.671A1.209,1.209,0,0,1,1270.974,459.775Z" transform="translate(-1252.861 -450.218)"/><path class="o" d="M1281.587,489.5a1.209,1.209,0,1,1-1.209,1.209A1.209,1.209,0,0,1,1281.587,489.5Z" transform="translate(-1259.334 -469.667)"/><path class="o" d="M1273.958,522.926a1.209,1.209,0,1,1-1.71,0A1.208,1.208,0,0,1,1273.958,522.926Z" transform="translate(-1253.819 -491.165)"/><path class="o" d="M1252.264,544.677a1.209,1.209,0,1,1-1.71,0A1.209,1.209,0,0,1,1252.264,544.677Z" transform="translate(-1239.717 -505.304)"/><path class="o" d="M1220.243,554.3a1.209,1.209,0,1,1,1.209,1.209A1.209,1.209,0,0,1,1220.243,554.3Z" transform="translate(-1220.243 -511.004)"/></g><g transform="translate(0 2.296)"><path class="o" d="M1194.956,440a1.209,1.209,0,1,0-.47,1.644A1.209,1.209,0,0,0,1194.956,440Z" transform="translate(-1181.25 -439.382)"/><path class="o" d="M1171.819,459.775a1.209,1.209,0,1,0,.36,1.671A1.209,1.209,0,0,0,1171.819,459.775Z" transform="translate(-1166.471 -452.513)"/><path class="o" d="M1161.207,489.5a1.209,1.209,0,1,0,1.209,1.209A1.209,1.209,0,0,0,1161.207,489.5Z" transform="translate(-1159.998 -471.963)"/><path class="o" d="M1168.835,522.926a1.209,1.209,0,1,0,1.71,0A1.21,1.21,0,0,0,1168.835,522.926Z" transform="translate(-1165.513 -493.461)"/><path class="o" d="M1190.53,544.677a1.209,1.209,0,1,0,1.709,0A1.208,1.208,0,0,0,1190.53,544.677Z" transform="translate(-1179.615 -507.6)"/></g></g><g transform="translate(28.856 12.352)"><path class="o" d="M1222.766,490.711a1.209,1.209,0,1,1,1.209,1.209A1.209,1.209,0,0,1,1222.766,490.711Z" transform="translate(-1222.766 -475.608)"/><g transform="translate(1.044)"><rect class="o" width="0.33" height="15.103"/></g><g transform="translate(0.751 8.406)"><rect class="o" width="10.179" height="0.99" transform="translate(0 6.287) rotate(-38.14)"/></g></g></g><g transform="translate(505 160.538)"><g transform="translate(0 266.483)"><path class="p" d="M2116.883,1657.123c-.238,3.248-4.821,3.283-10.021,2.68s-3.818.713-11.1.814-9.792-2.306-10.145-3.346c-.314-.923,3.193-1.7,6.944-2.614.472-.114.946-.233,1.419-.352,4.231-1.076,7.032-4.241,10.651-7.006,3.428-2.619,7.85-12.1,7.85-12.1l9.947-.449s-4.189,8.5-5.762,12.158c-.925,2.154-.531,4.8-.129,6.833A12.765,12.765,0,0,1,2116.883,1657.123Z" transform="translate(-2085.599 -1634.754)"/><path class="q" d="M2106.861,1695.081c-5.2-.6-3.818.712-11.1.814s-9.792-2.305-10.145-3.346c-.314-.923,3.193-1.7,6.944-2.614l.045.069a20.4,20.4,0,0,0,10.684,1.913c4.887-.489,9.874-2.53,13.246-2.9a12.769,12.769,0,0,1,.344,3.379C2116.645,1695.649,2112.062,1695.684,2106.861,1695.081Z" transform="translate(-2085.599 -1670.031)"/></g><g transform="translate(68.698 260.503)"><path class="p" d="M2313.194,1646.689c-.235,3.248-4.818,3.288-10.019,2.689s-3.817.717-11.1.825-9.794-2.3-10.147-3.335c-.316-.923,3.191-1.7,6.942-2.621.472-.114.945-.234,1.418-.354,4.229-1.08,7.027-4.248,10.643-7.016,3.427-2.623,0-18.147,0-18.147l10.941-1.065s-.525,13.071-.518,19.014c0,2.344,1.081,4.6,1.486,6.63A12.734,12.734,0,0,1,2313.194,1646.689Z" transform="translate(-2281.91 -1617.666)"/><path class="q" d="M2303.175,1697.016c-5.2-.6-3.817.717-11.1.826s-9.794-2.3-10.147-3.336c-.316-.923,3.191-1.7,6.942-2.62l.045.068a20.4,20.4,0,0,0,10.687,1.9c4.887-.494,9.871-2.54,13.243-2.909a12.737,12.737,0,0,1,.348,3.379C2312.959,1697.575,2308.376,1697.614,2303.175,1697.016Z" transform="translate(-2281.91 -1665.303)"/></g><path class="r" d="M2278.9,894.466c-1.883-7.746.847-11.354,3.31-13.274,1.169-2.851,2.5-4.907,3.865-5.681a13.949,13.949,0,0,1,7.551-1.444,3.528,3.528,0,0,0-1.592-.756c1.292-.192,4.177,1.089,4.177,1.089,17.977-6.927,20.8,19.544,20.425,25.693s-.325,13.392,9.028,18.237c17.846,9.245-5.931,44.083-5.931,44.083.454-4.969-22.476-31.194-34.438-39.048-2.913-4.288-3.947-11.861-4.025-12.457.5,6,1.53,9.374,2.448,11.27C2278.261,917.16,2277.453,905.109,2278.9,894.466Z" transform="translate(-2210.843 -873.254)"/><path class="p" d="M2300.36,984.667c-.06.027,5.775,3.057,10.165,1.857,4.129-1.126,6.827-6.48,6.77-6.492-1.749-.347-2.253-2.75-2.216-13.076l-.791.155L2301,969.743s.3,4.183.311,8.124C2301.318,981.176,2301.117,984.314,2300.36,984.667Z" transform="translate(-2225.206 -934.165)"/><path class="s" d="M2302.184,970.032s.3,4.183.311,8.124c7.438-.209,11.37-6.995,12.98-10.756Z" transform="translate(-2226.391 -934.454)"/><path class="t" d="M2147.355,1375.832a3.262,3.262,0,0,0,2.956,4.249l5.192.242,5.494.168a4.407,4.407,0,0,0,3.556-1.622,154.49,154.49,0,0,0,26.073-49.365q.346-1.1.731-2.219c5.407-15.768,16.618-35.56,22.526-53.475.939-2.854,1.784-5.539,2.542-8.082q.364-1.222.7-2.4a190.045,190.045,0,0,0,6.776-35.671l-42.66.342S2172.264,1297.8,2147.355,1375.832Z" transform="translate(-2125.642 -1103.634)"/><path class="f" d="M2250.07,1055.885c.107,20.3-2.978,29.01-2.978,29.01a57.32,57.32,0,0,0,39.974,2.449c.256-.08,17.975-4.124,17.975-4.124-.363-.821-3.593-14.5-3.948-15.256-4.583-9.842-8.064-14.158-8.608-17.184a64.37,64.37,0,0,1-.527-17.007,136.475,136.475,0,0,1,5.264-26.709c-5.915-1.345-11.454-3.71-17.61-6.019-1.416,1.763-5.745,3.609-9.5,3.524-4.324-.095-5.726-1.946-5.5-3.967-4.608,2.564-8.285,4.987-8.285,4.987-3.917,6.8-11.859,13.409-12.435,23.845C2243.746,1032,2250.066,1055.316,2250.07,1055.885Z" transform="translate(-2188.494 -956.035)"/><path class="u" d="M2354.49,1099.515c1.865,2.64,5.44,18.681,14.335,20.7-4.583-11.433-8.064-16.446-8.607-19.962a86.74,86.74,0,0,1-.528-19.756c-2.978-5.218-5.2-8.8-5.2-8.8-.234-.844-4.732-14.752-6.174-2.32S2352.408,1096.563,2354.49,1099.515Z" transform="translate(-2256.227 -997.403)"/><path class="p" d="M2284.2,930.424s17.6.29,17.609-10.672,2.292-18.307-8.943-18.956-13.423,3.532-14.317,7.19S2279.621,930.066,2284.2,930.424Z" transform="translate(-2210.89 -891.114)"/><path class="r" d="M2296.947,896.015s4.818,12.861,12.212,14.762,10.6-.08,10.6-.08a20.941,20.941,0,0,1-6.849-12.371S2300.581,889.894,2296.947,896.015Z" transform="translate(-2222.987 -886.602)"/><path class="r" d="M2283.808,899.241s-3.6,2.871-4.476,5.663-1.272,8.537-2.947,8.342c0,0-3.629-8.741.45-13.686C2281.16,894.317,2283.808,899.241,2283.808,899.241Z" transform="translate(-2208.654 -888.784)"/><path class="p" d="M2200.519,1198.847l-8.312,25.341,4.741,1.9,13.743-22.389Z" transform="translate(-2154.9 -1084.907)"/><path class="l" d="M2234.532,1010.583s-9.8,3.889-12.637,9.952-7.132,46.734-8.842,50.911-3,7.484-3,7.484,4.941,4.163,9.911,4.47S2234.532,1010.583,2234.532,1010.583Z" transform="translate(-2166.503 -962.525)"/><path class="l" d="M2253.6,1000.6s-10.181,25.153-10.481,30.244-1.2,83.242-1.2,83.242.6,3.593-6.289,2.1-8.683-2.994-8.683-2.994,6.587-48.208,4.791-64.977,13.774-44.116,13.774-44.116Z" transform="translate(-2177.483 -956.035)"/><path class="v" d="M2170.929,1437.732l5.965.183a3.447,3.447,0,0,0,2.767-1.249,153.952,153.952,0,0,0,26.391-49.753q.346-1.1.731-2.219c5.407-15.768,16.618-35.56,22.526-53.475.94-2.854,1.785-5.539,2.543-8.082q.364-1.222.7-2.4l-6.282-4.767s-18.862,30.542-24.7,59.284C2196.5,1400.219,2176.187,1430.261,2170.929,1437.732Z" transform="translate(-2141.068 -1161.043)"/><path class="t" d="M2319.419,1362.872c-.1,13.223.524,42.7,2.134,57.1a2.6,2.6,0,0,0,2.589,2.314h4.451c1.876,0,3.28-.014,4.212-.027a1.711,1.711,0,0,0,1.651-1.383c4.426-22.525,7.595-41.238,9.914-57.407,1.941-13.534,3.665-25.137,4.991-35.126,1.335-10.052,2.264-18.469,2.6-25.581q.076-1.679.111-3.267t.018-3.1l-36.86-3.593C2315.691,1317.3,2319.479,1354.749,2319.419,1362.872Z" transform="translate(-2234.87 -1145.985)"/><path class="v" d="M2353.423,1440.788c1.685,0,2.989-.011,3.913-.023a2.077,2.077,0,0,0,2.007-1.677c4.4-22.4,7.547-41.018,9.857-57.117,1.94-13.534,3.665-25.138,4.991-35.126,1.336-10.052,2.263-18.469,2.6-25.58l-13.526,7.956s8.633,3.045,5.34,26.1S2358.007,1437.524,2353.423,1440.788Z" transform="translate(-2259.7 -1164.486)"/><path class="l" d="M2325.051,1113.539s2.6,9.381,11.579,8.183,21.756-6.587,21.756-6.587-3.838-12.13-8.611-28.065c-5.779-19.293-12.933-44.164-16.3-59.851a97.159,97.159,0,0,1-1.833-10.7l-7.452-14.459s-11.112,24.94-11.711,31.228S2325.051,1113.539,2325.051,1113.539Z" transform="translate(-2233.068 -956.988)"/><path class="p" d="M2309.584,1032.354l-9.837-30.29c.027.012,12.423,3.688,18.659,6.839,0,0,3.9,5.025,6.309,16.618,0,0,2.548,27.833-3.141,38.013,0,0-17.966,3.593-46.711-6.288v-6.587s31.44,1.647,37.878,2.395Z" transform="translate(-2208.631 -956.988)"/><path class="w" d="M2349.572,1093.194c.4,10.181,2.8,29.943,24.155,40.522.057.027.114.057.171.081-5.78-19.292-12.932-44.163-16.3-59.85C2353.672,1079.809,2349.354,1087.589,2349.572,1093.194Z" transform="translate(-2257.191 -1003.716)"/><path class="l" d="M2344.015,1002.064s18.233,1.284,22.626,11.066,5.788,42.32.2,51.9c0,0-7.7,2.192-21.306-.354l-.5-.1s-4.342-10.63-.449-12.726c0,0,11.478.6,10.28-3.195S2344.015,1002.064,2344.015,1002.064Z" transform="translate(-2252.899 -956.988)"/><g transform="translate(43.237 88.434)"><path class="r" d="M2215.336,1135.269l.537,1.726,29.92-9.307a1.148,1.148,0,0,0,.2-1.058.846.846,0,0,0-.739-.668Z" transform="translate(-2213.172 -1125.962)"/><path class="r" d="M2209.153,1154.19l2.163-1.631.537,1.726Z" transform="translate(-2209.153 -1143.251)"/></g><path class="p" d="M2178.735,1269.281s-7.59,4.194-8.588,7.39-.312,9.887.893,9.787,3-7.19,4-7.689,2.4-2,2.4-.9-1,3.1-.5,3.4,2.1-2.8,3.2-3.4,1.56-5.538,2.628-6.864S2178.735,1269.281,2178.735,1269.281Z" transform="translate(-2140.248 -1130.694)"/><path class="p" d="M2242.952,1134.232s-6.788-4.18-9.635-3.538-10.1,5.9-6.614,7.037,6.316-.056,7.659.771,2.333,2.337,8.589,2.317S2242.952,1134.232,2242.952,1134.232Z" transform="translate(-2176.72 -1040.561)"/></g><g transform="translate(0 141.49)"><path class="x" d="M721.317,886.63c-1.138-2.195,24.824-10.1,25.235,11.561,0,0,48.634-1.2,25.413-28.3-8.039-9.384-7.212-17.144-6.971-24.366s-5.007-28.218-23.009-26.1c0,0-4.714-1.918-10.6,1.134C718.008,827.493,688.036,894.617,721.317,886.63Z" transform="translate(-683.889 -818.823)"/><path class="p" d="M976.677,1071.145s3.166-4.819,5.717-4.914,7.276-1.417,6.9-.472-3.308,1.039-3.591,1.606,4.347,1.417,5.67,1.512,4.442,0,4.347.662-5.62,3.4-9.52,3.023a26.451,26.451,0,0,0-8.718,1.134Z" transform="translate(-859.738 -979.125)"/><path class="e" d="M845.847,1014.748a47.435,47.435,0,0,0,4.842,7.323c3.762,4.712,9.562,10.155,16.845,11.229a18.074,18.074,0,0,0,10.007-1.625l.012,0c8.845-3.926,15.5-12.956,15.5-12.956a7.271,7.271,0,0,0-.992-7.135s-17.86,4.017-19.561,3.167-11.623-29.434-13.984-33.026-10.416-5.457-10.416-5.457Z" transform="translate(-774.691 -921.169)"/><path class="y" d="M858.639,1089.578c3.762,4.711,9.562,10.155,16.845,11.229a18.077,18.077,0,0,0,10.007-1.624c-.346.045-9.179,1.137-12.7-5.162-3.592-6.427-7.475-16.632-12.811-13.23C857.678,1082.258,857.78,1085.907,858.639,1089.578Z" transform="translate(-782.641 -988.676)"/><path class="q" d="M647.036,1632.766s-5.45,4.973-4.386,8.507,5.981,5.89,6.646,10.208,3.323,6.675,5.716,6.675h11.406s1.761-3.039-2.492-3.955-5.857-5.992-5.591-10.7a83.089,83.089,0,0,0-.4-10.993l-9.038-2.094Z" transform="translate(-642.513 -1346.401)"/><path class="q" d="M785.845,1643.176s-1.961,21.069.432,22.247l30.619-.062s0-3.534-4.918-4.319-13.558-3.665-15.02-10.078S785.845,1643.176,785.845,1643.176Z" transform="translate(-735.195 -1354.698)"/><path class="p" d="M724.641,1021.888c6.3-14.131,10.156-18.186,9.42-22.573-.547-3.264,1.668-60.862,1.668-60.862.747-.231,2.246-.439,3.066-.621a7.687,7.687,0,0,0,5.614-4.883,39.182,39.182,0,0,0,1.905-13l.807.159,13.571,2.688s-.309,4.271-.318,8.294c0,.033,0,.067,0,.1a7.807,7.807,0,0,0,5.633,7.547c1.714.495,3.206.918,3.206.918a124.463,124.463,0,0,1,5.935,28.843c.952,14.616-9.062,20.966.076,50.173C784.552,1048.507,721.16,1029.7,724.641,1021.888Z" transform="translate(-695.811 -884.564)"/><path class="z" d="M802.709,923.1s-.309,4.271-.318,8.294c-7.594-.214-11.608-7.142-13.253-10.982Z" transform="translate(-737.827 -884.859)"/><path class="p" d="M801.391,882.654s-17.968.3-17.98-10.9-2.34-18.692,9.132-19.354,13.705,3.606,14.618,7.341S806.064,882.289,801.391,882.654Z" transform="translate(-733.973 -840.608)"/><path class="x" d="M789.994,847.522s-4.92,13.131-12.469,15.072-10.825-.081-10.825-.081a21.381,21.381,0,0,0,6.993-12.631S786.282,841.273,789.994,847.522Z" transform="translate(-723.241 -836)"/><path class="x" d="M829.781,850.817s3.648,1.364,5.15,4.024a18.09,18.09,0,0,1,2.429,10.275s3.707-8.925-.459-13.974C832.484,845.789,829.781,850.817,829.781,850.817Z" transform="translate(-764.248 -838.229)"/><path class="aa" d="M823.994,917.968a4.515,4.515,0,0,0,3.72,1.513,3.3,3.3,0,0,0,2.769-1.828S826.813,916.771,823.994,917.968Z" transform="translate(-760.486 -882.865)"/><path class="e" d="M719.565,998.294a121.964,121.964,0,0,0,0,14.152c.3,5.117,5.48,11.971,6.214,13.666,1.843,4.253,3.92,4.944,3.92,4.944l16.077,3.94,5.653,1.383,17.825-5.324s8.119-22.662,4.859-35.419a98.042,98.042,0,0,0-8.241-21.616s-14.545,14.242-33.485-1.208Z" transform="translate(-692.469 -918.926)"/><path class="ab" d="M733.389,1082.419c.3,5.117.774,9.883,1.508,11.578,1.842,4.252,3.92,4.944,3.92,4.944l16.077,3.94,6.982-2.052s-23.309-3.532-20.726-23.586Z" transform="translate(-701.587 -986.811)"/><path class="w" d="M803.754,1149.077s8.828,27.478,9.394,36.833-16.874,132.9-17.576,137.208c-.661,4.063-5.707,6.654-5.707,6.654a7.634,7.634,0,0,1-5.632.434c-4.6-1.3-6.048-2.852-6.048-2.852s-6.871-88.109-2.619-119.584a498.531,498.531,0,0,0,4.3-58.693Z" transform="translate(-728.103 -1033.506)"/><path class="l" d="M692.623,1146.736s-13.466,18.068-14.721,30.281-1.969,55.115-4.644,67.021-12.5,34.82-12.5,71.957a7.407,7.407,0,0,0,4.175,3.262,34.3,34.3,0,0,0,3.672,1.015,5.772,5.772,0,0,0,6.456-3.064c6.643-13.376,27.805-56.516,28.89-65.471.768-6.337,7.45-48.28,22.024-72.891,3.5-5.909-2.148-29.406-2.148-29.406Z" transform="translate(-654.373 -1031.985)"/><path class="f" d="M825.135,918.423s.31,1.319,3.592,1.116c0,0,2.755-.171,2.671-1.62A8.865,8.865,0,0,0,825.135,918.423Z" transform="translate(-761.228 -883.02)"/><path class="q" d="M787.084,1136.956s-3.544,2.8-10.584,2.945c-8.409.169-29.247-2.144-29.247-2.144a17.231,17.231,0,0,0-.888,5.318s25.449,6.419,40.195.937C786.56,1144.013,788.461,1140.435,787.084,1136.956Z" transform="translate(-710.022 -1025.627)"/><g transform="translate(64.658 112.835)"><path class="f" d="M827.28,1145.6a3.867,3.867,0,1,1,3.837,4.343A4.118,4.118,0,0,1,827.28,1145.6Zm1.272,0a2.607,2.607,0,1,0,2.565-3.071A2.855,2.855,0,0,0,828.552,1145.6Z" transform="translate(-827.28 -1141.26)"/></g><rect class="ac" width="34.573" height="47.325" transform="matrix(-0.754, -0.657, 0.657, -0.754, 35.908, 139.003)"/><path class="p" d="M762.345,1151.4s9.553,1.117,9.523,3.385-2.38,6.927-3.56,7.134-7.775-6.3-7.775-6.3Z" transform="translate(-719.232 -1035.015)"/><path class="e" d="M697.493,972.814s-12.754.894-17.643,12.779-14.166,31.84-14.166,35.2,5.182,13.705,33.011,19.655c0,0,2.878-3.028,2.7-5.422,0,0-17.372-14.921-17.325-16.665.088-3.3,2.848-7.653,18.1-22.91C706.32,991.3,697.493,972.814,697.493,972.814Z" transform="translate(-657.575 -918.926)"/></g><g transform="translate(138.594 203.578)"><g transform="translate(5.442 83.734)"><g transform="translate(35.408 79.896)"><path class="a" d="M1156.683,1549.224h-.121a1.269,1.269,0,0,1-1.269-1.3l1.925-83.429,5.67-.661-4.835,84.1A1.372,1.372,0,0,1,1156.683,1549.224Z" transform="translate(-1155.292 -1463.835)"/></g><g transform="translate(2.366 79.896)"><path class="b" d="M1062.264,1549.224h-.121a1.269,1.269,0,0,1-1.269-1.3l1.925-83.429,5.67-.661-4.835,84.1A1.371,1.371,0,0,1,1062.264,1549.224Z" transform="translate(-1060.873 -1463.835)"/></g><g transform="translate(88.728 79.896)"><path class="a" d="M1313.864,1549.224h.121a1.269,1.269,0,0,0,1.269-1.3l-1.925-83.429-5.67-.661,4.835,84.1A1.372,1.372,0,0,0,1313.864,1549.224Z" transform="translate(-1307.659 -1463.835)"/></g><path class="a" d="M1054.111,1310.907v-57.17a18.214,18.214,0,0,1,18.214-18.214h41.189a18.214,18.214,0,0,1,18.214,18.214v59.354Z" transform="translate(-1054.111 -1235.523)"/><path class="b" d="M0,0H85a0,0,0,0,1,0,0V9.025a0,0,0,0,1,0,0H9.025A9.025,9.025,0,0,1,0,0V0A0,0,0,0,1,0,0Z" transform="translate(0 75.384)"/><rect class="a" width="68.254" height="9.025" rx="4.513" transform="translate(30.317 75.384)"/></g><g transform="translate(0 0)"><path class="q" d="M1235.455,1407.107c-5.9,10.27-13.322,14.234-13.322,14.234h-30.876S1239.956,1399.272,1235.455,1407.107Z" transform="translate(-1137.821 -1262.234)"/><path class="p" d="M1248.428,1589.723a2.854,2.854,0,0,0-.509,3.053.025.025,0,0,0,.008.016c.737,2.034,3.17,4.307,6,6.576.361.292.682.557.962.8.073.065.147.129.216.194s.112.1.166.15c2.635,2.429,1.644,2.985,6.378,7.915,5.4,5.617,9.115,5.718,10.173,5.207.894-.436-.923-3.415-2.937-6.763-.1-.161-.193-.325-.293-.489-.268-.445-.535-.9-.8-1.344-2.36-4.03-1.754-5.92-1.194-11.917.455-4.874,7.582-27.226,7.582-27.226l-10.345-1.782s-3.115,17.8-6.548,20.541c-1.835,1.461-3.89,1.479-5.654,2.563-.125.075-.247.152-.367.232A13.537,13.537,0,0,0,1248.428,1589.723Z" transform="translate(-1174.508 -1365.39)"/><path class="q" d="M1248.428,1632.64a2.854,2.854,0,0,0-.509,3.053.024.024,0,0,0,.008.015c.9,2.033,3.274,4.294,6.005,6.556.357.3.672.569.953.823.073.065.147.129.216.194s.112.1.166.15c2.635,2.429,1.644,2.986,6.378,7.915,5.4,5.617,9.115,5.718,10.173,5.207.894-.436-.923-3.415-2.937-6.763a23.011,23.011,0,0,1-9.623-7.091c-3.25-4.148-5.418-9.478-7.631-12.565-.125.075-.247.152-.367.232A13.544,13.544,0,0,0,1248.428,1632.64Z" transform="translate(-1174.508 -1408.307)"/><path class="p" d="M1472.8,1577.413c.639,3.194,5.191,2.66,10.277,1.418s3.877.235,11.115-.566,9.43-3.5,9.651-4.576c.2-.955-3.379-1.292-7.215-1.734-.482-.054-.967-.113-1.452-.173-4.331-.544-7.5-3.339-11.437-5.633-3.726-2.174-9.287-11.032-9.287-11.032l-9.926.786s5.209,7.911,7.223,11.351c1.185,2.023,1.122,4.7.974,6.764A12.741,12.741,0,0,0,1472.8,1577.413Z" transform="translate(-1315.461 -1359.542)"/><path class="q" d="M1498.164,1610.11c5.085-1.242,3.877.235,11.115-.566s9.43-3.5,9.651-4.576c.2-.955-3.379-1.292-7.215-1.734l-.036.074a20.406,20.406,0,0,1-10.365,3.222c-4.91.119-10.112-1.287-13.5-1.232a12.731,12.731,0,0,0,.076,3.4C1488.527,1611.885,1493.078,1611.353,1498.164,1610.11Z" transform="translate(-1330.549 -1390.821)"/><path class="q" d="M1316.212,1407.906l-9.279,24.969-12.114,32.6a19.635,19.635,0,0,1-6.435-.588,27.927,27.927,0,0,1-6.224-3.03s3.364-35.005,9.639-55.1c1.608-5.158,3.411-9.33,5.4-11.678C1306.925,1383.584,1316.212,1407.906,1316.212,1407.906Z" transform="translate(-1196.912 -1253.504)"/><path class="ad" d="M1185.788,1314.885c-6.079-1.961-23.417.557-40.834,3.966l-3.646-6.015-37.62-2.938s-12.413,27.529-5.617,45.07a6.361,6.361,0,0,0,6.367,4.287s.548,0,.549,0,22.39-.013,29.661-.013c18.709,0,39.594-12.86,42.3-13.4,4.422-.885,6.192,7.96,10.613,17.247s41.57,41.127,41.57,41.127,5.709.057,8.068-.828a7.951,7.951,0,0,0,3.464-2.187S1199.5,1319.307,1185.788,1314.885Z" transform="translate(-1075.922 -1200.136)"/><path class="q" d="M1102.72,999.4c-4.819-2.531-12.152-2.873-13.343-3.033-14.256-1.916-22.835,18.8-23.34,25.076-.93,11.569-7.05,13.333-15.665,20.578-17.273,14.528-12.208,31.409-2.763,37.682,5.667,3.764,15.656,0,15.656,0,.141.1,27.318-15.193,40.714-22.568C1124.061,1054.281,1115,1005.85,1102.72,999.4Z" transform="translate(-1038.815 -996.244)"/><path class="p" d="M1158.637,1113.178c.059.038-6.592,2.308-11.038.339-4.183-1.849-7.352-8.731-7.29-8.735,1.9-.087,3.992-1.751,5.6-12.668l.811.291,13.624,4.9s-.987,4.371-1.625,8.534C1158.182,1109.336,1157.893,1112.684,1158.637,1113.178Z" transform="translate(-1104.701 -1058.565)"/><path class="s" d="M1172.256,1097.848s-.987,4.372-1.625,8.534c-7.825-1.409-10.9-9.206-12-13.437Z" transform="translate(-1116.613 -1059.105)"/><path class="p" d="M1171.75,1058.443s-18.641-2.5-16.9-14.087.5-19.71,12.476-18.6,13.619,5.874,13.98,9.882S1176.644,1058.8,1171.75,1058.443Z" transform="translate(-1114.078 -1015.361)"/><path class="q" d="M1170.687,1027.385s-11.933,10.284-20.049,11.113-11.19-1.776-11.19-1.776a31.693,31.693,0,0,0,7.663-10.383,5.707,5.707,0,0,1,4.7-3.364C1157.613,1022.473,1168.6,1022.245,1170.687,1027.385Z" transform="translate(-1104.142 -1013.46)"/><path class="q" d="M1207.4,1029.261s3.992,3.86,5.249,6.722c1.213,2.763,1.577,9.371.611,12,0,0,6.22-12.095,2.7-17.971C1212.226,1023.777,1207.4,1029.261,1207.4,1029.261Z" transform="translate(-1148.316 -1016.257)"/><path class="f" d="M1144.617,1163.355c-.564,37.734-.155,29.849-4.282,33.43-.994.862-3.791,1.375-7.471,1.619-11.57.768-31.91-1.139-32.684-3.277-2.668-7.4-.785-9.7-3.011-21.025-.232-1.2-.52-2.509-.857-3.929-1.857-7.78-3.663-10.427,2.923-22.926,5.973-11.321,12.178-20.51,12.737-20.179,15.759,9.355,17.03,1.492,17.03,1.492S1144.893,1144.95,1144.617,1163.355Z" transform="translate(-1074.985 -1081.281)"/><path class="ad" d="M1306.933,1460.3l-12.114,32.6a19.646,19.646,0,0,1-6.435-.589,27.937,27.937,0,0,1-6.224-3.029s3.364-35.006,9.639-55.1Z" transform="translate(-1196.912 -1280.93)"/><path class="f" d="M1192.92,1131.342s16.215,2.749,18.119,9.73,13.109,48.025,13.109,48.025-8.243,1.481-12.051-2.327-13.251-35.332-13.251-35.332Z" transform="translate(-1138.902 -1084.065)"/><path class="ae" d="M1137.648,1256.6c-11.571.768-31.91-1.139-32.684-3.277-2.668-7.4-.785-9.7-3.011-21.025l5.58-15.715s-.922,17.5,4.238,22.1,21.13,8.885,23.638,12.73A14.075,14.075,0,0,1,1137.648,1256.6Z" transform="translate(-1079.769 -1139.476)"/><path class="p" d="M1166.072,1306.616s11.415-2.541,13.257-1.528,6.343,4.7,6.907,5.986-4.1-.974-5.618-1.381c-.982-.264-3.569.635-4.849,1.062-5.387,1.8-8.689.872-8.689.872Z" transform="translate(-1121.449 -1196.854)"/><path class="f" d="M1075.537,1127.061s-15.328.944-20.634,8.344c-7.469,10.418-22.286,54.815-13.794,60.736,9.563,6.668,43.523,1.744,43.523,1.744s1.13-5.282-.443-7.837-27.124-6.683-28.3-7.862,14.742-23,14.742-26.535S1075.537,1127.061,1075.537,1127.061Z" transform="translate(-1038.559 -1081.282)"/><path class="p" d="M1205.534,1314.61s2.392,3.085,3.176,3.453a2.335,2.335,0,0,0,1.291.277l-1.611-2.9Z" transform="translate(-1147.102 -1203.2)"/><path class="p" d="M1203.955,1305.531l6.954,3.377a1.24,1.24,0,0,1-1.152.445,16.6,16.6,0,0,1-3.016-.829Z" transform="translate(-1146.076 -1197.298)"/><g transform="translate(44.623 78.442)"><path class="l" d="M1214.609,1261.547h55.007l16.547-41.149h-54.922Z" transform="translate(-1197.624 -1220.398)"/><path class="w" d="M1238.71,1333.4h-72.637v1.6h71.993Z" transform="translate(-1166.072 -1293.857)"/><path class="f" d="M1322.191,1274.326a1.906,1.906,0,0,0-1.869-2.619,3.754,3.754,0,0,0-3.37,2.619,1.906,1.906,0,0,0,1.868,2.619A3.753,3.753,0,0,0,1322.191,1274.326Z" transform="translate(-1264.084 -1253.752)"/></g></g></g><g transform="translate(170.96 323.544)"><g transform="translate(308.335 11.021)"><path class="i" d="M2020.349,1490.108h.16a1.733,1.733,0,0,0,1.678-1.819l-2.546-116.812-7.5-.926,6.394,117.746A1.862,1.862,0,0,0,2020.349,1490.108Z" transform="translate(-2012.144 -1370.553)"/></g><g transform="translate(10.691 11.021)"><path class="i" d="M1163.436,1490.108h-.16a1.733,1.733,0,0,1-1.678-1.819l2.546-116.812,7.5-.926-6.395,117.746A1.861,1.861,0,0,1,1163.436,1490.108Z" transform="translate(-1161.598 -1370.553)"/></g><path class="i" d="M7.048,0H323.28a7.048,7.048,0,0,1,7.048,7.048v0A7.048,7.048,0,0,1,323.28,14.1H7.048A7.048,7.048,0,0,1,0,7.048v0A7.048,7.048,0,0,1,7.048,0Z" transform="translate(0 0)"/></g><path class="e" d="M944.776,686.5c-1.212-29.993,23.928-43.318,49.633-43.318s53.677,6.66,56.1,46.543c1.559,25.658-12.119,41.445-51.5,41.445-13.283,0-23.606-2.1-31.513-5.831l-19.688,17.494,9.675-24.181C948.91,710.678,945.3,699.438,944.776,686.5Z" transform="translate(-838.973 -563.153)"/><g transform="translate(619.797 145.04)"><path class="q" d="M2614.354,1691.635s.723-5.635,2.4-8.985,12.335-1.218,12.335-1.218,2.132,1.827,2.589,10.355Z" transform="translate(-2544.117 -1382.682)"/><path class="q" d="M2447.564,1678.515c2.506-1.529,1.08-12.934,1.08-12.934s-11.671-9.337-13.276-2.188-11.088,10.358-16.486,11.234c-3.726.6-4.88,2.668-5.237,3.888Z" transform="translate(-2413.645 -1369.639)"/><path class="af" d="M2505.793,1312.863a53.651,53.651,0,0,0-.856,6.3c-1.085,21.163-17.815,69.552-20.807,70.68-4.63,1.747-11.921-1.967-15.736-3.182a3.271,3.271,0,0,1-2.3-3.716c8.285-38.087,11.33-92.931,12.437-125.4a147.341,147.341,0,0,1,3.368-27.653s40.8-10.886,41.045,2.885C2523.162,1244.967,2509.431,1292.76,2505.793,1312.863Z" transform="translate(-2447.699 -1086.938)"/><path class="q" d="M2529.021,1312.863l-27.257-55.314a147.32,147.32,0,0,1,3.367-27.653s40.8-10.886,41.045,2.885C2546.391,1244.967,2532.66,1292.76,2529.021,1312.863Z" transform="translate(-2470.927 -1086.938)"/><path class="af" d="M2553.713,1236.627l21.57,156.333s9.472,2.284,16.84.457c0,0,6.315-83.145,5.789-103.245s4.532-53.787-1.155-57.5S2553.713,1236.627,2553.713,1236.627Z" transform="translate(-2504.697 -1090.736)"/><path class="e" d="M2570.841,1060.686a3,3,0,0,1-2.161,3.092c-3.009.873-6.477,1.481-13.168,2.867a127.684,127.684,0,0,1-25.127,2.525c-16.523.105-22.778-5.59-22.778-5.59-.712.013.375-3.445,1.356-19.887.332-5.57.653-12.629.884-21.552.208-8.028.349-17.566.362-28.882.018-13.611,21.086-28.255,21.475-28.255l0,.006c0,1.96,3.089,5.576,7.845,5.888,5.647.369,12.574-2.441,12.574-5.692,0-.033,10.208,16.329,13.833,33.763C2567.773,1007.746,2567.033,1007.51,2570.841,1060.686Z" transform="translate(-2474.577 -917.399)"/><path class="e" d="M2510.919,965.007s-19.592-.166-24.307,6.447-15.053,42.185-9.658,54.022,15.489-4.9,21.091-12.147S2510.919,965.007,2510.919,965.007Z" transform="translate(-2453.812 -917.4)"/><path class="p" d="M2576.155,934.762l.011,2.025s-.551,6.334,7.248,7.258,13.588-1.183,13.376-6.07a70.534,70.534,0,0,1-1.407-10.8,22.069,22.069,0,0,1,.278-3.793l-15.113-.3-4.451.727Z" transform="translate(-2519.248 -890.146)"/><path class="ag" d="M2576.1,923.807l.058,10.955a12.784,12.784,0,0,0,5.447,1.2c6.946,0,11.436-5.094,13.781-8.79a22.069,22.069,0,0,1,.278-3.793l-15.113-.3Z" transform="translate(-2519.248 -890.146)"/><path class="p" d="M2588.969,872.844c-1.754,9.437-13.93,9.127-19.192,8.533-1.481-.165-2.412-.353-2.412-.353-1.669-.446-2.6-3.076-3.035-6.521-.859-6.818.227-16.826,1.378-19.386,1.734-3.852,5-8.017,17.261-5.011S2591.219,860.752,2588.969,872.844Z" transform="translate(-2511.397 -842.04)"/><path class="y" d="M2505.912,1040.764s-7.577,16.734-7.357,21.75a26.156,26.156,0,0,1,7.357.946C2511.835,1065.225,2505.912,1040.764,2505.912,1040.764Z" transform="translate(-2468.838 -966.647)"/><path class="q" d="M2557.861,833.062a40.575,40.575,0,0,0,11.763-3.183c5.167-2.247,11.686.228,13.8,1.342a3.147,3.147,0,0,0-.516-1.273,2.836,2.836,0,0,1,1.09,1.615c.1.072.142.122.117.138a3.646,3.646,0,0,1,1.77.114s-.484-.069-.658.242a.274.274,0,0,1-.078.086c8.061,3.895,8.8,16.633,6.211,19.58-3.121,3.546-7.833,11.57-7.833,11.57a14.572,14.572,0,0,1,.174-5.045c.567-3.12-2.128-3.12-5.532-4.539s-.567-5.39-3.546-7.8-13.9-.993-13.759-2.837C2556.81,841.6,2557.861,833.477,2557.861,833.062Z" transform="translate(-2507.314 -828.967)"/><path class="ah" d="M2557.561,1129c-3.2,12.844-37.791,19.482-45.654,20.831.332-5.57.652-12.629.884-21.552Z" transform="translate(-2477.521 -1023.537)"/><path class="p" d="M2616.694,1117.125c.33,0,7.69-1.1,9.008-1.758s7.348-9.228,3.4-11.425-14.549,6.591-14.549,6.591Z" transform="translate(-2544.246 -1007.486)"/><path class="y" d="M2492.247,1120.976s28.467,1.544,47.571-2.546a8.212,8.212,0,0,0-5.522-7.97s-29.775-6.311-36.928-4.553S2492.247,1120.976,2492.247,1120.976Z" transform="translate(-2464.568 -1008.792)"/><path class="e" d="M2634.394,1007.619c-5.908,7.124-13.631,12.939-22.146,14.3v0a15.874,15.874,0,0,1-2.107-9.507,19.028,19.028,0,0,1,3.1-8.727,19.277,19.277,0,0,0,1.674-3.375c4.649-11.863,3.957-34.726,3.957-34.726s19.744,2.068,25.9,10.856C2648.534,981.822,2643.729,996.356,2634.394,1007.619Z" transform="translate(-2541.339 -917.775)"/><path class="ag" d="M2570.351,928.608c-1.481-.164-2.413-.354-2.413-.354-1.67-.446-2.6-3.076-3.034-6.521a8.243,8.243,0,0,1,5.163,4.221A6.055,6.055,0,0,1,2570.351,928.608Z" transform="translate(-2511.972 -889.27)"/><path class="p" d="M2551.171,934.736s-6.819-11.251-1.516-11.741a8.018,8.018,0,0,1,8.2,4.417c.766,1.318-.2,7.265-.2,7.265Z" transform="translate(-2500.746 -890.061)"/><path class="e" d="M2580.909,1002.492a14.712,14.712,0,0,1-1.162,3.907,18.7,18.7,0,0,1-4.343,5.981l0,0c-17.709-7.993-21.292-35.442-21.892-50.523-.242-6.062,0-10.127,0-10.127,7.989-2.646,10.234,1.951,10.234,1.951s9.433,22.431,14.326,37.09C2579.942,996.378,2581.149,1000.851,2580.909,1002.492Z" transform="translate(-2504.495 -908.235)"/><path class="y" d="M2597.75,1018.414c-5.908,7.124-13.631,12.939-22.145,14.3l0,0c-17.709-7.993-21.292-35.442-21.892-50.523,0,0,8.379,30.393,19.785,41.016a12.436,12.436,0,0,0,6.451,3.529s14.382-4.065,17.4-7.892A1.642,1.642,0,0,1,2597.75,1018.414Z" transform="translate(-2504.695 -928.571)"/></g><g transform="translate(318.749 282.396)"><path class="ad" d="M1624.924,1262.622h-55.008l-16.547-41.148h54.922Z" transform="translate(-1553.369 -1221.474)"/><path class="ad" d="M1598.812,1334.479h72.637v1.6h-71.993Z" transform="translate(-1582.91 -1294.933)"/><path class="f" d="M1640.137,1275.4a1.906,1.906,0,0,1,1.868-2.619,3.754,3.754,0,0,1,3.37,2.619,1.906,1.906,0,0,1-1.868,2.619A3.752,3.752,0,0,1,1640.137,1275.4Z" transform="translate(-1609.704 -1254.827)"/></g></g></g></g></g></svg>