<svg xmlns="http://www.w3.org/2000/svg" width="102.051" height="98.153" viewBox="0 0 102.051 98.153"><defs><style>.a{fill:#7341eb;}.b{fill:#6633de;}.c{fill:#7136fc;}.d{fill:#6d34f2;}.e{fill:#8b5aff;}.f{fill:#ac89ff;}.g{fill:#7f49ff;}.h{fill:#d1bcff;}.i{fill:#8c5aff;}.j{fill:#703cf0;}.k{fill:#5b2fc7;}.l{fill:#fff;}</style></defs><g transform="translate(-0.68 0.001)"><path class="a" d="M.892,50.53,42.8,12.43,30.1.209H12.283S.891,1.829.891,12.633Z"/><path class="a" d="M.68,51.008V12.631C.68,1.771,12.139.015,12.254,0H30.185L43.109,12.436l-.168.153ZM12.28.423C12.2.437,1.1,2.144,1.1,12.634V50.051l41.39-37.62L30.014.431Z"/><path class="b" d="M77.713.212l-.2,30.423L71.586,39.1,42.8,12.433,56.015.212Z"/><path class="b" d="M71.618,39.421,42.487,12.431,55.93,0h22l-.2,30.7ZM43.11,12.431,71.55,38.779,77.3,30.566,77.5.422H56.1Z"/><path class="c" d="M77.51,43.756V30.634L71.583,39.1Z"/><path class="d" d="M77.722,44.193l-6.427-5.049,6.427-9.18Zm-5.85-5.135L77.3,43.322V31.3Z"/><path class="b" d="M50,76.35H66.615a12.812,12.812,0,0,0,10.66-9.493A11.014,11.014,0,0,0,77.66,63.4c-.33-10.128-.145-19.647-.145-19.647L71.588,39.1,50,64.646Z"/><path class="b" d="M50,76.562h-.212V64.568l21.77-25.76,6.17,4.847v.1c0,.105-.2,10.645.2,21.209v.046C76,75.69,66.724,76.556,66.635,76.563Zm.212-.423H66.615a12.678,12.678,0,0,0,10.259-8.726,11.457,11.457,0,0,0,.57-4.044c-.305-9.442-.165-18.439-.144-19.507L71.617,39.4,50.211,64.727Z"/><path class="e" d="M40.443,76.35,52.014,62.208V76.35Z"/><path class="e" d="M52.225,76.562H40L52.225,61.616Zm-11.336-.423H51.8V62.8Z"/><path class="f" d="M31.793,53.917,52,62.271,40.443,76.351l-28.63-.067Z"/><path class="f" d="M40.544,76.564h-.1l-29.1-.068L31.737,53.664l20.612,8.522Zm-28.258-.49,28.058.066L51.658,62.358,31.852,54.169Z"/><path class="b" d="M.892,50.53v14.6s.72,8.254,10.729,11.217c5.208-5.926,20.172-22.434,20.172-22.434L8.342,43.759Z"/><path class="b" d="M11.691,76.593l-.13-.039C1.529,73.585.688,65.236.681,65.154V50.436L8.3,43.509l.126.055L32.148,53.842l-.2.219c-.149.165-15.021,16.576-20.17,22.433ZM1.1,50.624v14.51c.006.062.824,8.058,10.449,10.975,4.9-5.567,18.1-20.15,19.885-22.116L8.383,44.006Z"/><path class="g" d="M42.8,12.432,8.343,43.756l23.451,10.16,27.5-26.2Z"/><path class="g" d="M31.837,54.166,7.961,43.821,42.805,12.145,59.6,27.711l-.163.156ZM8.727,43.693l23.022,9.973L58.986,27.715l-16.188-15Z"/><path class="h" d="M11.679,76.586l.07-.1,20.145.024-.082,21.429Z"/><path class="h" d="M31.812,98.152a.211.211,0,0,1-.155-.067L11.525,76.73a.21.21,0,0,1-.018-.269l.07-.1a.213.213,0,0,1,.172-.088h0l20.145.024a.21.21,0,0,1,.211.211l-.082,21.43a.212.212,0,0,1-.134.2A.185.185,0,0,1,31.812,98.152ZM12.078,76.7,31.6,97.409l.078-20.687Z"/><path class="i" d="M.892,41.217,8.366,43.7.892,50.714Z"/><path class="i" d="M.68,51.2V40.924l8.09,2.687ZM1.1,41.51v8.715l6.859-6.436Z"/><path class="j" d="M30.1.212H56.012L42.8,12.433Z"/><path class="j" d="M42.8,12.723,29.574,0H56.556ZM30.625.423,42.8,12.141,55.473.423Z"/><path class="k" d="M59.294,27.714,71.582,39.1,52,62.271,31.792,53.917Z"/><path class="k" d="M52.063,62.529,31.411,53.991,59.292,27.429l12.583,11.66ZM32.174,53.848,51.94,62.019l19.351-22.9L59.3,28Z"/><path class="l" d="M33.582,34.045H23.933L20.859,22.629H54.824l2.969,11.416H45.882V72.782h-12.3Z"/><path class="l" d="M49.686,76.587H29.777V37.849h-8.76L15.893,18.825H57.764l4.948,19.024H49.685Zm-12.3-7.608h4.692V30.241h10.8l-.989-3.807H25.823l1.026,3.807H37.387Z"/><path class="b" d="M42.555,96.169a4.182,4.182,0,0,1-2.024.423q-3.558,0-3.558-3.969V84.607H34.645V82.755h2.329V79.45l2.169-.7v4.008h3.413V84.61H39.143v7.632a3.16,3.16,0,0,0,.463,1.945,1.844,1.844,0,0,0,1.534.582,2.28,2.28,0,0,0,1.416-.45Z"/><path class="b" d="M55.152,96.3h-2.17V94.185h-.053a4.541,4.541,0,0,1-4.167,2.434A4.452,4.452,0,0,1,45.6,95.548,3.712,3.712,0,0,1,44.45,92.7q0-3.8,4.471-4.418l4.061-.569q0-3.452-2.791-3.452a6.665,6.665,0,0,0-4.418,1.666V83.707a8.386,8.386,0,0,1,4.6-1.27q4.774,0,4.775,5.054Zm-2.17-6.852-3.267.45a5.285,5.285,0,0,0-2.275.748,2.154,2.154,0,0,0-.767,1.9,2.066,2.066,0,0,0,.708,1.621,2.73,2.73,0,0,0,1.884.629,3.481,3.481,0,0,0,2.665-1.131A4.039,4.039,0,0,0,52.982,90.8Z"/><path class="b" d="M70.475,96.3H68.306V88.577q0-4.312-3.148-4.312a3.412,3.412,0,0,0-2.692,1.224A4.533,4.533,0,0,0,61.4,88.578V96.3h-2.17V82.756H61.4V85h.053A4.89,4.89,0,0,1,65.9,82.438a4.148,4.148,0,0,1,3.4,1.435,6.388,6.388,0,0,1,1.177,4.147Z"/><path class="b" d="M75.678,79.317a1.374,1.374,0,0,1-.992-.4,1.336,1.336,0,0,1-.41-1.006,1.383,1.383,0,0,1,1.4-1.412,1.4,1.4,0,0,1,1.012.4,1.413,1.413,0,0,1,0,2A1.382,1.382,0,0,1,75.678,79.317ZM76.736,96.3H74.567V82.756h2.169Z"/><path class="b" d="M87.412,96.169a4.182,4.182,0,0,1-2.024.423q-3.558,0-3.558-3.969V84.607H79.5V82.755H81.83V79.45L84,78.75v4.008h3.413V84.61H84v7.632a3.167,3.167,0,0,0,.463,1.945A1.844,1.844,0,0,0,86,94.769a2.274,2.274,0,0,0,1.416-.45Z"/><path class="b" d="M95.971,96.619a6.281,6.281,0,0,1-4.795-1.9,7.034,7.034,0,0,1-1.792-5.033,7.321,7.321,0,0,1,1.865-5.331,6.7,6.7,0,0,1,5.04-1.919,6.078,6.078,0,0,1,4.729,1.866,7.393,7.393,0,0,1,1.7,5.172,7.277,7.277,0,0,1-1.832,5.192A6.422,6.422,0,0,1,95.971,96.619Zm.159-12.355a4.127,4.127,0,0,0-3.307,1.421,5.843,5.843,0,0,0-1.217,3.922,5.528,5.528,0,0,0,1.23,3.8A4.181,4.181,0,0,0,96.13,94.8a3.967,3.967,0,0,0,3.232-1.361,5.908,5.908,0,0,0,1.13-3.875,6.012,6.012,0,0,0-1.13-3.916A3.951,3.951,0,0,0,96.13,84.264Z"/></g></svg>