<svg id="Layer_1" data-name="Layer 1" xmlns="http://www.w3.org/2000/svg" viewBox="0 0 102.05 98.15"><defs><style>.cls-1{fill:#7341eb;}.cls-2{fill:#6633de;}.cls-3{fill:#7136fc;}.cls-4{fill:#6d34f2;}.cls-5{fill:#8b5aff;}.cls-6{fill:#ac89ff;}.cls-7{fill:#7f49ff;}.cls-8{fill:#d1bcff;}.cls-9{fill:#8c5aff;}.cls-10{fill:#703cf0;}.cls-11{fill:#5b2fc7;}.cls-12{fill:#fff;}</style></defs><g id="Group_25" data-name="Group 25"><g id="Group_24" data-name="Group 24"><g id="Group_21" data-name="Group 21"><g id="Path_11" data-name="Path 11"><path id="Path_9656" data-name="Path 9656" class="cls-1" d="M.21,50.53l41.91-38.1L29.42.21H11.6S.21,1.83.21,12.63Z"/><path id="Path_9657" data-name="Path 9657" class="cls-1" d="M0,51V12.63C0,1.77,11.46,0,11.57,0H29.5L42.43,12.44l-.17.15ZM11.6.42C11.52.44.42,2.15.42,12.63V50.05L41.81,12.43,29.33.43Z"/></g><g id="Path_13" data-name="Path 13"><path id="Path_9658" data-name="Path 9658" class="cls-2" d="M77,.21l-.2,30.43L70.91,39.1,42.12,12.43,55.33.21Z"/><path id="Path_9659" data-name="Path 9659" class="cls-2" d="M70.94,39.42l-29.13-27L55.25,0h22l-.2,30.7Zm-28.51-27L70.87,38.78l5.75-8.21L76.82.42H55.42Z"/></g><g id="Path_14" data-name="Path 14"><path id="Path_9660" data-name="Path 9660" class="cls-3" d="M76.83,43.76V30.64L70.9,39.1Z"/><path id="Path_9661" data-name="Path 9661" class="cls-4" d="M77,44.19l-6.43-5L77,30Zm-5.85-5.13,5.43,4.26v-12Z"/></g><g id="Path_15" data-name="Path 15"><path id="Path_9662" data-name="Path 9662" class="cls-2" d="M49.32,76.35H65.93a12.79,12.79,0,0,0,10.66-9.49A10.65,10.65,0,0,0,77,63.4c-.33-10.13-.14-19.65-.14-19.65L70.91,39.1,49.32,64.65Z"/><path id="Path_9663" data-name="Path 9663" class="cls-2" d="M49.32,76.56h-.21v-12L70.88,38.81l6.17,4.85v.1c0,.1-.2,10.64.2,21.2V65C75.32,75.69,66,76.56,66,76.56Zm.21-.42h16.4a12.67,12.67,0,0,0,10.26-8.73,11.3,11.3,0,0,0,.57-4c-.3-9.44-.16-18.44-.14-19.51L70.94,39.4,49.53,64.73Z"/></g><g id="Path_16" data-name="Path 16"><path id="Path_9664" data-name="Path 9664" class="cls-5" d="M39.76,76.35,51.33,62.21V76.35Z"/><path id="Path_9665" data-name="Path 9665" class="cls-5" d="M51.54,76.56H39.32L51.54,61.62Zm-11.33-.42H51.12V62.8Z"/></g><g id="Path_17" data-name="Path 17"><path id="Path_9666" data-name="Path 9666" class="cls-6" d="M31.11,53.92l20.21,8.35L39.76,76.35l-28.63-.07Z"/><path id="Path_9667" data-name="Path 9667" class="cls-6" d="M39.86,76.57h-.1l-29.1-.07,20.4-22.83,20.61,8.52Zm-28.25-.49,28.05.06L51,62.36,31.17,54.17Z"/></g><g id="Path_18" data-name="Path 18"><path id="Path_9668" data-name="Path 9668" class="cls-2" d="M.21,50.53v14.6s.72,8.25,10.73,11.22c5.21-5.93,20.17-22.44,20.17-22.44L7.66,43.76Z"/><path id="Path_9669" data-name="Path 9669" class="cls-2" d="M11,76.59l-.13,0C.85,73.59,0,65.24,0,65.15V50.44l7.62-6.93.13.05L31.47,53.84l-.2.22c-.15.17-15,16.58-20.17,22.44ZM.42,50.63V65.14c0,.06.82,8,10.45,11C15.77,70.54,29,56,30.75,54L7.7,44Z"/></g><g id="Path_19" data-name="Path 19"><path id="Path_9670" data-name="Path 9670" class="cls-7" d="M42.12,12.43,7.66,43.76,31.11,53.92l27.5-26.2Z"/><path id="Path_9671" data-name="Path 9671" class="cls-7" d="M31.16,54.17,7.28,43.82,42.13,12.15,58.92,27.71l-.16.16ZM8.05,43.69l23,10L58.31,27.72l-16.19-15Z"/></g><g id="Path_20" data-name="Path 20"><path id="Path_9672" data-name="Path 9672" class="cls-8" d="M11.05,76.49l20.42,0-.08,21.43"/></g><g id="Path_21" data-name="Path 21"><path id="Path_9674" data-name="Path 9674" class="cls-9" d="M.21,41.22,7.69,43.7l-7.48,7Z"/><path id="Path_9675" data-name="Path 9675" class="cls-9" d="M0,51.2V40.92l8.09,2.69Zm.42-9.69v8.72l6.86-6.44Z"/></g><g id="Path_23" data-name="Path 23"><path id="Path_9676" data-name="Path 9676" class="cls-10" d="M29.42.21H55.33L42.12,12.43Z"/><path id="Path_9677" data-name="Path 9677" class="cls-10" d="M42.12,12.72,28.89,0h27ZM29.94.42,42.12,12.14,54.79.42Z"/></g><g id="Path_24" data-name="Path 24"><path id="Path_9678" data-name="Path 9678" class="cls-11" d="M58.61,27.72,70.9,39.1,51.32,62.27,31.11,53.92Z"/><path id="Path_9679" data-name="Path 9679" class="cls-11" d="M51.38,62.53,30.73,54,58.61,27.43,71.19,39.09ZM31.49,53.85,51.26,62l19.35-22.9L58.62,28Z"/></g></g><g id="Group_11050" data-name="Group 11050"><g id="Group_11049" data-name="Group 11049"><path id="Path_9680" data-name="Path 9680" class="cls-12" d="M35.24,34H25.59L22.51,22.61h34l3,11.41H47.54V72.76H35.24Z"/><path id="Path_9681" data-name="Path 9681" class="cls-12" d="M51.34,76.57H31.43V37.83H22.67l-5.12-19H59.42l5,19h-13ZM39,69h4.69V30.22h10.8l-1-3.81H27.48l1,3.81H39Z"/></g></g></g><g id="tanito"><g id="Group_11051" data-name="Group 11051"><path id="Path_9682" data-name="Path 9682" class="cls-2" d="M40.51,96.17a4.19,4.19,0,0,1-2,.42q-3.55,0-3.56-4v-8H32.6V82.76h2.32V79.45l2.17-.7v4h3.42v1.85H37.09v7.63a3.19,3.19,0,0,0,.47,2,1.84,1.84,0,0,0,1.53.58,2.33,2.33,0,0,0,1.42-.45Z"/><path id="Path_9683" data-name="Path 9683" class="cls-2" d="M53.1,96.3H50.93V94.19h0a4.56,4.56,0,0,1-4.17,2.43,4.46,4.46,0,0,1-3.16-1.07A3.69,3.69,0,0,1,42.4,92.7c0-2.53,1.49-4,4.47-4.42l4.06-.57q0-3.45-2.79-3.45a6.66,6.66,0,0,0-4.42,1.67V83.71a8.41,8.41,0,0,1,4.6-1.27q4.78,0,4.78,5Zm-2.17-6.85-3.26.45a5.26,5.26,0,0,0-2.28.75,2.15,2.15,0,0,0-.77,1.9,2.06,2.06,0,0,0,.71,1.62,2.76,2.76,0,0,0,1.89.63,3.52,3.52,0,0,0,2.66-1.13,4,4,0,0,0,1-2.87Z"/><path id="Path_9684" data-name="Path 9684" class="cls-2" d="M68.43,96.3H66.26V88.58c0-2.88-1.05-4.31-3.15-4.31a3.36,3.36,0,0,0-2.69,1.22,4.52,4.52,0,0,0-1.07,3.09V96.3H57.18V82.76h2.17V85h0a4.89,4.89,0,0,1,4.45-2.56,4.15,4.15,0,0,1,3.4,1.43A6.41,6.41,0,0,1,68.43,88Z"/><path id="Path_9685" data-name="Path 9685" class="cls-2" d="M73.63,79.32a1.4,1.4,0,0,1-1-.4,1.29,1.29,0,0,1-.41-1,1.38,1.38,0,0,1,1.35-1.41h0a1.4,1.4,0,0,1,1,2.4h0A1.42,1.42,0,0,1,73.63,79.32Zm1.06,17H72.52V82.76h2.17Z"/><path id="Path_9686" data-name="Path 9686" class="cls-2" d="M85.36,96.17a4.15,4.15,0,0,1-2,.42q-3.56,0-3.56-4v-8H77.45V82.76h2.33V79.45l2.17-.7v4h3.41v1.85H82v7.63a3.18,3.18,0,0,0,.46,2,1.87,1.87,0,0,0,1.54.58,2.33,2.33,0,0,0,1.42-.45Z"/><path id="Path_9687" data-name="Path 9687" class="cls-2" d="M93.92,96.62a6.27,6.27,0,0,1-4.79-1.9,7.05,7.05,0,0,1-1.8-5,7.33,7.33,0,0,1,1.87-5.33,6.67,6.67,0,0,1,5-1.92A6.09,6.09,0,0,1,99,84.3a7.43,7.43,0,0,1,1.7,5.17,7.34,7.34,0,0,1-1.83,5.2A6.45,6.45,0,0,1,93.92,96.62Zm.16-12.35a4.11,4.11,0,0,0-3.31,1.42,5.82,5.82,0,0,0-1.21,3.92,5.52,5.52,0,0,0,1.23,3.8,4.19,4.19,0,0,0,3.29,1.39,4,4,0,0,0,3.23-1.36,5.9,5.9,0,0,0,1.13-3.87,6,6,0,0,0-1.13-3.92A4,4,0,0,0,94.08,84.27Z"/></g></g></g></svg>