<svg xmlns="http://www.w3.org/2000/svg" width="572.502" height="589.796" viewBox="0 0 572.502 589.796"><defs><style>.a{fill:#dbcffd;}.b{fill:#ffad96;}.c{fill:#3b2b5b;}.d{fill:#30193b;}.e{fill:#7f65c1;}.f{fill:#ff5e4d;}.g{fill:#ff97a6;}.h{fill:#eeeafe;}.i{fill:none;stroke:#ff5e4d;stroke-linecap:round;stroke-linejoin:round;stroke-width:4px;}.j{fill:#aca9f8;}.k{fill:#c6c4ff;}.l{fill:#514dc5;}.m{fill:#fff;}.n{fill:#c95d77;}.o{fill:#295a6e;}.p{fill:rgba(81,77,197,0.26);}</style></defs><g transform="translate(-233.224 -10.803)"><g transform="translate(305.43 72.254)"><g transform="translate(65.906 453.335)"><path class="a" d="M350.9,478.544a6.682,6.682,0,1,1-7-6.351A6.682,6.682,0,0,1,350.9,478.544Z" transform="translate(-337.544 -472.185)"/></g><g transform="translate(0 387.296)"><g transform="translate(9.287 9.442)"><path class="b" d="M353.639,548.172q-2.07.1-4.161.068a63,63,0,1,1,4.161-.068Zm-6.081-121.95A59.009,59.009,0,1,0,409.5,486.113h0a59,59,0,0,0-58.044-59.953Q349.5,426.129,347.558,426.222Z" transform="translate(-287.407 -422.067)"/></g><g transform="translate(4.027 4.415)"><path class="c" d="M354.468,554.168q-2.243.11-4.507.073a68.317,68.317,0,1,1,69.412-67.2h0a68.319,68.319,0,0,1-64.905,67.129Zm-6.485-131.033a62.874,62.874,0,1,0,65.947,63.817l2.722.044-2.722-.044a62.945,62.945,0,0,0-61.848-63.882Q350.019,423.035,347.983,423.135Z" transform="translate(-282.749 -417.616)"/></g><path class="d" d="M418.835,481.1c-1.757-36.288-33.309-62.826-70.479-61.026s-66.1,31.267-64.339,67.555c0,0-4.857-2.78-4.833-4.271.6-36.943,30.574-67.713,68.825-69.566,38.834-1.88,72.062,26.729,75.4,64.275C423.486,479,418.835,481.1,418.835,481.1Z" transform="translate(-279.183 -413.706)"/><g transform="translate(12.846 13.235)"><path class="e" d="M352.933,544.35a59.5,59.5,0,1,1,56.548-62.3A59.565,59.565,0,0,1,352.933,544.35ZM347.31,428.216a56.774,56.774,0,1,0,59.453,53.96A56.839,56.839,0,0,0,347.31,428.216Z" transform="translate(-290.559 -425.427)"/></g><g transform="translate(54.745 55.135)"><path class="a" d="M346.111,497.706a17.6,17.6,0,1,1,16.727-18.43A17.62,17.62,0,0,1,346.111,497.706Zm-1.505-31.078a13.515,13.515,0,1,0,14.153,12.844A13.531,13.531,0,0,0,344.606,466.628Z" transform="translate(-327.66 -462.529)"/></g></g><g transform="translate(200.369 386.974)"><g transform="translate(9.288 9.442)"><path class="b" d="M531.07,547.887q-2.07.1-4.162.068a63,63,0,1,1,4.162-.068Zm-6.08-121.951a59.009,59.009,0,1,0,61.937,59.891h0a59.006,59.006,0,0,0-58.045-59.953C527.579,425.854,526.279,425.874,524.99,425.937Z" transform="translate(-464.838 -421.782)"/></g><g transform="translate(4.027 4.416)"><path class="c" d="M531.845,553.886q-2.211.107-4.453.071a68.284,68.284,0,1,1,4.453-.071Zm-6.48-131.034a62.985,62.985,0,1,0,4.149-.067Q527.431,422.75,525.365,422.852Z" transform="translate(-460.18 -417.332)"/></g><path class="d" d="M596.267,480.816c-1.758-36.288-33.359-62.923-70.528-61.122s-66.049,31.363-64.292,67.653c0,0-4.857-2.78-4.833-4.272.6-36.942,30.575-67.712,68.825-69.566,38.833-1.88,72.063,26.73,75.4,64.275C600.917,478.712,596.267,480.816,596.267,480.816Z" transform="translate(-456.614 -413.421)"/><g transform="translate(12.847 13.237)"><path class="e" d="M530.365,544.066a59.5,59.5,0,1,1,56.547-62.3A59.563,59.563,0,0,1,530.365,544.066Zm-5.625-116.134a56.774,56.774,0,1,0,59.454,53.961A56.839,56.839,0,0,0,524.741,427.932Z" transform="translate(-467.99 -425.143)"/></g><g transform="translate(54.745 55.135)"><path class="a" d="M523.542,497.421a17.6,17.6,0,1,1,16.727-18.429A17.619,17.619,0,0,1,523.542,497.421Zm-1.505-31.078a13.515,13.515,0,1,0,14.154,12.847A13.532,13.532,0,0,0,522.037,466.343Z" transform="translate(-505.091 -462.244)"/></g></g><g transform="translate(69.383 371.427)"><path class="f" d="M431.9,489.3l-.076,0-88.42,1.817a2.722,2.722,0,0,1-2.325-4.225l53.975-81.535a2.724,2.724,0,0,1,2.138-1.215l92.734-4.492a2.722,2.722,0,0,1,2.369,4.269L434,488.135A2.725,2.725,0,0,1,431.9,489.3Zm-83.415-3.73,81.837-1.682,54.358-78.531-85.848,4.158Z" transform="translate(-340.623 -399.654)"/></g><g transform="translate(112.989 323.04)"><path class="d" d="M383.11,356.914c-.02.444.436,1.686-3.233,13.269-5.718,18.05,28.758,69.15,28.758,69.15l8.5,64.807,5.766,1.225s5.579-49.814,4.586-67.427c-1.229-21.809-10.987-67.662-14.244-72.261C407.244,364.711,392.279,355.726,383.11,356.914Z" transform="translate(-379.237 -356.806)"/><g transform="translate(35.372 148.773)"><g transform="translate(0 2.174)"><path class="c" d="M425.369,497.75c1.666-3.3-3.492-3.834-6.074-5.488.694.769,1.316,1.764-.117,1.77-2.1.008-6.184-1.8-7.05-3.558a9.3,9.3,0,0,0-1.561,3.333C410.222,495.1,424.206,500.05,425.369,497.75Z" transform="translate(-410.56 -490.473)"/></g><g transform="translate(1.567)"><path class="g" d="M419,494.28c1.433-.006.812-1,.117-1.77-1.6-1.027-2.967-1.817-3.252-2.054a2.138,2.138,0,0,1-.766-1.474l-.835-.435s-2.093,1.908-2.315,2.174C412.814,492.478,416.9,494.288,419,494.28Z" transform="translate(-411.948 -488.548)"/></g></g></g><g transform="translate(145.904 460.548)"><g transform="translate(7.167)"><path class="e" d="M416.871,500.51a2,2,0,0,1-.786-.117,2.041,2.041,0,0,1-1.234-2.61l6.4-17.856a2.042,2.042,0,0,1,3.844,1.377l-6.4,17.856A2.04,2.04,0,0,1,416.871,500.51Z" transform="translate(-414.731 -478.573)"/></g><g transform="translate(0 17.231)"><g transform="translate(0 0)"><rect class="c" width="4.083" height="16.286" transform="matrix(0.315, -0.949, 0.949, 0.315, 0, 3.875)"/></g></g></g><g transform="translate(110.895 363.048)"><path class="a" d="M385.962,406.229a2.039,2.039,0,0,1-1.812-.927l-6.438-9.915a2.041,2.041,0,0,1,3.425-2.222l6.437,9.914a2.041,2.041,0,0,1-.6,2.824A2.019,2.019,0,0,1,385.962,406.229Z" transform="translate(-377.383 -392.234)"/></g><g transform="translate(115.51 370.523)"><path class="f" d="M426.649,490.059a2.722,2.722,0,0,1-2.574-1.517l-42.324-85.762a2.721,2.721,0,1,1,4.881-2.409l42.325,85.763a2.726,2.726,0,0,1-2.308,3.924Z" transform="translate(-381.469 -398.853)"/></g><g transform="translate(208.842 356.684)"><g transform="translate(0 0)"><rect class="a" width="4.083" height="14.204" transform="translate(0 1.789) rotate(-25.991)"/></g></g><g transform="translate(206.633 320.889)"><path class="a" d="M464.3,396.5a2.041,2.041,0,0,1-.9-3.916c4.166-1.779,10.563-4.536,13.1-5.682l-.68-25.384-6.812-2.678a2.042,2.042,0,0,1,1.494-3.8l8.07,3.173a2.04,2.04,0,0,1,1.293,1.845l.751,28.055a2.038,2.038,0,0,1-.828,1.7c-.225.167-.694.515-14.782,6.531A2.061,2.061,0,0,1,464.3,396.5Z" transform="translate(-462.161 -354.901)"/></g><g transform="translate(197.533 316.848)"><g transform="translate(0 0)"><rect class="c" width="17.883" height="7.092" rx="0.825" transform="matrix(0.995, 0.097, -0.097, 0.995, 0.688, 0)"/></g></g><g transform="translate(147.585 448.25)"><g transform="translate(1.361 1.36)"><path class="h" d="M435.7,480.61A12.318,12.318,0,1,1,422.8,468.9,12.318,12.318,0,0,1,435.7,480.61Z" transform="translate(-411.078 -468.887)"/></g><path class="a" d="M424.214,495.025a13.679,13.679,0,1,1,13-14.325A13.7,13.7,0,0,1,424.214,495.025Zm-1.191-24.608A10.957,10.957,0,1,0,434.5,480.831,10.969,10.969,0,0,0,423.022,470.417Z" transform="translate(-409.873 -467.683)"/></g><g transform="translate(155.082 455.747)"><path class="a" d="M422.993,486.679a6.182,6.182,0,1,1,5.876-6.474A6.189,6.189,0,0,1,422.993,486.679Zm-.4-8.271a2.1,2.1,0,1,0,2.2,1.994A2.1,2.1,0,0,0,422.592,478.408Z" transform="translate(-416.512 -474.321)"/></g><g transform="translate(159.057 434.857)"><g transform="translate(1.421 3.543)"><path class="e" d="M423.433,481.513a2.088,2.088,0,0,1-.564-.052,2.042,2.042,0,0,1-1.526-2.451l4.3-18.472a2.042,2.042,0,0,1,3.977.925l-4.3,18.472A2.044,2.044,0,0,1,423.433,481.513Z" transform="translate(-421.291 -458.96)"/></g><g transform="translate(0 0)"><rect class="c" width="4.083" height="16.286" transform="matrix(0.204, -0.979, 0.979, 0.204, 0, 3.996)"/></g></g><g transform="translate(258.304 454.273)"><path class="i" d="M507.917,473.016" transform="translate(-507.917 -473.016)"/></g><g transform="translate(216.478 369.413)"><path class="i" d="M470.879,397.87" transform="translate(-470.879 -397.87)"/></g><g transform="translate(94.482 354.75)"><path class="e" d="M362.865,390.231a2.5,2.5,0,0,1,1.727-2.314c1.928-.6,5.946-1.48,13.973-2.151,13.349-1.115,22.625-1.189,23.707-.116s2.384,6.632-.772,7.254-9.347.545-13.74,2.727-14.672,6.709-18.952,5.417C364.821,399.844,362.64,397.333,362.865,390.231Z" transform="translate(-362.849 -384.886)"/></g><g transform="translate(146.425 281.163)"><path class="j" d="M412.943,320.757c-3.346,2.056-3.642,3.567-4.077,11.158-.518,9.058,8.553,27.781,17.927,31.794,7.328,3.136,30.371,9.044,34.73-2.167.981-2.526.272-5.652-.44-7.725a3.554,3.554,0,0,0-3.18-2.376l-25.561-1.381s-10.237-22.346-13.048-26.928C417.275,319.842,416.3,318.691,412.943,320.757Z" transform="translate(-408.845 -319.723)"/></g><g transform="translate(161.379 428.391)"><g transform="translate(0 2.438)"><path class="c" d="M437.26,457.882c1.256-3.474-3.93-3.384-6.692-4.716.781.68,1.519,1.592.1,1.771-2.08.261-6.356-1.042-7.427-2.681a9.278,9.278,0,0,0-1.147,3.5C421.9,457.075,436.382,460.305,437.26,457.882Z" transform="translate(-422.087 -452.256)"/></g><g transform="translate(1.149)"><path class="g" d="M430.532,455.216c1.423-.178.685-1.091-.1-1.771-1.714-.826-3.164-1.445-3.477-1.647a2.137,2.137,0,0,1-.937-1.371l-.882-.331s-1.846,2.148-2.035,2.438C424.177,454.174,428.452,455.477,430.532,455.216Z" transform="translate(-423.105 -450.097)"/></g></g><g transform="translate(99.861 323.385)"><path class="c" d="M373.8,357.4c-.659-2.666-5.753,13.767-6.179,26.064-.83,23.91,72.59,16.228,72.59,16.228s-9.349,51.407-8.887,60.939c.125,2.583,5.317,4.376,6.054,1.243,2.061-8.746,20.706-47.157,23.426-74.292,1.154-11.516-31.449-11.8-43.947-16.08C398.047,365.06,379.311,356.369,373.8,357.4Z" transform="translate(-367.612 -357.111)"/></g><g transform="translate(105.142 277.647)"><path class="j" d="M426.072,326.966c-2.116-5.225-1.512-8.109-22.607-10.258-2.332-.238-10.864-.419-16,4.251-3.186,2.9-8.636,12.109-12.306,23.585-2.85,8.913-2.574,17.55-2.874,18.674,6.828,4.535,38.35,9.87,42.412,8.711,1.023-.89,4.663-9.339,9.261-20.092C428.481,341.272,428.283,332.424,426.072,326.966Z" transform="translate(-372.289 -316.609)"/></g><g transform="translate(148.146 277.172)"><path class="c" d="M410.369,316.188h0Z" transform="translate(-410.369 -316.188)"/></g><g transform="translate(134.189 279.821)"><path class="k" d="M422.707,325.908c-3.126-7.572-9.161-7.373-9.161-7.373a26.659,26.659,0,0,1,2.123,6.493,33.861,33.861,0,0,1,.692,7.18c-.071,6.78-2.85,15.755-5.107,21.835-4.6,12.389-13.245,16.726-13.245,16.726s11.414,1.8,13.366.91c1.023-.89,5.068-9.151,9.667-19.9C425.561,341.212,424.954,331.353,422.707,325.908Z" transform="translate(-398.01 -318.535)"/></g><g transform="translate(121.751 279.321)"><path class="j" d="M390.982,319.5c-3.773,2.646-4.012,4.436-3.984,13.359.035,10.646,11.985,31.934,23.25,35.969,8.8,3.154,48.038,5.122,52.35-8.318,1.6-5-.959-7.355-.959-7.355l-45.859-.707S402.206,327,398.59,321.834C395.992,318.124,394.771,316.844,390.982,319.5Z" transform="translate(-386.996 -318.092)"/></g><g transform="translate(196.262 314.316)"><path class="g" d="M453.838,351.177s3.465-2.473,5.2-2.047c1.34.329,4.227,2.044,4.97,3.556.873,1.779-2.256,3.875-3.485,3.369-.726-.3-1.081-2.847-1.846-3.127s-3.74,1.113-5.305.627C452.8,353.375,452.77,352.176,453.838,351.177Z" transform="translate(-452.978 -349.08)"/></g><g transform="translate(133.345 283.064)"><path class="a" d="M427.105,352.217c-2.112.126-4.221.168-6.332.248l-6.33.1a.515.515,0,0,1-.455-.26l-.016-.028c-2.886-5.09-5.684-10.229-8.455-15.381l-4.1-7.759c-1.394-2.573-2.7-5.191-4.159-7.731a83.26,83.26,0,0,1,4.9,7.31q2.314,3.742,4.479,7.564c2.881,5.1,5.66,10.254,8.295,15.486l-.471-.287,6.324.295C422.891,351.918,425,352.024,427.105,352.217Z" transform="translate(-397.263 -321.406)"/></g><g transform="translate(121.389 284.377)"><path class="a" d="M387.829,322.569c-.736,2.644-.506,5.406-.458,8.124a25.139,25.139,0,0,0,1.254,7.949,60.107,60.107,0,0,0,6.96,14.6,58.97,58.97,0,0,0,4.75,6.561,41.17,41.17,0,0,0,5.8,5.58,18.007,18.007,0,0,0,7.214,3.339c2.637.654,5.345,1.045,8.052,1.438a63.9,63.9,0,0,1-8.187-.784,18.813,18.813,0,0,1-7.69-3.143,44.639,44.639,0,0,1-11.086-12.261c-.771-1.147-1.4-2.383-2.1-3.569-.615-1.237-1.3-2.438-1.844-3.707a46.1,46.1,0,0,1-2.872-7.768,25.766,25.766,0,0,1-.914-8.235c.054-1.369.116-2.74.246-4.108A13.18,13.18,0,0,1,387.829,322.569Z" transform="translate(-386.675 -322.569)"/></g><g transform="translate(156.257 291.357)"><path class="h" d="M420.383,328.75a30.982,30.982,0,0,1,.564,5.355,38.641,38.641,0,0,1-.225,5.395,26.367,26.367,0,0,1-3.17,10.271c.522-1.722,1-3.421,1.348-5.155.317-1.738.623-3.475.809-5.233.208-1.754.334-3.518.456-5.288C420.271,332.322,420.33,330.544,420.383,328.75Z" transform="translate(-417.552 -328.75)"/></g><g transform="translate(184.131 66.044)"><g transform="translate(24.373 68.684)"><g transform="translate(0 0)"><rect class="a" width="25.017" height="4.318" rx="1.312" transform="matrix(0.983, -0.186, 0.186, 0.983, 0, 4.644)"/></g></g><g transform="translate(32.296 78.421)"><g transform="translate(0 0)"><path class="a" d="M0,0H11.843a0,0,0,0,1,0,0V2.485a3.6,3.6,0,0,1-3.6,3.6H3.6A3.6,3.6,0,0,1,0,2.485V0A0,0,0,0,1,0,0Z" transform="matrix(0.983, -0.186, 0.186, 0.983, 0, 2.198)"/></g></g><path class="l" d="M499.174,153.809c-3.1-16.4-18.468-27.239-34.194-24.008-14.984,3.077-24.919,18.146-22.337,33.9a30.426,30.426,0,0,0,14.594,21.469,11.351,11.351,0,0,1,4.878,5.764c.061.159.123.324.185.5,1.134,3.115.434,6.413,3.856,6.822l11.138-2.1,1.27-.239,11.138-2.1c3.038-1.628,1.183-4.445,1.1-7.757,0-.184-.008-.36-.009-.53a11.512,11.512,0,0,1,2.513-7.208A30.4,30.4,0,0,0,499.174,153.809Z" transform="translate(-442.235 -129.23)"/><g transform="translate(14.344 29.243)"><path class="m" d="M474.021,196.006a74.646,74.646,0,0,0-3.5-13.9c-1.49-4.457-3.25-9-6.033-12.831-1.358-1.87-3.112-3.715-5.417-4.335a3.712,3.712,0,0,0-3.277.374,2.087,2.087,0,0,0-.639,2.589c1.011,2.025,4.053,2.654,6.086,2.639a13.961,13.961,0,0,0,7-2.047,10.685,10.685,0,0,0,4.722-5.418,7.465,7.465,0,0,0-.63-6.71,2.527,2.527,0,0,0-2.446-1.2,2.444,2.444,0,0,0-1.7,2.025,7.65,7.65,0,0,0,1.765,6.1c3.276,4.1,9.032,4.386,13.459,2.074,1.739-.908,4.811-2.86,3.6-5.256a2.277,2.277,0,0,0-2.316-1.129,3.471,3.471,0,0,0-2.526,1.773,21.767,21.767,0,0,0-2.315,6.838,44.258,44.258,0,0,0-.9,7.69,58.806,58.806,0,0,0,1.529,15.481,31.743,31.743,0,0,0,1,3.4c.129.36.7.151.628-.209a111.428,111.428,0,0,1-1.941-12.372,50.663,50.663,0,0,1,.524-12.659,32.392,32.392,0,0,1,1.585-5.834,5.864,5.864,0,0,1,1.5-2.6c.915-.735,2.64-.559,2.369.962-.2,1.1-1.386,1.866-2.259,2.422a12.652,12.652,0,0,1-3.344,1.513,9.923,9.923,0,0,1-6.483-.232,8.4,8.4,0,0,1-4.274-4.007,6.667,6.667,0,0,1-.7-2.876c0-.846.313-2.474,1.527-2.06.97.332,1.452,1.694,1.652,2.586a7.01,7.01,0,0,1-.055,3.2,9.068,9.068,0,0,1-3.657,5.085c-3.132,2.251-8.738,3.928-12.022,1.038-1.355-1.194-.229-2.522,1.3-2.456A5.974,5.974,0,0,1,461,166.921a15.656,15.656,0,0,1,3.842,4.47c4.689,7.516,6.366,16.312,8.857,24.675a.162.162,0,0,0,.317-.06Z" transform="translate(-454.937 -155.125)"/></g><g transform="translate(22.331 64.264)"><g transform="translate(0 0)"><rect class="h" width="27.231" height="4.318" rx="1.312" transform="translate(0 5.055) rotate(-10.698)"/></g></g><g transform="translate(26.622 73.2)"><g transform="translate(0 0)"><rect class="h" width="22.07" height="4.318" rx="1.312" transform="translate(0 4.097) rotate(-10.698)"/></g></g></g><g transform="translate(244.547 145.425)"><g transform="translate(2.546 61.699)"><g transform="translate(0)"><rect class="a" width="23.476" height="4.052" rx="1.232" transform="translate(1.261 0) rotate(18.138)"/></g></g><g transform="translate(5.242 71.28)"><g transform="translate(0 0)"><path class="a" d="M0,0H11.114a0,0,0,0,1,0,0V2.332A3.378,3.378,0,0,1,7.736,5.71H3.378A3.378,3.378,0,0,1,0,2.332V0A0,0,0,0,1,0,0Z" transform="matrix(0.95, 0.311, -0.311, 0.95, 1.778, 0)"/></g></g><path class="l" d="M548.378,235.888c4.876-14.886-2.852-30.75-17.244-35.213-13.711-4.253-28.7,3.64-33.7,17.756a28.554,28.554,0,0,0,2.28,24.255,10.652,10.652,0,0,1,1.4,6.946c-.021.158-.046.322-.072.492-.479,3.073-2.547,5.468.082,7.353l10.108,3.312,1.154.377,10.108,3.312c3.234.035,2.985-3.119,4.418-5.879.079-.154.156-.3.232-.439a10.8,10.8,0,0,1,5.328-4.789A28.525,28.525,0,0,0,548.378,235.888Z" transform="translate(-495.735 -199.524)"/><g transform="translate(9.907 27.642)"><path class="m" d="M507.3,259.523a70.088,70.088,0,0,0,3.41-13.013,43.966,43.966,0,0,0,.849-13.278,9.889,9.889,0,0,0-2.491-6.016,3.487,3.487,0,0,0-2.864-1.177,1.961,1.961,0,0,0-1.7,1.84c-.086,2.122,2.131,4.017,3.808,4.924a13.09,13.09,0,0,0,6.68,1.484,10.022,10.022,0,0,0,6.333-2.316,7,7,0,0,0,2.519-5.8,2.372,2.372,0,0,0-1.467-2.1,2.293,2.293,0,0,0-2.312.9,7.173,7.173,0,0,0-1.312,5.817c.834,4.857,5.44,7.694,10.125,7.8,1.841.041,5.249-.175,5.34-2.69a2.134,2.134,0,0,0-1.392-1.976,3.256,3.256,0,0,0-2.878.314,20.42,20.42,0,0,0-5,4.574,41.551,41.551,0,0,0-4.219,5.915,55.243,55.243,0,0,0-5.75,13.419,29.768,29.768,0,0,0-.721,3.245c-.056.355.5.439.611.112a104.675,104.675,0,0,1,4-11.049,47.544,47.544,0,0,1,6.16-10.169,30.471,30.471,0,0,1,3.945-4.079,5.516,5.516,0,0,1,2.411-1.456c1.085-.19,2.423.736,1.512,1.863-.658.814-1.984.907-2.953.969a11.888,11.888,0,0,1-3.433-.269,9.311,9.311,0,0,1-5.225-3.126,7.877,7.877,0,0,1-1.7-5.227,6.249,6.249,0,0,1,.726-2.682c.38-.7,1.377-1.893,2.186-1,.648.711.428,2.049.189,2.873a6.566,6.566,0,0,1-1.5,2.609,8.5,8.5,0,0,1-5.308,2.525c-3.592.434-8.961-.726-10.352-4.588-.575-1.595.953-2.176,2.179-1.431a5.607,5.607,0,0,1,2.044,2.462,14.7,14.7,0,0,1,1.136,5.415c.452,8.3-2.15,16.29-3.888,24.292a.152.152,0,0,0,.289.095Z" transform="translate(-504.508 -224.001)"/></g><g transform="translate(2.681 57.48)"><g transform="translate(0)"><rect class="h" width="25.554" height="4.052" rx="1.232" transform="matrix(0.95, 0.311, -0.311, 0.95, 1.261, 0)"/></g></g><g transform="translate(2.599 65.981)"><g transform="translate(0)"><rect class="h" width="20.711" height="4.052" rx="1.232" transform="translate(1.261 0) rotate(18.138)"/></g></g></g><g transform="translate(251.353)"><g transform="translate(20.337 82.593)"><g transform="translate(0 0)"><rect class="a" width="28.935" height="4.994" rx="1.518" transform="translate(0 0.851) rotate(-1.686)"/></g></g><g transform="translate(28.066 92.807)"><g transform="translate(0 0)"><path class="a" d="M0,0H13.7a0,0,0,0,1,0,0V2.875A4.163,4.163,0,0,1,9.534,7.038H4.164A4.164,4.164,0,0,1,0,2.875V0A0,0,0,0,1,0,0Z" transform="matrix(1, -0.029, 0.029, 1, 0, 0.403)"/></g></g><path class="l" d="M568.133,104.4c-.568-19.3-16.161-34.463-34.713-33.623-17.676.8-31.753,16.215-31.658,34.677a35.187,35.187,0,0,0,12.782,27.169,13.144,13.144,0,0,1,4.528,7.468c.041.193.08.393.121.6.731,3.763-.666,7.4,3.17,8.49l13.1-.385,1.5-.044,13.1-.386c3.765-1.31,2.157-4.863,2.664-8.663q.042-.315.086-.606a13.322,13.322,0,0,1,4.176-7.78A35.155,35.155,0,0,0,568.133,104.4Z" transform="translate(-501.762 -70.747)"/><g transform="translate(14.687 34.017)"><path class="m" d="M531.341,148.277a86.348,86.348,0,0,0-1.484-16.513c-.893-5.362-2.081-10.874-4.566-15.751-1.214-2.382-2.883-4.807-5.4-5.933a4.294,4.294,0,0,0-3.811-.167,2.414,2.414,0,0,0-1.2,2.842c.787,2.5,4.15,3.766,6.473,4.117a16.139,16.139,0,0,0,8.366-1.072,12.351,12.351,0,0,0,6.375-5.334c1.248-2.295,1.727-5.371.5-7.778a2.917,2.917,0,0,0-2.577-1.816,2.823,2.823,0,0,0-2.3,2.006,8.84,8.84,0,0,0,.91,7.292c3,5.283,9.523,6.648,15,4.81,2.151-.723,6.014-2.4,5.069-5.352a2.632,2.632,0,0,0-2.44-1.709,4.013,4.013,0,0,0-3.207,1.566,25.179,25.179,0,0,0-3.885,7.393,51.25,51.25,0,0,0-2.419,8.622,68.052,68.052,0,0,0-1.058,17.962,36.7,36.7,0,0,0,.522,4.064c.082.435.768.3.754-.125a128.855,128.855,0,0,1,.025-14.485,58.534,58.534,0,0,1,2.893-14.366,37.457,37.457,0,0,1,2.868-6.378,6.767,6.767,0,0,1,2.187-2.7c1.178-.674,3.117-.16,2.532,1.528-.424,1.221-1.921,1.881-3.02,2.358a14.649,14.649,0,0,1-4.093,1.124,11.486,11.486,0,0,1-7.365-1.44,9.714,9.714,0,0,1-4.157-5.352,7.713,7.713,0,0,1-.28-3.413c.151-.967.806-2.769,2.117-2.076,1.048.553,1.352,2.2,1.42,3.252a8.122,8.122,0,0,1-.645,3.651,10.478,10.478,0,0,1-5.1,5.146c-3.984,2-10.693,2.9-13.921-.993-1.333-1.609.2-2.923,1.929-2.57a6.914,6.914,0,0,1,3.4,2,18.111,18.111,0,0,1,3.58,5.8c3.994,9.435,4.316,19.787,5.646,29.791a.187.187,0,0,0,.374-.011Z" transform="translate(-514.767 -100.869)"/></g><g transform="translate(18.73 77.569)"><g transform="translate(0 0)"><rect class="h" width="31.496" height="4.994" rx="1.518" transform="translate(0 0.927) rotate(-1.686)"/></g></g><g transform="translate(22.187 87.636)"><g transform="translate(0 0)"><rect class="h" width="25.527" height="4.994" rx="1.518" transform="matrix(1, -0.029, 0.029, 1, 0, 0.751)"/></g></g></g><g transform="translate(265.592 451.901)"><path class="a" d="M528.625,477.7a7.131,7.131,0,1,1-7.468-6.778A7.131,7.131,0,0,1,528.625,477.7Z" transform="translate(-514.37 -470.915)"/></g><g transform="translate(213.075 366.01)"><path class="f" d="M528.4,491.918a3.388,3.388,0,0,1-2-.535l-19.85-12.743a3.406,3.406,0,0,1-1.231-1.394L468.2,399.73a3.4,3.4,0,1,1,6.138-2.941l36.7,76.646,19.037,12.221a3.4,3.4,0,0,1-1.677,6.262Z" transform="translate(-467.866 -394.857)"/></g><g transform="translate(139.36 264.953)"><g transform="translate(0 3.39)"><path class="g" d="M404.3,308.371s-2.239,10.458-1.595,11.686,3.206,2.951,4.934.409.821-11.851.821-11.851Z" transform="translate(-402.59 -308.371)"/></g><g transform="translate(0.364)"><path class="n" d="M404.417,305.369s-1.468,9.464-1.505,10.77c-.028,1.005,5.061,2.871,5.47,1.6.9-2.814.2-12.122.2-12.122Z" transform="translate(-402.912 -305.369)"/></g></g><g transform="translate(139.216 280.921)"><path class="o" d="M404.556,324.322c-.177-.126-2.68-3.3-1.966-4.146.551-.654,2.95-.83,4.365-.519a2.054,2.054,0,0,1,1.2,1.824,5.138,5.138,0,0,1-2.245,2.877C404.393,325.113,404.556,324.322,404.556,324.322Z" transform="translate(-402.462 -319.508)"/></g><g transform="translate(119.189 285.515)"><path class="o" d="M406.045,325.8s-1.309,3.877-6.384,8.025-13.572,5.715-13.572,5.715l-1.362,6.147s6.611,3.334,6.8,3.3,17.176-7.341,16.7-22.826C408.05,320.569,406.045,325.8,406.045,325.8Z" transform="translate(-384.728 -323.577)"/></g><g transform="translate(136.201 277.034)"><path class="a" d="M403.071,316.067a15.792,15.792,0,0,0,3.618,3.881s-4.155,4.638-4.3,4.431a13.808,13.808,0,0,1-2.6-7.6Z" transform="translate(-399.792 -316.067)"/></g><g transform="translate(143.099 276.507)"><path class="a" d="M405.9,320.009s1.308,3.145,2.026,5.124a14.247,14.247,0,0,0,2.295-6.628c.024-.714-2.035-2.9-2.035-2.9A7.413,7.413,0,0,1,405.9,320.009Z" transform="translate(-405.9 -315.6)"/></g><g transform="translate(138.35 259.495)"><path class="g" d="M410.44,301.139c-2.612-2.123-7.345,1.957-8.2,2.978-.936,1.119-.457,2.809-.13,4.073s2.8,6.536,7,5.913C419.094,312.618,410.44,301.139,410.44,301.139Z" transform="translate(-401.695 -300.535)"/></g><g transform="translate(131.6 247.098)"><path class="c" d="M405.848,317.835c-1.477-.727-3.253-2.96-4.219-4.417-.006-.008,0-.016-.006-.025a9.994,9.994,0,0,1-1.089-1.679c-.08-.093-.159-.185-.239-.277a.242.242,0,0,1-.116-.008,7.749,7.749,0,0,1-3.342-2.936,9.414,9.414,0,0,1-.025-8.86c1.544-3,4.237-3.678,7.055-4.167a10.105,10.105,0,0,0,3.872-1.785c1.039-.8,1.7-1.934,2.694-2.771a4.853,4.853,0,0,1,.484-.357,3.165,3.165,0,0,1,3.579-.745,5.7,5.7,0,0,1,3.092,4.394c.762,5.218-1.11,8.541-5.689,9.024-.706.156-4.19.182-4.877.387-1.84.547-3.609,1.378-4.217,3.413a4.77,4.77,0,0,0,.044,2.446c.082.2.159.405.237.61.035.093.072.186.11.279a7.654,7.654,0,0,0,2.489,3.347,4.451,4.451,0,0,0,3.7.885,6.587,6.587,0,0,0,3.913-1.955,4.087,4.087,0,0,0,.888-2.848,20.2,20.2,0,0,0-1.648-5.191c.969,1.269,3.428,7.414,3.5,7.625l.018.045a5.2,5.2,0,0,1,.058,2.662,5.266,5.266,0,0,1-3.035,2.946A8.938,8.938,0,0,1,405.848,317.835Z" transform="translate(-395.717 -289.558)"/></g><g transform="translate(131.167 247.011)"><path class="e" d="M401.678,313.429l-.007-.024h0a8.983,8.983,0,0,1-1.194-1.626l.016.024-.253-.265.105.047a5.63,5.63,0,0,1-1.817-.918,7.275,7.275,0,0,1-1.477-1.369,8.836,8.836,0,0,1-1.581-3.713,9.781,9.781,0,0,1,1.977-7.707,7.5,7.5,0,0,1,3.475-2.189,16.133,16.133,0,0,1,1.947-.486,12.191,12.191,0,0,0,1.85-.409,9.44,9.44,0,0,0,3.269-1.731c.933-.8,1.663-1.984,2.865-2.679l-.049.042a3.234,3.234,0,0,1,3.741-.609,3.115,3.115,0,0,0-3.416.88l-.012.017-.035.026a25.159,25.159,0,0,0-2.621,2.827,9.134,9.134,0,0,1-3.469,2.065,12.869,12.869,0,0,1-1.941.473,15.173,15.173,0,0,0-1.823.492,7.01,7.01,0,0,0-3.023,1.939,9.028,9.028,0,0,0-1.914,6.92,8.166,8.166,0,0,0,1.235,3.478,7.923,7.923,0,0,0,2.816,2.375l.105.047.226.289.012.016,0,.008a11.342,11.342,0,0,0,.984,1.732h0Z" transform="translate(-395.334 -289.48)"/></g><g transform="translate(220.313 95.67)"><path class="a" d="M538.915,156.577a27.093,27.093,0,0,1,6.072,25.976c-2.329,7.532-8.144,13.333-13.521,18.822-4.814,4.915-9.973,9.933-12.866,16.29-3.348,7.358-2.4,15.106.688,22.391,3.8,8.962,9.1,17.051,12.115,26.379a94.351,94.351,0,0,1,4.536,29.075c-.014,19.072-6.048,37.332-16.323,53.306-10.756,16.725-25.874,29.645-44.623,36.456a1.091,1.091,0,0,0,.68,2.072c34-10.572,58.277-46.969,61.936-81.333a97.545,97.545,0,0,0-11.2-56.3c-4.854-9.141-10.595-19.177-6.619-29.732,2.8-7.427,8.964-13.017,14.357-18.589,5.836-6.03,11.8-12.783,13.266-21.342a28.031,28.031,0,0,0-7.651-24.406c-.584-.578-1.372.34-.842.929Z" transform="translate(-474.275 -155.464)"/></g><g transform="translate(218.427 148.28)"><path class="a" d="M478.156,202.587c-4.635,13.93-8.655,29.662-2.154,43.693,2.833,6.114,7.132,11.336,11.449,16.449a151.16,151.16,0,0,1,13.19,17.55,118.931,118.931,0,0,1,16.006,41.6c2.535,14.084,2.944,29.815-4.177,42.706a32.935,32.935,0,0,1-16.019,14.5c-7.033,2.944-13.574,2.487-20.7.3-1.066-.328-1.456,1.2-.63,1.723,9.908,6.321,23.929,1.243,31.975-5.84,10.331-9.1,13.732-23.392,13.7-36.663-.041-15-3.827-30.208-9.828-43.9a121.3,121.3,0,0,0-10.85-19.654c-4.345-6.367-9.529-12.006-14.347-18-5.845-7.27-10.27-15.061-10.881-24.567-.645-10.018,2.256-19.966,4.7-29.577.237-.932-1.141-1.2-1.432-.321Z" transform="translate(-472.605 -202.052)"/></g><g transform="translate(220.174 221.621)"><path class="a" d="M510.2,267.035c-8.09,2.751-14.266,11.242-17.4,18.833a38.384,38.384,0,0,0-1.19,26.694c1.909,5.785,5.063,11.3,5.782,17.42.769,6.543-2.027,12.51-5.815,17.664a67.763,67.763,0,0,1-11.026,11.437c-3.006,2.563-5.782,5.7-6.383,9.749-.172,1.15,1.438,1.883,2,.732,1.117-2.283,1.906-4.445,3.648-6.37a54.107,54.107,0,0,1,5.092-4.5,56.692,56.692,0,0,0,9.523-10.739,29.5,29.5,0,0,0,5.414-12.673c.681-5.082-.681-9.971-2.5-14.677-1.991-5.162-4.368-10.168-4.995-15.729a36.663,36.663,0,0,1,1.11-13.727,38.547,38.547,0,0,1,6.38-13c3.058-4.067,6.968-6.868,10.876-10.033.5-.407.176-1.32-.521-1.083Z" transform="translate(-474.152 -266.997)"/></g></g><path class="p" d="M248.705,102.375c-3.291-12.446-19.1-16.009-27.852-6.972-1.04-5.98-5.888-11.1-12.1-11.757a14.043,14.043,0,0,0-13.022,6.479c.011-4.567-1.207-9.312-5.218-11.829-3.387-2.124-8.227-2.026-11,.8a57.487,57.487,0,0,0-3.868-13.538c-2.056-4.8-5.217-10.218-10.433-12.052-5.7-2.007-12.111.568-16.615,4.1-6.525,5.118-10.916,13.137-13.637,20.846-2,5.655-2.53,11.754-4.3,17.451-2.594-5.78-9.268-9.585-15.616-7.88-6.956,1.868-11.086,9.533-9.469,16.393a.937.937,0,0,0,.893.68q24.021-.1,48.042-.255l76.556-.47,17.551-.107A.948.948,0,0,0,248.705,102.375Z" transform="translate(128 -42)"/><path class="p" d="M724.6,74.932a6.5,6.5,0,0,0-7.138,2.956c-.358-8.438-6.24-15.306-13.305-14.242-7.432,1.113-11.746,9.274-14.163,17.482.19-3.681-2.781-6.36-5.385-4.745,1.118-6.42-2.673-12.562-7.7-13.805-5.666-1.408-11.021,2.743-13.957,8.7a34.405,34.405,0,0,0-3.118,12.2,5.534,5.534,0,0,0-6.815-.96c-2.344,1.434-3.852,4.806-3.493,8.073.012.1.073.147.142.147l.009.1c-.26.033-.515.077-.769.131-.022.006-.022.054,0,.06a27.978,27.978,0,0,0,5.575.245q3,.025,5.993.038c4,.023,7.994.023,11.993.027,7.989.017,15.991.175,23.971-.218q17.153.2,34.292-.742a.716.716,0,0,0,.639-.8.61.61,0,0,0,.289-.474C731.953,83.011,729.755,76.389,724.6,74.932Z" transform="translate(74.041 0.415)"/><path class="p" d="M431.345,147.621a3.045,3.045,0,0,0-.078-.931c-1.087-4.384-4.84-7.229-9.2-7.932-3.9-.628-7.586.665-11,2.461a12.068,12.068,0,0,0-10.493-8.576c-5.2-.425-9.728,2.478-12.486,6.613-1.676-3.689-2.377-7.916-4.489-11.411-2.408-3.985-6.267-7.143-11.149-6.886-8.812.462-14.472,10.351-17.7,18.531a17.78,17.78,0,0,0-11.344-3.384,30.01,30.01,0,0,0-10.279,2.479c-2.631,1.084-6.619,2.173-7.923,4.919a3.8,3.8,0,0,0-.4,1.861c-2.241,1.269-1.774,5.484,1.431,5.484H428.542A2.8,2.8,0,0,0,431.345,147.621Z" transform="translate(31.965 7.996)"/></g></svg>