<svg xmlns="http://www.w3.org/2000/svg" xmlns:xlink="http://www.w3.org/1999/xlink" width="29.427" height="29.427" viewBox="0 0 29.427 29.427"><defs><style>.a,.c{fill:none;}.b{clip-path:url(#a);}.c{stroke:#9e9e9e;stroke-linecap:round;stroke-linejoin:round;stroke-width:2.5px;stroke-dasharray:0 0;}</style><clipPath id="a"><rect class="a" width="29.427" height="29.427"/></clipPath></defs><rect class="a" width="29.427" height="29.427"/><g class="b"><g transform="translate(1.226 3.678)"><path class="c" d="M19.618,7.357V4.9a4.9,4.9,0,0,0-4.9-4.9H4.9A4.9,4.9,0,0,0,0,4.9V7.357" transform="translate(0 14.713)"/><path class="c" d="M4.9,9.809a4.9,4.9,0,1,1,4.9-4.9A4.9,4.9,0,0,1,4.9,9.809Z" transform="translate(4.904)"/><path class="c" d="M3.678,7.2V4.745a4.9,4.9,0,0,0-1.028-3A4.9,4.9,0,0,0,0,0" transform="translate(23.296 14.873)"/><path class="c" d="M0,0A4.9,4.9,0,0,1,2.658,1.744a4.9,4.9,0,0,1,1.03,3.007,4.9,4.9,0,0,1-1.03,3.007A4.9,4.9,0,0,1,0,9.5" transform="translate(18.392 0.159)"/></g></g></svg>