<svg xmlns="http://www.w3.org/2000/svg" width="33.071" height="30.317" viewBox="0 0 33.071 30.317"><defs><style>.a{fill:#f2994a;}</style></defs><path class="a" d="M16.536,31.315a.693.693,0,0,1-.528-.245L.161,12.248a.689.689,0,0,1-.077-.774L5.64,1.358A.69.69,0,0,1,6.244,1H26.828a.687.687,0,0,1,.6.358l5.555,10.116a.686.686,0,0,1-.077.774L17.062,31.07A.688.688,0,0,1,16.536,31.315ZM1.521,11.722,16.536,29.557,31.55,11.722,26.42,2.378H6.652Z" transform="translate(0 -0.998)"/><path class="a" d="M31.943,9.878h-31a.689.689,0,0,1,0-1.378h31a.689.689,0,1,1,0,1.378Z" transform="translate(0.095 1.837)"/><path class="a" d="M21.054,12.325a.686.686,0,0,1-.564-.294l-6.409-9.14L7.754,11.984a.688.688,0,1,1-1.13-.787l6.89-9.9A.686.686,0,0,1,14.077,1h0a.687.687,0,0,1,.564.294l6.975,9.947a.689.689,0,0,1-.564,1.084Z" transform="translate(2.457 -0.998)"/><path class="a" d="M15.012,31.316a.688.688,0,0,1-.649-.457L4.071,1.921a.689.689,0,1,1,1.3-.463l9.643,27.113L24.655,1.458a.689.689,0,1,1,1.3.463L15.661,30.858a.688.688,0,0,1-.649.457Z" transform="translate(1.524 -0.999)"/></svg>