<svg xmlns="http://www.w3.org/2000/svg" xmlns:xlink="http://www.w3.org/1999/xlink" width="767.188" height="505.698" viewBox="0 0 767.188 505.698"><defs><style>.a,.bd{fill:#b5d0ff;}.a,.bs,.h{opacity:0.2;}.b{fill:#8e8aff;}.c{fill:#514dc5;}.d{fill:#c8cbfd;}.bo,.br,.e{opacity:0.3;}.f{fill:#eefaff;}.g{fill:#7272dd;}.h{fill:url(#a);}.i{fill:#9494ed;}.j{fill:#f98094;}.k,.w{fill:#fff;}.l{fill:#854dce;}.m{fill:#d6d4ff;}.ag,.ah,.ai,.at,.au,.bj,.bm,.bp,.bq,.n,.o,.p,.u{fill:none;}.n,.o{stroke:#7878c4;}.ag,.ah,.ai,.at,.au,.bj,.n,.o,.p{stroke-miterlimit:10;}.n,.u{stroke-width:2px;}.o,.p{stroke-width:1.718px;}.p{stroke:#0e7c74;}.q{fill:#a29ee5;}.r{fill:#8c8cdd;}.s{fill:#bfb8f4;}.t{fill:#7878c4;}.u{stroke:#514dc5;}.ah,.ai,.at,.au,.bj,.bm,.bp,.bq,.u{stroke-linecap:round;}.bm,.bp,.bq,.u{stroke-linejoin:round;}.v{fill:rgba(142,138,255,0.35);}.w{opacity:0.31;}.x{fill:#f7b59c;}.y{fill:#01263a;}.z{fill:#003051;}.aa{fill:#ed9780;}.ab{fill:#8d1612;}.ac{fill:#ff4c2f;}.ad{fill:#fafff7;}.ae{fill:#452e17;}.af{fill:#f4f4f4;}.ag,.ah,.bm,.bp,.bq{stroke:#fff;}.ai{stroke:#ed9780;}.aj{fill:#5146af;}.ak{fill:#9999ef;}.al{fill:#4c4051;}.am{fill:#0052a3;}.an{fill:#594a5f;}.ao{fill:#0058c4;}.ap{fill:#2c1e56;}.aq{fill:#e5a18c;}.ar{fill:#d1deff;}.as{fill:#eaa18b;}.at{stroke:#eaa18b;}.at,.au{stroke-width:0.5px;}.au{stroke:#c9806f;}.av,.bo,.br,.bs{fill:#9999f1;}.aw{fill:#c2e0f2;}.ax{fill:#1a1a47;}.ay{fill:#9ca2f2;}.az{fill:#0b0b3a;}.ba{fill:#b0b2ff;}.bb{fill:#3d3d72;}.bc,.bf{fill:#94c1f7;}.be{fill:#cfe3ff;}.bf,.bk,.bn{opacity:0.5;}.bg{fill:#e1efff;}.bh{fill:#cce1ff;}.bi{fill:#7878ff;}.bj{stroke:#9acee2;stroke-dasharray:12 5;}.bl{fill:#389fe5;}.bm{stroke-width:1.38px;}.bn{fill:#81a8cc;mix-blend-mode:screen;}.bn,.bo{isolation:isolate;}.bo{mix-blend-mode:multiply;}.bp{stroke-width:1.056px;}.bq{stroke-width:1.616px;}.bt{fill:#8787dd;}</style><linearGradient id="a" x1="0.5" y1="-0.011" x2="0.5" y2="0.996" gradientUnits="objectBoundingBox"><stop offset="0" stop-color="#fff"/><stop offset="1" stop-color="#fff" stop-opacity="0"/></linearGradient></defs><g transform="translate(-57.982 -55.011)"><path class="a" d="M95.268,539.936s-80.328-93.619,10.16-195.5c72.94-82.12,49.65-113.878,46.288-169.256C148.868,128.309,202.023,59,281.569,55.54c130.384-5.67,162.8,36.23,232.02,33.265s100.533-27.2,180.938-17.648c149.2,17.72,129.091,159.127,107.347,264.823s43.592,141.784-3.424,204.04" transform="translate(1 0)"/><g transform="translate(235.065 196.055)"><g transform="translate(84.544 238.83)"><path class="b" d="M444.609,454.365H318.6l13.687-53.811,3.1-12.2,6.022-23.632H421.8l6.022,23.632,3.1,12.2Z" transform="translate(-260.564 -364.718)"/><path class="c" d="M428.394,396.189H329.761l3.1-12.2h92.43Z" transform="translate(-258.036 -360.353)"/><path class="b" d="M503.683,453.5H280.96a9.676,9.676,0,0,1-9.676-9.676h0a9.676,9.676,0,0,1,9.676-9.676H503.683a9.676,9.676,0,0,1,9.676,9.676h0A9.676,9.676,0,0,1,503.683,453.5Z" transform="translate(-271.284 -348.988)"/></g><path class="c" d="M613.538,180.212V417.078a10.213,10.213,0,0,1-10.209,10.209H212.565a10.2,10.2,0,0,1-10.209-10.209V180.212A10.2,10.2,0,0,1,212.565,170H603.33A10.213,10.213,0,0,1,613.538,180.212Z" transform="translate(-202.356 -170.003)"/><rect class="d" width="395.378" height="208.806" transform="translate(7.522 7.493)"/><g class="e" transform="translate(15.705 7.493)"><rect class="f" width="11.085" height="177.579" transform="translate(336.98)"/><rect class="f" width="11.085" height="177.579" transform="translate(365.062)"/><rect class="f" width="11.085" height="177.579"/><rect class="f" width="11.085" height="177.579" transform="translate(28.082)"/><rect class="f" width="11.085" height="177.579" transform="translate(56.163)"/><rect class="f" width="11.085" height="177.579" transform="translate(84.245)"/><rect class="f" width="11.085" height="177.579" transform="translate(112.327)"/><rect class="f" width="11.085" height="177.579" transform="translate(140.409)"/><rect class="f" width="11.085" height="177.579" transform="translate(168.49)"/><rect class="f" width="11.085" height="177.579" transform="translate(196.572)"/><rect class="f" width="11.085" height="177.579" transform="translate(224.654)"/><rect class="f" width="11.085" height="177.579" transform="translate(252.735)"/><rect class="f" width="11.085" height="177.579" transform="translate(280.817)"/><rect class="f" width="11.085" height="177.579" transform="translate(308.899)"/></g><rect class="g" width="395.378" height="31.227" transform="translate(7.522 185.072)"/><path class="b" d="M371.7,373.746h0a9.506,9.506,0,0,1-9.479-9.479h0a9.508,9.508,0,0,1,9.479-9.48h0a9.508,9.508,0,0,1,9.48,9.48h0A9.507,9.507,0,0,1,371.7,373.746Z" transform="translate(-166.138 -128.139)"/><path class="h" d="M398.789,427.1H371.017L444.056,170h27.773Z" transform="translate(-164.145 -170.003)"/><path class="h" d="M461.431,427.1H402.51L475.549,170h58.92Z" transform="translate(-157.01 -170.003)"/><g transform="translate(60.29 195.166)"><path class="i" d="M578.955,337.246H254.576a3.066,3.066,0,1,1,0-6.133H578.955a3.066,3.066,0,1,1,0,6.133Z" transform="translate(-251.51 -328.668)"/><path class="j" d="M416.767,331.118v6.133H254.579a3.066,3.066,0,1,1,0-6.133Z" transform="translate(-251.509 -328.667)"/><circle class="k" cx="5.52" cy="5.52" r="5.52" transform="translate(159.815)"/></g><g transform="translate(19.159 185.868)"><circle class="k" cx="12.317" cy="12.317" r="12.317" transform="matrix(0.23, -0.973, 0.973, 0.23, 0, 23.974)"/><path class="l" d="M228.662,329.131l6.753,5.2a.408.408,0,0,1,0,.646l-6.753,5.2a.408.408,0,0,1-.656-.324v-10.4A.407.407,0,0,1,228.662,329.131Z" transform="translate(-215.704 -319.839)"/></g></g><g transform="translate(57.982 373.787)"><g transform="translate(0 38.875)"><path class="m" d="M102.333,446.879S42.973,366.691,61.6,349.566,107.449,392.765,102.333,446.879Z" transform="translate(-57.982 -346.601)"/><path class="n" d="M65.769,356.584c22.93,33.8,32.646,70.894,36.74,99.983" transform="translate(-56.218 -344.339)"/><path class="o" d="M64.365,365.453A94.9,94.9,0,0,1,79.2,376.53" transform="translate(-56.536 -342.33)"/><path class="o" d="M65.864,369.369A94.884,94.884,0,0,1,80.7,380.445" transform="translate(-56.196 -341.442)"/></g><g transform="translate(54.178 28.835)"><path class="m" d="M104.216,439.552s57.23-81.722,38.158-98.351S97.679,385.591,104.216,439.552Z" transform="translate(-101.922 -338.415)"/><path class="n" d="M136.92,348.377c-23.711,37.014-32.024,77.431-34.767,107.438" transform="translate(-102.153 -336.158)"/><path class="p" d="M105.682,388.964c.22,7.538.707,14.363,1.277,20.273" transform="translate(-101.353 -326.963)"/></g><g transform="translate(9.552)"><path class="q" d="M108.215,415.9s-57.6-81.463-38.6-98.178S114.509,361.911,108.215,415.9Z" transform="translate(-65.769 -314.906)"/><path class="n" d="M73.574,324.872c30.236,46.736,35.807,99.042,36.538,128.771" transform="translate(-64.001 -312.648)"/></g><g transform="translate(46.001 64.038)"><path class="r" d="M97.642,427.835s35.446-48.714,24.114-58.963S94.285,395.185,97.642,427.835Z" transform="translate(-95.1 -367.116)"/><path class="n" d="M118.605,373.141c-18.64,27.97-22.432,59.506-23.119,77.451" transform="translate(-95.486 -365.751)"/></g><g transform="translate(22.019 120.392)"><path class="s" d="M125.581,414.706l-.279,1.862-.587,3.958-5.662,38H85.278l-5.662-38-.587-3.958-.279-1.862Z" transform="translate(-75.296 -412.688)"/><path class="t" d="M125.25,416.224l-.587,3.958h-45.1l-.587-3.958Z" transform="translate(-75.244 -412.344)"/><path class="q" d="M126.877,418.648H78.728a2.793,2.793,0,0,1-2.794-2.793h0a2.794,2.794,0,0,1,2.794-2.794h48.148a2.793,2.793,0,0,1,2.793,2.794h0A2.792,2.792,0,0,1,126.877,418.648Z" transform="translate(-75.934 -413.061)"/></g></g><g transform="translate(102.766 356.719)"><path class="c" d="M141.548,302.544V327.67a1.7,1.7,0,0,1-.33,1.016,1.735,1.735,0,0,1-1.442.756H102.863a1.807,1.807,0,0,1-1.223-.481V305.635a1.549,1.549,0,0,1,1.553-1.539H129.13a1.547,1.547,0,0,0,1.538-1.552,1.548,1.548,0,0,1,1.539-1.553H140A1.56,1.56,0,0,1,141.548,302.544Z" transform="translate(-92.875 -300.991)"/><path class="b" d="M142.838,327.485a1.735,1.735,0,0,1-1.442.756H104.482a1.807,1.807,0,0,1-1.223-.481,1.716,1.716,0,0,1-.37-.521.5.5,0,0,1-.055-.124l-8.214-18.752a1.482,1.482,0,0,1,1.359-2.074h36.6a1.479,1.479,0,0,1,1.36.878l7.693,17.557Z" transform="translate(-94.494 -299.791)"/></g><line class="u" x2="740.694" transform="translate(70.309 540.57)"/><g transform="translate(144.274 86.7)"><path class="v" d="M4.484,0H176.726a6.647,6.647,0,0,1,6.647,6.647V139.6a1.432,1.432,0,0,1-1.432,1.432H1.432A1.432,1.432,0,0,1,0,139.6V4.484A4.484,4.484,0,0,1,4.484,0Z" transform="translate(0 4.661)"/><rect class="k" width="169.132" height="30.364" rx="2.827" transform="translate(7.222 108.486)"/><rect class="k" width="169.132" height="12.315" rx="1.801" transform="translate(7.222 91.147)"/><g transform="translate(6.473 23.036)"><path class="w" d="M232.833,105.064h-96.5a2.718,2.718,0,0,1-2.718-2.718h0a2.718,2.718,0,0,1,2.718-2.718h96.5a2.718,2.718,0,0,1,2.718,2.718h0A2.718,2.718,0,0,1,232.833,105.064Z" transform="translate(-133.612 -99.628)"/><path class="w" d="M232.834,114.223h-96.5a2.718,2.718,0,0,1-2.718-2.718h0a2.718,2.718,0,0,1,2.718-2.718h96.5a2.718,2.718,0,0,1,2.718,2.718h0A2.718,2.718,0,0,1,232.834,114.223Z" transform="translate(-133.612 -97.553)"/><path class="w" d="M232.834,123.383h-96.5a2.718,2.718,0,0,1-2.718-2.718h0a2.718,2.718,0,0,1,2.718-2.718h96.5a2.718,2.718,0,0,1,2.718,2.718h0A2.718,2.718,0,0,1,232.834,123.383Z" transform="translate(-133.612 -95.478)"/><path class="w" d="M232.834,132.542h-96.5a2.718,2.718,0,0,1-2.718-2.718h0a2.718,2.718,0,0,1,2.718-2.718h96.5a2.718,2.718,0,0,1,2.718,2.718h0A2.718,2.718,0,0,1,232.834,132.542Z" transform="translate(-133.612 -93.403)"/><path class="w" d="M232.834,141.7h-96.5a2.718,2.718,0,0,1-2.718-2.717h0a2.718,2.718,0,0,1,2.718-2.718h96.5a2.718,2.718,0,0,1,2.718,2.718h0A2.718,2.718,0,0,1,232.834,141.7Z" transform="translate(-133.612 -91.327)"/><path class="w" d="M210.163,150.864H136.33a2.718,2.718,0,0,1-2.718-2.718h0a2.718,2.718,0,0,1,2.718-2.718h73.833a2.718,2.718,0,0,1,2.718,2.718h0A2.718,2.718,0,0,1,210.163,150.864Z" transform="translate(-133.612 -89.252)"/></g><path class="c" d="M309.849,80.847H130.193a1.859,1.859,0,0,0-1.858,1.858V96.462H311.708V82.705A1.858,1.858,0,0,0,309.849,80.847Z" transform="translate(-128.335 -80.847)"/><g transform="translate(152.774 6.113)"><path class="k" d="M256.279,87.526a1.694,1.694,0,1,1-1.7-1.7A1.694,1.694,0,0,1,256.279,87.526Z" transform="translate(-252.89 -85.831)"/><path class="k" d="M263.143,87.526a1.695,1.695,0,1,1-1.7-1.7A1.694,1.694,0,0,1,263.143,87.526Z" transform="translate(-251.335 -85.831)"/><path class="k" d="M270.007,87.526a1.695,1.695,0,1,1-1.694-1.7A1.693,1.693,0,0,1,270.007,87.526Z" transform="translate(-249.78 -85.831)"/></g><g transform="translate(115.372 23.041)"><path class="k" d="M283.379,101.386v58.077a1.774,1.774,0,0,1-1.776,1.776H224.152a1.77,1.77,0,0,1-1.755-1.776V101.386a1.765,1.765,0,0,1,1.755-1.754H281.6A1.769,1.769,0,0,1,283.379,101.386Z" transform="translate(-222.397 -99.632)"/><path class="b" d="M277.706,142.278v10.884a1.774,1.774,0,0,1-1.776,1.776h-28.5l1.212-12.661,13.411-14.833Z" transform="translate(-216.724 -93.331)"/><path class="c" d="M275.4,156.086H224.152a1.77,1.77,0,0,1-1.755-1.776V143.425l20.055-21.046Z" transform="translate(-222.397 -94.479)"/><path class="b" d="M268.151,114.525a7.07,7.07,0,1,1-7.07-7.07A7.071,7.071,0,0,1,268.151,114.525Z" transform="translate(-215.235 -97.86)"/></g></g><g transform="translate(220.426 92.161)"><path class="x" d="M370.646,324.336l-19.171-32.9-30.48,2.4-8.314,7.58c-1.067-1.24-.834-.955-1.668-1.891-6.431-7.2-21.482-19.175-33.415-31.5a290.148,290.148,0,0,1-23.7-28l-2.41,1.2c.01-1.283.017-2.1.017-2.1l-10.727-14.349-13-.846-9.653,11.738.5,6.275s.156,9.67,7.711,10.649c2.268.293,8,1.386,9.809,2.622a37.532,37.532,0,0,1,12.116,14.037c8.52,16.7,20.941,40.527,32.6,60.944a24.389,24.389,0,0,0,1.337,2.189c4.057,6.466,16.631,25.163,26.912,26.045C321.552,359.5,370.646,324.336,370.646,324.336Z" transform="translate(-184.145 -53.89)"/><g transform="translate(219.312)"><path class="y" d="M378.113,165.784s4.093-6.116,9.725-7.572-6.179,13.092-6.179,13.092-3.18,1.408-3.546,1.174S378.113,165.784,378.113,165.784Z" transform="translate(-367.248 -68.803)"/><path class="z" d="M466.352,128.755s40.162,14.414-7.65,55.85l-7.2-2.191Z" transform="translate(-350.583 -75.454)"/><path class="x" d="M380.817,245.037c19.155,23.347,44.764,27.076,44.764,27.076,44.484-.845,52.069-25.353,52.069-25.353L452.8,241.245s-.752-32.439,13.027-52.451c10.326,1.989,15.164-14.3,12.328-18.671-3.076-4.746-6.536-4.12-6.536-4.12-2.929,3.179-5.591,10.662-6.906,14.356L402.743,212.41a35.267,35.267,0,0,1,1.664,4.456,71.784,71.784,0,0,1,2.766,13.4,90.972,90.972,0,0,1,.538,12.177ZM460.3,187.43c1.314-2.241,2.74-4.506,4.318-6.784-.551,1.577-.964,3-1.265,4.168C461.6,186.29,460.338,187.392,460.3,187.43Z" transform="translate(-366.598 -67.021)"/><path class="aa" d="M400.05,212.24a71.787,71.787,0,0,1,2.766,13.4c51.614-11.314,53.09-39.249,53.09-39.249l-26.495,10.751Z" transform="translate(-362.241 -62.395)"/><path class="y" d="M394.537,114.555s-11.239,20.9-3.5,34.665l17.891-23.193" transform="translate(-364.899 -78.671)"/><path class="x" d="M378.365,220.1c11.893,18.781,55.483,18.351,75.932-8.556s23.785-57.779,13.561-76.758c-5.686-10.547-19.283-16.646-32.647-17.633a36.38,36.38,0,0,0-10.637.79A38.787,38.787,0,0,0,403.5,130.769c-.5.591-.968,1.184-1.435,1.793l-3.139,4.143c-.412.538-.789,1.077-1.166,1.651a35.784,35.784,0,0,0-4.538,9.525,34.722,34.722,0,0,0-1.273,5.4,35.932,35.932,0,0,1-7.319,17.167C375.656,181.5,366.489,201.337,378.365,220.1Z" transform="translate(-368.434 -78.104)"/><path class="aa" d="M397.8,130.6a52.525,52.525,0,0,0,13.855,3.6c10.4,1.251,31.363,3.329,38.4,10.976,0,0,2.954,2.665,4.693,8.673s-3.905-20.425-3.905-20.425l-31.952-15.657A38.815,38.815,0,0,0,397.8,130.6Z" transform="translate(-362.75 -77.941)"/><path class="aa" d="M456.694,154.013s-.1,27.216-14.493,34.412-24.249-1.677-30.82-6.377c-3.78-2.7-5.11,4.227-5.11,4.227s7.509,12.475,11.263,12.475,18.878-.209,20.025-.938,9.8-4.9,9.8-4.9,5.945-10.161,6.362-11.234,7.2-12.649,6.883-14.109-.208-11.055-.208-11.055Z" transform="translate(-360.831 -69.731)"/><path class="z" d="M399.265,85.5c-3.393.66-6.464,7.626-7.849,10.746-1.992,4.492-5.783,15.2,2.858,27.176,9.8,13.584,30.975,13.61,46.776,17.678,14.042,3.615,21.042,12.665,20.119,22.981a10.469,10.469,0,0,0,2.61,7.758l.3.343a8.477,8.477,0,0,1,1.918,7.25c-1.649,8.155-6.8,24.883-19.472,28.624-10.951,3.233-15.442-.879-17.251-2.256-6.371-4.849-9.969-10.22-22.4-16.284-6.468-3.153-13.427-2.717-22.5-4.042-1.688-.247-4.023-.469-4.283-3.2,0,0-19.8,23.227-5.946,47.372a25.308,25.308,0,0,0,16.03,12.082c9.307,2.245,24.768,3.551,42.742-4.576,29.41-13.3,39.11-43.647,43.021-53.19s14.078-35.251,6.495-58.926c-4.681-14.612-19.5-26.966-43.728-28.055C421.828,96.228,409.315,83.547,399.265,85.5Z" transform="translate(-369.225 -85.299)"/><path class="ab" d="M414.921,184.048a14.449,14.449,0,0,1-1.251,1.878c-2.653,3.467-9.625,10.012-21.514,4.23-3.73-1.815-5.632-4.255-6.5-6.734-1.814-5.143.889-10.424.889-10.424a93.3,93.3,0,0,0,10.4,5.707c5.181,2.452,11.564,4.842,17.3,5.294C414.471,184.023,414.7,184.036,414.921,184.048Z" transform="translate(-365.643 -65.43)"/><path class="ac" d="M414.443,181.894l-.313,1.051-.575,1.927c-2.653,3.467-9.625,10.012-21.514,4.23-3.73-1.815-5.632-4.255-6.5-6.734,4.906-4.705,9.8-4.717,9.8-4.717h7.984Z" transform="translate(-365.527 -64.376)"/><path class="ad" d="M387.37,173s-3.326,4.143-3.335,5.327c-.012,1.837,21.9,12.127,23.075,12.2s3.214-4.142,3.214-4.142l-8.879-5.288" transform="translate(-365.869 -65.43)"/><path class="z" d="M387.761,137.07c-.52,1.165-.1.08-.574,1.728a3.17,3.17,0,0,0,2.262,3.8c4.108,1.468,16.559,6.394,16.559,6.394,1.3.753,1.32-.645.917-1.489-1.635-3.426-3.276-7.683-15.068-11.678C390.2,135.271,388.473,135.477,387.761,137.07Z" transform="translate(-365.181 -73.915)"/><path class="z" d="M439.4,157.47c-.488,1.179.012.128-.859,1.6a3.169,3.169,0,0,1-4.317.976c-3.891-1.971-16.032-7.619-16.032-7.619-1.441-.426-.438-1.4.45-1.69,3.611-1.17,7.83-2.908,18.842,2.9C439.025,154.459,440.067,155.857,439.4,157.47Z" transform="translate(-358.296 -70.741)"/><path class="z" d="M382.632,174.287s6.9,8.781,16.492,6.1c0,0,.091,7.179,16.2,9.534l1.408-5.623s-10.369-5.528-11.051-5.111-10.537-2.632-12.415-2.984-8.291-5.359-8.291-5.359Z" transform="translate(-366.187 -65.918)"/><path class="aa" d="M457.02,170.564s-5.848,8.333-4.952,11.969c0,0,.224-2.11,5.607-2.078,0,0,3.479-4.847,1.728-8.462A2.178,2.178,0,0,0,457.02,170.564Z" transform="translate(-350.477 -65.989)"/><g transform="translate(58.819 87.904)"><path class="ae" d="M418.8,158.445c-1.837,2.994-2.605,6.258.4,8.636a2.877,2.877,0,0,0,3.465-.358,11.165,11.165,0,0,0,2.635-3.86c2.054-3.894-4.154-8.24-6.5-4.418Z" transform="translate(-417.179 -156.966)"/><g transform="translate(1.696 2.792)"><path class="k" d="M418.986,159.674c-.481.785-.683,1.642.105,2.265a.756.756,0,0,0,.909-.093c.4-.384.3-.781.531-1.229a.906.906,0,0,0-1.545-.943Z" transform="translate(-418.562 -159.242)"/></g></g><g transform="translate(26.997 77.373)"><path class="ae" d="M392.62,149.557c-1.517,2.322-2.2,4.88.121,6.826a2.274,2.274,0,0,0,2.743-.206c1.24-1.119,1.348-2.018,2.1-3.344,1.709-3.028-3.023-6.241-4.96-3.276Z" transform="translate(-391.235 -148.38)"/><g transform="translate(1.379 2.24)"><path class="k" d="M392.722,150.531c-.4.61-.576,1.281.032,1.791a.6.6,0,0,0,.72-.054c.325-.293.25-.61.446-.958a.715.715,0,0,0-1.2-.779Z" transform="translate(-392.359 -150.207)"/></g></g></g><path class="x" d="M260.6,245.152s-15.381-33.03-26.112-40.81c0,0-3.777.59-3.335,5.181s6.955,10.221,7.248,14.515-2.593,3.7-6.146,2.885-29.829-15.44-32.42-14.161c-2.642,1.305.071,4.035,1.922,5.517s15.874,10.3,15.874,10.3-25.271-13.867-27.161-9.046c-1.224,3.126,22.272,15.188,22.272,15.188s-20.185-11.308-21.108-7.113c-.787,3.579,16.313,11.6,16.313,11.6s-10.568-5.532-11.364-3.1c-1.007,3.077,13.671,11.049,17.926,13.828s14.618,7.227,18.728,7.118,7.145-.514,9.4,1.782" transform="translate(-190.421 -58.329)"/><path class="k" d="M516.714,312.29,525.2,343.7H371.036c.012-8.12-.429-17.81-1.067-27.377L336.8,336.637c-10.843-21.489-34.479-41.936-34.81-41.948,23.022-22.588,51.253-48.171,66.634-58.842,7.359-5.115,42.714-7.172,47.3-7.625a12.165,12.165,0,0,0,9.457-6.292s4.919,11.431,12.94,15.565c2.183.9,2.38,13.86,5.1,13.786.81-.024,6.771-13.566,7.543-13.688,0,0,9.494-1.607,19.981-17.4l1.877,2.563a12.092,12.092,0,0,0,7,4.649,175.628,175.628,0,0,1,24.335,7.6c13.222,5.335,27.781,30.713,27.781,30.713l3.275,46.572-19.429-.883Z" transform="translate(-165.144 -54.739)"/><path class="af" d="M465.484,288.774l3.666,39.393h19.012l-3.373-25.675Z" transform="translate(-128.104 -39.2)"/><path class="x" d="M519.577,283.708l17.172,45.607H485.54l-8.484-18.52" transform="translate(-125.482 -40.348)"/><path class="k" d="M450.58,226.97s39.245,5.676,50.979,17.361c5.848,5.825,10.643,16.985,17.985,33.73,12.01,27.394,17.672,42.314,17.672,42.314s-29.71,20.65-59.477,14.518l-14.584-42.01Z" transform="translate(-131.481 -53.202)"/><ellipse class="ag" cx="12.409" cy="11.171" rx="12.409" ry="11.171" transform="translate(235.616 88.546) rotate(-67.998)"/><ellipse class="ag" cx="12.409" cy="11.171" rx="12.409" ry="11.171" transform="translate(265.865 100.827) rotate(-67.999)"/><path class="ag" d="M403.446,154.249s6.692-.714,9.227,4.758" transform="translate(-142.159 -69.685)"/><line class="ah" x2="34.377" y2="2.165" transform="translate(291.647 96.504)"/><path class="af" d="M366.894,326.649H358.48c.012-8.12-.429-17.81-1.067-27.377l6.82-3.815S367.091,317.99,366.894,326.649Z" transform="translate(-152.588 -37.686)"/><path class="ai" d="M408.115,156.966s-8.951,6.924-9.923,10.548c-.573,2.137,3.015,4.5,3.015,4.5" transform="translate(-143.363 -69.062)"/></g><g transform="translate(158.665 374.317)"><path class="x" d="M209.085,354.933s3.674,12.813-10.106,12.809a11.225,11.225,0,0,1-5.007-1.2c-5.087-2.449-6.27-10.992-6.27-10.992,4.305-1.1,2.8-7.325,2.8-7.325l15.307.35s-.757,4,.359,5.145C208.116,355.713,209.085,354.933,209.085,354.933Z" transform="translate(-129.276 -307.887)"/><path class="aj" d="M195.963,353.465s-.861,11.364,9.837,11.364c9.678,0,9.794-7.527,9.079-11.674,11.052.985,23.138,5.448,29.312,10.514,7.323,9.473,12.4,23.962,12.4,23.962a57.948,57.948,0,0,1-6.871,2.64,28.463,28.463,0,0,0-6.263,2.73l-4.33,58.494H171.438l-1.154-58.529s-4.448-1.066-8.045-2.246c-5.264-1.726-7.234-3.414-7.234-3.414A122.371,122.371,0,0,1,165.2,365.459C171.416,359.708,183.049,354.971,195.963,353.465Z" transform="translate(-136.684 -306.771)"/><path class="x" d="M157.072,381.547s-6.457,22.832-5.862,33.741,26.378,26.18,26.378,26.18l3.372-11.5s-10.71-4.562-12.3-12.891,7.4-29.223,7.4-29.223-3.973-1.164-9.4-2.652A56.259,56.259,0,0,1,157.072,381.547Z" transform="translate(-137.552 -300.338)"/><path class="x" d="M241.6,381.547s6.455,22.832,5.861,33.741-26.377,26.18-26.377,26.18l-3.372-11.5s10.71-4.562,12.3-12.891-7.721-29.727-7.721-29.727,4.289-.965,9.719-2.452A77.4,77.4,0,0,0,241.6,381.547Z" transform="translate(-122.476 -300.338)"/><path class="ak" d="M246.129,444.245H162.481l-1.9-52.408a2.4,2.4,0,0,1,2.4-2.486h82.645a2.4,2.4,0,0,1,2.4,2.486Z" transform="translate(-135.42 -298.57)"/><g transform="translate(0 130.78)"><path class="al" d="M224.99,444.292s1.78-2.1,5.921-2.215c2.686-.074,10.29,1.646,13.918,1.586s7.4-.855,9.483,2.242c3.531,5.252,2.005,9.99-3.942,10.7-3.234.388-5.907-1.749-11.046-1.239-4.98.494-12.748-1.17-15.009-4.727" transform="translate(-120.981 -417.405)"/><path class="x" d="M220.019,441.887a38.755,38.755,0,0,0,6.672,1.289c2.662.142,8.634-.52,11.331,1.176,2.922,1.837,1.84,6.818-.012,7.995-2.99,1.9-5.408.916-10.878-.808a34.194,34.194,0,0,0-11.891-1.066" transform="translate(-123.037 -417.448)"/><path class="am" d="M245.2,458.344s-62.018-1.119-78.543-3.293a78.039,78.039,0,0,1-18.91-4.638c-7.432-4.425-10.152-14.965-5.1-24.676,2.359-4.531,9.627-3.719,10.639-3.719.256,0,.393.015.393.015,20.1.785,38.426,5.921,59.134,14.2a239.22,239.22,0,0,0,34,10.891C247.9,455.036,245.2,458.344,245.2,458.344Z" transform="translate(-140.068 -421.962)"/><path class="al" d="M238.488,446.152s-1.644-.915-2.192.07a14.462,14.462,0,0,0-.559,5.819c.513,1.16,2.923.745,2.923.745l1.965-5.3Z" transform="translate(-118.418 -416.569)"/></g><g transform="translate(2.582 131.122)"><path class="an" d="M174.548,444.383s-1.841-2.191-6.141-2.323c-2.789-.086-10.693,1.671-14.46,1.594s-7.472-.893-9.876,1.637c-4.526,4.768-.313,10.753,5.862,11.516,3.36.415,4.352-1.523,9.689-.974,5.17.531,13.244-1.168,15.607-4.853" transform="translate(-142.172 -417.752)"/><path class="x" d="M178.331,441.9a40.227,40.227,0,0,1-6.935,1.314c-2.765.139-8.965-.573-11.774,1.179-3.041,1.9-1.936,7.075-.017,8.3,3.1,1.983,5.614.973,11.3-.8a35.508,35.508,0,0,1,12.354-1.063" transform="translate(-138.647 -417.786)"/><path class="ao" d="M265.939,450.139l-.016.015a76.124,76.124,0,0,1-19.982,5.015c-16.54,2.115-78.573,3.005-78.573,3.005s-2.689-3.337-1.57-11.236a238.338,238.338,0,0,0,34.044-10.754c20.27-7.991,38.259-13.051,57.82-13.942,3.828.38,8.254,2.07,11.38,8.625C273.212,439.535,269.987,448.613,265.939,450.139Z" transform="translate(-136.882 -422.241)"/><path class="an" d="M158.315,444.559s2.1-1.16,2.794.1,1.051,6.607.687,7.423c-.66,1.477-3.731.935-3.731.935l-2.481-6.771Z" transform="translate(-139.134 -417.295)"/></g><path class="ap" d="M212.053,323.946s5.745-.584-.769,14.3c-2.456,5.609-3.331,5.236-3.373,5.508s-2.2-1.864-2.2-2.809.094-8.306.189-8.684S212.053,323.946,212.053,323.946Z" transform="translate(-125.196 -313.389)"/><path class="ap" d="M183.83,326.731s-4.447-1.239-2.653,7.635a17.485,17.485,0,0,0,4.417,8.766c.042.272,2.2-1.864,2.2-2.809s-.094-8.306-.189-8.684S183.83,326.731,183.83,326.731Z" transform="translate(-130.851 -312.77)"/><path class="aq" d="M184.716,335.894s-1.885-1.824-2.418.607,1.444,8.736,3.951,6.3" transform="translate(-130.52 -310.83)"/><path class="aq" d="M208.289,335.894s1.885-1.824,2.418.607-1.444,8.736-3.951,6.3" transform="translate(-124.959 -310.83)"/><path class="x" d="M199.5,356.724h-.147c-1.75.107-17.326.255-15.354-28.055H213.67S217.269,355.025,199.5,356.724Z" transform="translate(-130.154 -312.318)"/><path class="ap" d="M211.054,315.824c5.587,1.655,9.2,8.721,6.437,14.309s-11.645,8.843-21.578,6.729c-5.847-1.245-7.729-3.6-11.235-3.42a6.176,6.176,0,0,1-6.094-4.039c-1.274-3.438-2.028-8.087,1.536-10.855C189.809,321.342,202.668,313.339,211.054,315.824Z" transform="translate(-131.581 -315.338)"/><path class="ar" d="M202.12,411.356a5.383,5.383,0,1,1-5.383-5.383A5.383,5.383,0,0,1,202.12,411.356Z" transform="translate(-128.448 -294.804)"/><path class="as" d="M190.172,349.691a12.439,12.439,0,0,0,2.218,1.084,12.983,12.983,0,0,0,5.212.859,14.891,14.891,0,0,0,2.824-.394,17.572,17.572,0,0,0,2.4-.732,18.053,18.053,0,0,0,2.257-1.023A10.172,10.172,0,0,1,203,350.9a13.9,13.9,0,0,1-2.4.987,12.451,12.451,0,0,1-2.946.5,10.689,10.689,0,0,1-3-.294,10.982,10.982,0,0,1-2.435-.932A8.169,8.169,0,0,1,190.172,349.691Z" transform="translate(-128.716 -307.602)"/><g transform="translate(60.337 27.468)"><path class="ae" d="M191.435,338.577c.114,1.013.2,2.21-.9,2.341a1.162,1.162,0,0,1-1.131-.641,3.668,3.668,0,0,1-.136-1.444c-.06-1.276,2.024-1.548,2.17-.256Z" transform="translate(-189.26 -337.732)"/><g transform="translate(1.132 1.496)"><path class="k" d="M190.709,339.158c.053.261.021.515-.256.6a.217.217,0,0,1-.238-.118c-.07-.145,0-.242-.021-.388a.262.262,0,0,1,.515-.1Z" transform="translate(-190.183 -338.952)"/></g></g><g transform="translate(73.951 27.468)"><path class="ae" d="M202.535,338.577c.114,1.013.2,2.21-.9,2.341a1.162,1.162,0,0,1-1.131-.641,3.669,3.669,0,0,1-.136-1.444c-.06-1.276,2.024-1.548,2.17-.256Z" transform="translate(-200.36 -337.732)"/><g transform="translate(1.132 1.496)"><path class="k" d="M201.809,339.158c.053.261.021.515-.256.6a.217.217,0,0,1-.238-.118c-.07-.145,0-.242-.021-.388a.262.262,0,0,1,.515-.1Z" transform="translate(-201.283 -338.952)"/></g></g><path class="z" d="M204.489,335.475c.086.245.023.021.075.352s-.294.554-.748.564c-1.126.023-4.559.18-4.559.18-.368.06-.314-.2-.173-.329.569-.532,1.176-1.217,4.4-1.243C203.935,335,204.374,335.139,204.489,335.475Z" transform="translate(-126.721 -310.884)"/><path class="z" d="M187.983,335.475c-.085.245-.023.021-.075.352s.294.554.748.564c1.126.023,4.559.18,4.559.18.368.06.314-.2.173-.329-.569-.532-1.176-1.217-4.4-1.243C188.537,335,188.1,335.139,187.983,335.475Z" transform="translate(-129.23 -310.884)"/><path class="at" d="M195.923,339.955s-1.3,2.863-.894,3.425,1.944.588,1.944.588" transform="translate(-127.634 -309.761)"/><path class="au" d="M192.91,346.667s4.106,2.415,7.781-.191" transform="translate(-128.096 -308.284)"/></g><g transform="translate(504.803 310.973)"><g transform="translate(0 108.841)"><g transform="translate(33.306 5.546)"><path class="k" d="M454.228,467.894V357.4a.447.447,0,0,0-.448-.446H451.1a.446.446,0,0,0-.446.446V467.894a1.563,1.563,0,0,0-1.229,1.512,1.585,1.585,0,0,0,1.585,1.585h2.862a1.584,1.584,0,0,0,1.585-1.585A1.562,1.562,0,0,0,454.228,467.894Z" transform="translate(-449.425 -356.954)"/><path class="k" d="M632.973,467.821h-.089V356.954h-3.574V467.821h-.091a1.139,1.139,0,0,0-1.138,1.138v.893a1.138,1.138,0,0,0,1.138,1.138h3.754a1.138,1.138,0,0,0,1.138-1.138v-.893A1.138,1.138,0,0,0,632.973,467.821Z" transform="translate(-408.949 -356.954)"/></g><path class="av" d="M707.414,359.085H425.6a3.326,3.326,0,0,1-3.326-3.326h0a3.326,3.326,0,0,1,3.326-3.326H707.414a3.326,3.326,0,0,1,3.326,3.326h0A3.326,3.326,0,0,1,707.414,359.085Z" transform="translate(-422.271 -352.432)"/></g><path class="aj" d="M565.51,359.73H484.164l-16.1-50.627a3.954,3.954,0,0,1,3.767-5.153h73.049a3.955,3.955,0,0,1,3.768,2.756Z" transform="translate(-411.94 -254.575)"/><path class="k" d="M563.372,359.283H486.337l-16.193-51.427a1.481,1.481,0,0,1,1.4-1.933h73.806a1.673,1.673,0,0,1,1.592,1.176Z" transform="translate(-411.441 -254.128)"/><path class="aw" d="M513.295,312.8H477.811a.956.956,0,0,1-.957-.957h0a.957.957,0,0,1,.957-.958h35.484a.959.959,0,0,1,.958.958h0A.957.957,0,0,1,513.295,312.8Z" transform="translate(-409.905 -253.003)"/><path class="aw" d="M518.529,316.411H478.961a.957.957,0,0,1-.957-.958h0a.956.956,0,0,1,.957-.957h39.569a.957.957,0,0,1,.958.957h0A.958.958,0,0,1,518.529,316.411Z" transform="translate(-409.644 -252.185)"/><path class="aw" d="M514.6,320.018H480.135a.956.956,0,0,1-.957-.957h0a.957.957,0,0,1,.957-.958H514.6a.957.957,0,0,1,.957.958h0A.956.956,0,0,1,514.6,320.018Z" transform="translate(-409.378 -251.368)"/><path class="aw" d="M508.6,323.626H481.28a.957.957,0,0,1-.957-.958h0a.956.956,0,0,1,.957-.957H508.6a.956.956,0,0,1,.957.957h0A.957.957,0,0,1,508.6,323.626Z" transform="translate(-409.119 -250.551)"/><path class="aw" d="M522.027,327.233H482.459a.956.956,0,0,1-.957-.957h0a.957.957,0,0,1,.957-.958h39.569a.958.958,0,0,1,.958.958h0A.957.957,0,0,1,522.027,327.233Z" transform="translate(-408.852 -249.734)"/><path class="aw" d="M518.076,330.841H483.614a.957.957,0,0,1-.957-.958h0a.956.956,0,0,1,.957-.957h34.463a.957.957,0,0,1,.958.957h0A.958.958,0,0,1,518.076,330.841Z" transform="translate(-408.59 -248.916)"/><path class="aw" d="M525.484,338.056H485.916a.956.956,0,0,1-.957-.957h0a.957.957,0,0,1,.957-.958h39.569a.958.958,0,0,1,.958.958h0A.957.957,0,0,1,525.484,338.056Z" transform="translate(-408.069 -247.282)"/><path class="aw" d="M526.66,341.664H487.091a.958.958,0,0,1-.958-.958h0a.957.957,0,0,1,.958-.957H526.66a.956.956,0,0,1,.957.957h0A.957.957,0,0,1,526.66,341.664Z" transform="translate(-407.803 -246.464)"/><path class="aw" d="M541.162,348.548H528.38a2.73,2.73,0,0,1-2.6-1.909l-10.656-33.725a2.73,2.73,0,0,1,2.6-3.552h12.781a2.729,2.729,0,0,1,2.6,1.907l10.655,33.725A2.73,2.73,0,0,1,541.162,348.548Z" transform="translate(-401.264 -253.349)"/><path class="aj" d="M569.856,353.4H481.394a2.617,2.617,0,0,1-2.616-2.617h0a2.616,2.616,0,0,1,2.616-2.616h88.462a2.616,2.616,0,0,1,2.616,2.616h0A2.617,2.617,0,0,1,569.856,353.4Z" transform="translate(-409.469 -244.558)"/><g transform="translate(164.671 29.074)"><path class="ax" d="M561.029,299.532a1.938,1.938,0,0,1-1.685-.973l-2.565-4.51a1.927,1.927,0,0,1,.776-2.659l7.139-3.77a1.937,1.937,0,0,1,2.6.784l2.436,4.473a1.929,1.929,0,0,1-.774,2.617l-7.01,3.807A1.917,1.917,0,0,1,561.029,299.532Zm4.562-11.245a1.024,1.024,0,0,0-.481.12l-7.139,3.769a1.039,1.039,0,0,0-.418,1.433h0l2.565,4.51a1.045,1.045,0,0,0,1.4.4l7.01-3.807a1.037,1.037,0,0,0,.416-1.409l-2.436-4.473A1.044,1.044,0,0,0,565.59,288.287Z" transform="translate(-556.525 -287.398)"/></g><path class="x" d="M553.113,331.308a15.813,15.813,0,0,1-1.032,1.2s-4.289-3.247-5.484-3.553-3.764.433-5.187.725c-2.332.478-1.365-1.43-1.365-1.43s-1.57.552-2.949,1.111c-1.571.637-3.209,1.951-3.682,2.066-.9.215-1.779-.232-.94-1.491,1.191-1.782,6.811-6.944,8.211-7.617,1.787-.848,4.217-2.084,6.167-1.359s8.3,5.484,8.3,5.484C555.34,328.081,554.073,330.073,553.113,331.308Z" transform="translate(-397.38 -250.77)"/><path class="ay" d="M547.866,334.389s21.039,18.4,36.782,20.274,42.292-28,42.292-28-1.671-15.911-11.488-14.04-22.976,25.528-28.677,26.635S551.429,327.8,551.429,327.8a7.712,7.712,0,0,0-1.835,2.258A19.814,19.814,0,0,0,547.866,334.389Z" transform="translate(-393.817 -252.644)"/><path class="x" d="M592.5,272.826c-5.018-5.744-12.435-6.361-18.16-5.728a18.969,18.969,0,0,0-16.221,13.145,16.893,16.893,0,0,0,.342,10.826c4.672,12.9,9.635,20.014,13.453,23.508,1.678,1.534,5.215-.556,8.771-1.806a1,1,0,0,1,1.22.467l2.03,3.75L598.591,314a51.73,51.73,0,0,1-3.093-8.507C597.416,303.066,601.677,283.334,592.5,272.826Z" transform="translate(-391.66 -262.969)"/><path class="az" d="M566.663,291.962a3.781,3.781,0,0,1,3.835,2.251c1.085,2.583,2.761,6.2,4.078,7.37a1.343,1.343,0,0,0,1.451.015,1.137,1.137,0,0,0,.662-1.127,30.538,30.538,0,0,0-1.526-5.142,3.462,3.462,0,0,1,2.6-4.795,5.823,5.823,0,0,1,2.147.133c3.9,1.184,1.214,7.3,1.134,10.5-.055,2.253,2.642,7.476,3.838,7.944,3.921,1.539,9.864.148,13.015-3.745s3.838-16.908,2.115-24.7S592.06,268.49,590,267.989a7.248,7.248,0,0,0-2.447-.19,2.276,2.276,0,0,1-1.721-.562c-2.074-1.8-8.273-5.93-18.08-1.7a22.732,22.732,0,0,0-14.072,21.692c.145,3.326,2.756,3.08,4.568,2.5a3.023,3.023,0,0,1,2.875.622A7.331,7.331,0,0,0,566.663,291.962Z" transform="translate(-392.503 -263.695)"/><path class="ay" d="M577.133,310.92s-1.3-1.452-.808-2.34c.613-1.1,7.26-6.361,15.018-6.084,1.207.043,2.681.042,4.127,3.19a22.718,22.718,0,0,1,1.787,5.234Z" transform="translate(-387.395 -254.907)"/><path class="ba" d="M616.474,403.967c-.47.112-.98.224-1.511.326-6.587,1.225-17.3,1.369-17.3,1.369-21.118-.378-30.491-11.764-33.922-17.635a21.9,21.9,0,0,1-1.685-3.44,19.415,19.415,0,0,0,7.015-9.7c1.593-5.239-.081-17.727-2.808-22.485-1.5-2.615-5.943-7.914-8.731-13.5-2.287-4.6-3.472-9.384-.97-13.039,6.209-9.119,16-13.969,16-13.969s17.972-7.2,33.278-5.565c9.712,1.02,18.36,5.6,20.668,17.818C632.465,355.626,616.474,403.967,616.474,403.967Z" transform="translate(-392.163 -254.091)"/><path class="x" d="M570.854,437.424a6.966,6.966,0,0,1-3.791,2.139,6.737,6.737,0,0,1-4.416-.819l-1.174-3.389,8.1-1.765Z" transform="translate(-390.734 -225.204)"/><path class="x" d="M536.154,440.788a6.969,6.969,0,0,1-4.083,1.511,6.743,6.743,0,0,1-4.23-1.511l-.621-3.531h8.314Z" transform="translate(-398.494 -224.373)"/><path class="ax" d="M574.439,444.6c-.531.245-2.148.909-2.729,1.113a75.751,75.751,0,0,1-7.421,1.916c-6.967-15.057-18.332-52.952-18.332-52.952-1.583-6.7,3.185-9.4,7.372-9.659a8.873,8.873,0,0,1,3.86.562c4,1.694,9.875,13.019,9.875,13.019a69.657,69.657,0,0,1,3.655,12C572.588,418.672,574.439,444.6,574.439,444.6Z" transform="translate(-394.319 -236.213)"/><path class="bb" d="M596.347,390.142c-.052,3.808-1.062,9.884-6.771,11.6-8.516,2.552-14.806,1.1-24.681-.6-8.271-1.419-21.331-6.26-25.335-7.781-.52-.194-.423.066-.321.607,1.889,9.231-1.169,59.109-1.169,59.109a23.552,23.552,0,0,1-2.819.653,11.312,11.312,0,0,1-1.624.144c-2.144,0-6.086-.4-6.086-.4s-7.576-35.132-8.771-54.789.007-22.693,9.319-25.932c10.375-3.608,42.3-2.638,42.3-2.638l.01.01a30.472,30.472,0,0,0,8.987,12.039A37.865,37.865,0,0,0,596.347,390.142Z" transform="translate(-400.494 -239.613)"/><g transform="translate(148.862 75.03)"><path class="bc" d="M591.022,402.712v50.474a3.257,3.257,0,1,1-6.514,0V402.712Z" transform="translate(-534.377 -307.23)"/><path class="bd" d="M590.783,404.5v48.14a3.485,3.485,0,0,1-2.805,3.366,3.257,3.257,0,0,1-2.083-.406l-.33-.616V405.838A1.336,1.336,0,0,1,586.9,404.5Z" transform="translate(-534.137 -306.824)"/><path class="bc" d="M596.011,401.849a2.583,2.583,0,0,1-.092.694,2.819,2.819,0,0,1-2.716,2.113h-9.7a2.813,2.813,0,0,1-2.808-2.808,2.823,2.823,0,0,1,2.808-2.808h9.7A2.806,2.806,0,0,1,596.011,401.849Z" transform="translate(-535.241 -308.062)"/><path class="bd" d="M595.323,401.9a2.819,2.819,0,0,1-2.716,2.113h-9.283a2.766,2.766,0,0,1,.725-1.3,2.846,2.846,0,0,1,1.992-.817Z" transform="translate(-534.645 -307.415)"/><path class="be" d="M638.97,330.589c0,.031-.016.047-.016.077a8.979,8.979,0,0,1-.171.959c-.789,3.294-3.573,9.744-3.974,19.411-.264,5.939-.016,21.7-.294,31.228v.016c-.047,1.423-.093,2.691-.154,3.79-.51,8.429-3.388,20.928-12.188,27.253-8.94,6.713-26.929,5.553-37.849,5.306-10.92-.264-37.973-5.182-40.138-9.2a3.482,3.482,0,0,1-.51-2.319c0-.016,0-.016.015-.031a2.822,2.822,0,0,1,.835-1.547,4.206,4.206,0,0,1,3.991-.99c4.408,1.1,17.524,3.634,23.434-3.853,7.146-9.063,6.248-19.534,9.311-41.607,2.892-20.881,9.4-27.285,20.185-31.445,11.523-4.439,30.037-2.536,34.662-1.144A3.957,3.957,0,0,1,638.97,330.589Z" transform="translate(-543.637 -324.866)"/><path class="bd" d="M631.923,450.26a1.2,1.2,0,0,1-1.195,1.195H557.555a1.193,1.193,0,0,1-.194-2.37l36.781-5.964,9.252,1.5,27.519,4.462A1.194,1.194,0,0,1,631.923,450.26Z" transform="translate(-540.754 -298.075)"/></g><path class="ax" d="M531.356,440.136a13.469,13.469,0,0,0,4.2.872,10.123,10.123,0,0,0,4.138-.872s4.262,5.429,2,11.477a.821.821,0,0,1-.77.521H512.337a.641.641,0,0,1-.648-.619,2.391,2.391,0,0,1,2.009-2.359c2.638-.808,5.361-1.255,7.4-1.978s4.975-3.723,6.616-4.276A8.9,8.9,0,0,0,531.356,440.136Z" transform="translate(-402.013 -223.721)"/><path class="ax" d="M565.686,438.036a13.467,13.467,0,0,0,4.287.2,10.12,10.12,0,0,0,3.947-1.518s5.069,4.683,3.8,11.014a.824.824,0,0,1-.677.637s-15.082,3.38-20.183,4.11a72.56,72.56,0,0,1-8.039.447.682.682,0,0,1-.741-.529,2.392,2.392,0,0,1,1.61-2.647c2.475-1.217,5.093-2.09,6.995-3.129s4.32-4.465,5.853-5.272A8.913,8.913,0,0,0,565.686,438.036Z" transform="translate(-393.777 -224.496)"/><path class="x" d="M520.38,352.246s-2.931-1.216-4.462-1.756a16.688,16.688,0,0,0-1.655-.48,8.856,8.856,0,0,0-2.012-.215H495.6a.876.876,0,0,1-.868-.878,1.9,1.9,0,0,1,.868-1.6l1.786-1.154,5.34-3.452c2.646-1.7,4.568-1.809,7.713-1.533a28.611,28.611,0,0,1,3.275,1.148c3.12,1.029,3.8,1.5,5.872,2.234a14.056,14.056,0,0,0,1.747.531,1.69,1.69,0,0,0,.715.071A9.993,9.993,0,0,1,520.38,352.246Z" transform="translate(-405.855 -246.168)"/><path class="ba" d="M581,318.019c-2.182-1.332-8.782-5-17.292,8.273s-11.117,18.931-13.578,23.056c-2.978,1.787-32.967,1.022-32.967,1.022a27.226,27.226,0,0,0-2.171,7.435,109.313,109.313,0,0,0,37.07,9.414c16.37,0,33.235-31.99,34-35.99S586.217,321.2,581,318.019Z" transform="translate(-401.264 -251.724)"/><g transform="translate(165.494 27.509)"><path class="ax" d="M557.641,296.773a.445.445,0,0,1-.2-.84l16.583-8.5c1.877-.962,5.718-2.928,8.569,1.255a.445.445,0,1,1-.735.5c-2.224-3.264-4.874-2.273-7.4-.98l-16.612,8.515A.448.448,0,0,1,557.641,296.773Z" transform="translate(-557.196 -286.122)"/></g><path class="x" d="M570.881,288.482l2.189,6.994a2.221,2.221,0,0,0,3.345-.244c1.642-1.89,3.071-8.453.061-9.548S571.641,286.14,570.881,288.482Z" transform="translate(-388.602 -258.794)"/><path class="bf" d="M638.305,328.114a.116.116,0,0,1-.016-.047,4.063,4.063,0,0,0-2.181-1.577c-4.625-1.392-23.139-3.295-34.662,1.144-10.781,4.161-17.293,10.564-20.185,31.445-3.063,22.073-2.165,32.544-9.311,41.607-5.91,7.487-19.025,4.95-23.434,3.853a4.206,4.206,0,0,0-3.991.99,2.866,2.866,0,0,0-.85,1.577,3.482,3.482,0,0,0,.51,2.319c2.165,4.022,29.218,8.94,40.138,9.2,10.92.246,28.909,1.407,37.849-5.306,8.8-6.325,11.678-18.824,12.188-27.253.061-1.1.108-2.367.154-3.79-.185.774-6.232,17.8-27.515,13.88-20.5-3.781-22.366-26.272-21.634-33.837.1-.822.195-1.62.288-2.362.185-1.4,1.31-7.331,2.706-12.513a25.184,25.184,0,0,1,8.068-12.531,12.025,12.025,0,0,1,1.955-1.174c.2-.123.433-.247.665-.37.309-.17.634-.325,1.006-.5l1.067-.464c.262-.108.541-.217.8-.309,16.658-6.589,34.569-2.3,35.745-2.12C638.783,330.171,638.383,328.423,638.305,328.114Z" transform="translate(-394.775 -249.836)"/></g><g transform="translate(289.348 546.339)"><path class="bg" d="M250.736,460.446l1.828-4.86s28.991,1.37,42.737,9.924L269.143,466Z" transform="translate(-245.678 -455.586)"/><path class="bg" d="M331.633,460.446l-1.826-4.86s-28.991,1.37-42.738,9.924l26.158.491Z" transform="translate(-237.447 -455.586)"/><path class="bh" d="M295.577,464.882c-15.7-6.1-46.063-6.525-46.063-6.525V468.7h92.127V458.357S311.282,458.786,295.577,464.882Z" transform="translate(-245.955 -454.958)"/><rect class="bi" width="99.245" height="3.505" transform="translate(0 10.866)"/></g><path class="bd" d="M491.891,166.126l8.74-5.732a11.633,11.633,0,0,0,6.29,1.846h42.113a11.7,11.7,0,0,0,11.7-11.7V137.293a11.7,11.7,0,0,0-11.7-11.7H506.921a11.7,11.7,0,0,0-11.7,11.7v13.246a11.642,11.642,0,0,0,2.012,6.56Zm15-11.423a1.053,1.053,0,0,1,1.05-1.05h40.494a1.05,1.05,0,0,1,0,2.1H507.938A1.053,1.053,0,0,1,506.888,154.7Zm41.543-4.424H527.037a1.05,1.05,0,0,1,0-2.1h21.395a1.05,1.05,0,0,1,0,2.1Zm-41.543-6.524a1.053,1.053,0,0,1,1.05-1.05h40.494a1.05,1.05,0,0,1,0,2.1H507.938A1.053,1.053,0,0,1,506.888,143.755Zm41.543-4.424h-29.87a1.05,1.05,0,1,1,0-2.1h29.87a1.05,1.05,0,0,1,0,2.1Zm-41.543-6.524a1.054,1.054,0,0,1,1.05-1.05h40.494a1.05,1.05,0,0,1,0,2.1H507.938A1.053,1.053,0,0,1,506.888,132.806Z" transform="translate(98.305 15.991)"/><g transform="translate(161.247 109.741)"><path class="bj" d="M207.88,245.2H147.11a4.937,4.937,0,0,0-4.937,4.937v187.33a4.937,4.937,0,0,0,4.937,4.937h4.4" transform="translate(-142.173 -66.654)"/><path class="bj" d="M544.074,194.05h116.31a8.676,8.676,0,0,1,8.675,8.674V354.612a8.676,8.676,0,0,1-8.675,8.674H647.112" transform="translate(-51.12 -78.241)"/><path class="bj" d="M283.845,99.632h70.066A14.179,14.179,0,0,1,368.09,113.81v66.911" transform="translate(-110.076 -99.632)"/></g><g transform="translate(539.338 389.316)"><path class="k" d="M460.326,344.494s-8.136-4.764-9.9-14.113c0,0,7.663,1.588,11.505,14.113" transform="translate(-450.427 -326.929)"/><path class="k" d="M461.413,344.494s8.136-4.764,9.9-14.113c0,0-7.664,1.588-11.505,14.113" transform="translate(-448.302 -326.929)"/><path class="k" d="M459.936,344.354s-5.867-7.379-4.136-16.734c0,0,6.573,4.248,5.632,17.314" transform="translate(-449.282 -327.555)"/><path class="k" d="M460.96,344.4s5.691-7.516,3.739-16.828c0,0-6.471,4.4-5.22,17.443" transform="translate(-448.413 -327.567)"/><g transform="translate(2.45 15.667)"><rect class="be" width="17.728" height="14.826"/><rect class="bf" width="5.272" height="14.826"/></g></g><g transform="translate(713.845 285.908)"><g class="bk"><g transform="translate(0.997 24.127)"><path class="bl" d="M601.532,269.077l-8.018,4.276,4.009-10.424" transform="translate(-593.514 -262.93)"/></g><path class="bl" d="M626.6,260.206a16.947,16.947,0,1,1-16.947-16.947A16.946,16.946,0,0,1,626.6,260.206Z" transform="translate(-592.701 -243.259)"/></g><path class="bm" d="M600.7,256.345l5.142,6.4,9.125-9.57" transform="translate(-590.888 -241.013)"/></g><g transform="translate(172.147 341.606)"><g class="bk" transform="translate(0)"><g transform="translate(24.879 24.127)"><path class="bl" d="M171.344,314.487l8.018,4.276-4.009-10.423" transform="translate(-171.344 -308.34)"/></g><path class="bl" d="M151.06,305.616a16.947,16.947,0,1,0,16.947-16.947A16.947,16.947,0,0,0,151.06,305.616Z" transform="translate(-151.06 -288.669)"/></g><path class="bm" d="M159.061,301.755l5.142,6.4,9.125-9.57" transform="translate(-149.247 -286.423)"/></g><g transform="translate(669.06 142.4)"><rect class="k" width="70.167" height="71.018" rx="1.77"/><g class="bk" transform="translate(12.832 6.766)"><path class="av" d="M607.172,155.927a20.1,20.1,0,0,1-5.71,14.1.051.051,0,0,1-.028.015,18.422,18.422,0,0,1-1.743,1.6,18.819,18.819,0,0,1-2.891,1.97,18.132,18.132,0,0,1-2.494,1.176,19.8,19.8,0,0,1-6.163,1.36q-.616.042-1.233.042a20.263,20.263,0,0,1-4.661-39.983c.056-.014.128-.028.184-.043a17.208,17.208,0,0,1,1.97-.353,20.852,20.852,0,0,1,2.507-.156,20.258,20.258,0,0,1,17.839,10.654q.34.638.638,1.319A20.028,20.028,0,0,1,607.172,155.927Z" transform="translate(-566.65 -130.897)"/><g transform="translate(1.694 4.758)"><path class="bn" d="M591.695,173.778c.145,1.016-1.093,1.618-2.088,1.859-.587.145-1.182.291-1.777.415-.407.028-.822.042-1.237.042a20.175,20.175,0,0,1-12.761-4.521,3.328,3.328,0,0,1-.056-.532,9.352,9.352,0,0,1,.437-2.289,10.129,10.129,0,0,0,.269-1.936.973.973,0,0,0-.145-.684,1.455,1.455,0,0,0-.54-.3,2.631,2.631,0,0,1-1.521-3.015c.985-2.424,4.446-1.63,2.166-7.667-.489-1.3.543-1.629.461-1.988-.194-.8-3.194-.583-4.01-.714a2.813,2.813,0,0,1-1.527-.505,2.207,2.207,0,0,1-.526-.837,11.157,11.157,0,0,1-.808-3.407,20.284,20.284,0,0,1,14.082-11.635l.062.656q-.311,3.453-.435,6.907a3.547,3.547,0,0,1-.18,1.2,2.127,2.127,0,0,1-2.219,1.141,1.546,1.546,0,0,0-.968.028c-.464.27-.353.954-.422,1.487-.131.919-.947,1.555-1.507,2.295s-.781,2.005.034,2.454c.209.11.471.166.587.367.159.276-.055.622-.324.8a3.209,3.209,0,0,0-.789.511c-.4.477-.11,1.239.346,1.66a14.861,14.861,0,0,1,1.445,1.169c.5.608.608,1.479,1.154,2.04,1.327,1.369,4.059-.063,5.407,1.293.7.691.7,1.852,1.314,2.613a6.479,6.479,0,0,0,1.493,1.12,4.818,4.818,0,0,1,2,3.616c.089,1.521-.477,3.3.567,4.411C590.34,172.533,591.556,172.823,591.695,173.778Z" transform="translate(-568.031 -135.561)"/><path class="bn" d="M601.568,146.308a7.9,7.9,0,0,0-1.016.082.6.6,0,0,0-.353.159.772.772,0,0,0-.1.588,2.266,2.266,0,0,1-.76,1.777.745.745,0,0,1-.346.186c-.38.069-.635-.374-.774-.74-.373-.968-.74-1.943-1.106-2.918a1.81,1.81,0,0,0-.491-.8c-.449-.345-1.133-.193-1.61-.5-.581-.367-.871-1.363-1.534-1.2-.54.131-.547.9-.374,1.425s.38,1.2-.042,1.561c-.449.38-1.147,0-1.493-.477s-.616-1.084-1.169-1.293c-.788-.3-1.6.422-2.032,1.148s-.822,1.59-1.618,1.873a7.615,7.615,0,0,0-1.189.312c-.747.415-.719,1.5-.456,2.316a3.425,3.425,0,0,1,.255,2.483.661.661,0,0,1-.331.352c-.339.125-.664-.186-.884-.462a31.048,31.048,0,0,1-3.181-5.013,2,2,0,0,1-.3-1.106,3.872,3.872,0,0,1,.228-.705,12.9,12.9,0,0,0,.132-2.537c.179-1.431,1.348-2.779.892-4.148a11.523,11.523,0,0,0-.775-1.4,1.274,1.274,0,0,1,.076-1.466,19.953,19.953,0,0,1,2.51-.159A20.244,20.244,0,0,1,601.568,146.308Z" transform="translate(-565.17 -135.654)"/><path class="bn" d="M602.018,153.715a20.272,20.272,0,0,1-3.9,11.96.007.007,0,0,1-.007-.007.975.975,0,0,1-.055-.4,3.374,3.374,0,0,1,.27-1.438c.145-.27.352-.505.5-.774a3.984,3.984,0,0,0,.228-2.3,1.9,1.9,0,0,0-.394-1.176c-.186-.186-.443-.3-.629-.483-.435-.464-.3-1.19-.2-1.818s.034-1.424-.547-1.66a19.859,19.859,0,0,1-2.378,2.744,1.069,1.069,0,0,0-1.348-1.071,1.508,1.508,0,0,0-.953,1.631c-.589.013-.72-.823-.637-1.4.139-.989.277-1.977.407-2.966-.643-.277-1.112.747-1.8.9-.574.124-1.112-.45-1.175-1.038a3.182,3.182,0,0,1,.464-1.679c.3-.623.609-1.239.913-1.861a4.158,4.158,0,0,1,1.637-2.067,4.666,4.666,0,0,1,3.174.11c1.057.256,2.316.38,3.076-.394a3.287,3.287,0,0,0,.74-1.736c.11-.538.269-1.162.774-1.382l.048.007A20.02,20.02,0,0,1,602.018,153.715Z" transform="translate(-563.19 -133.445)"/></g><path class="bo" d="M602.355,169.02q-.425.511-.893.978a.051.051,0,0,1-.028.015,18.424,18.424,0,0,1-1.743,1.6,18.82,18.82,0,0,1-2.891,1.97,18.129,18.129,0,0,1-2.494,1.176,19.8,19.8,0,0,1-6.163,1.36q-.616.042-1.233.042a20.263,20.263,0,0,1-4.661-39.983c.056-.013.128-.028.184-.043a17.218,17.218,0,0,1,1.97-.353c.028,0,.071-.015.1-.015a19.66,19.66,0,0,0-4.719,6.574,19.469,19.469,0,0,0,17.824,27.275c.4,0,.794-.015,1.19-.043A18.414,18.414,0,0,0,602.355,169.02Z" transform="translate(-566.65 -130.871)"/><path class="bi" d="M611.659,156.715a24.937,24.937,0,0,0-24.94-24.94,1.305,1.305,0,1,0,0,2.61,22.329,22.329,0,1,1-17.282,36.47,1.306,1.306,0,0,0-1.835-.182,1.281,1.281,0,0,0-.472.881,1.3,1.3,0,0,0,.288.954,24.853,24.853,0,0,0,17.765,9.095v4.354h-7.538a1.652,1.652,0,0,0,0,3.3h18.311a1.652,1.652,0,1,0,0-3.3h-7.538v-4.39A24.953,24.953,0,0,0,611.659,156.715Z" transform="translate(-566.543 -131.775)"/></g></g><g transform="translate(129.125 62.613)"><g transform="translate(205.89 419.767)"><path class="av" d="M297.449,409.393A6.83,6.83,0,1,1,289.8,403.5,6.829,6.829,0,0,1,297.449,409.393Z" transform="translate(-283.844 -403.441)"/><path class="bp" d="M287.017,410.144l3,2.24,2.939-5.271" transform="translate(-283.125 -402.609)"/></g><g transform="translate(224.56 61.666)"><path class="av" d="M312.389,116.19a6.83,6.83,0,1,1-8.618-4.364A6.831,6.831,0,0,1,312.389,116.19Z" transform="translate(-299.065 -111.484)"/><path class="bp" d="M302.388,118.82l3.368,1.64,1.9-5.726" transform="translate(-298.313 -110.748)"/></g><g transform="translate(584.385 181.746)"><path class="av" d="M613.291,220.6a10.445,10.445,0,1,1-9.649-11.184A10.445,10.445,0,0,1,613.291,220.6Z" transform="translate(-592.428 -209.385)"/><path class="bq" d="M597.177,218.524l3.809,4.279,6.023-6.992" transform="translate(-591.352 -207.928)"/></g><path class="av" d="M584.239,218.062a2.512,2.512,0,1,1-2.512-2.512A2.512,2.512,0,0,1,584.239,218.062Z" transform="translate(-11.036 -26.242)"/><path class="br" d="M515.288,77.222a2.511,2.511,0,1,1-2.512-2.512A2.512,2.512,0,0,1,515.288,77.222Z" transform="translate(-26.657 -58.15)"/><path class="av" d="M182.276,264.226a4.009,4.009,0,1,1-4.008-4.01A4.01,4.01,0,0,1,182.276,264.226Z" transform="translate(-102.782 -16.123)"/><path class="br" d="M679.827,297.706a6.165,6.165,0,1,1-6.165-6.166A6.164,6.164,0,0,1,679.827,297.706Z" transform="translate(8.965 -9.026)"/><path class="br" d="M130.241,228.281a6.166,6.166,0,1,1-6.166-6.166A6.166,6.166,0,0,1,130.241,228.281Z" transform="translate(-115.548 -24.755)"/><path class="br" d="M637.747,342.628a4.009,4.009,0,1,1-4.008-4.01A4.009,4.009,0,0,1,637.747,342.628Z" transform="translate(0.408 1.64)"/><path class="br" d="M382.7,89.334a4.008,4.008,0,1,1-4.008-4.008A4.008,4.008,0,0,1,382.7,89.334Z" transform="translate(-57.374 -55.745)"/><path class="bs" d="M443.532,72.935a4.008,4.008,0,1,1-4.008-4.008A4.008,4.008,0,0,1,443.532,72.935Z" transform="translate(-43.592 -59.46)"/><g transform="translate(0 142.013)"><g transform="translate(2.825)"><path class="av" d="M119.088,184.244a.8.8,0,0,1-.8-.8v-5.651a.8.8,0,0,1,1.6,0v5.651A.8.8,0,0,1,119.088,184.244Z" transform="translate(-118.287 -176.991)"/></g><g transform="translate(0 2.825)"><path class="av" d="M122.437,180.9h-5.652a.8.8,0,1,1,0-1.6h5.652a.8.8,0,1,1,0,1.6Z" transform="translate(-115.984 -179.294)"/></g></g><g class="e" transform="translate(44.34)"><g transform="translate(2.825)"><path class="av" d="M155.238,68.462a.8.8,0,0,1-.8-.8V62.01a.8.8,0,1,1,1.6,0v5.651A.8.8,0,0,1,155.238,68.462Z" transform="translate(-154.437 -61.209)"/></g><g transform="translate(0 2.825)"><path class="av" d="M158.587,65.114h-5.652a.8.8,0,0,1,0-1.6h5.652a.8.8,0,1,1,0,1.6Z" transform="translate(-152.134 -63.512)"/></g></g><g transform="translate(514.491 67.63)"><g transform="translate(2.825)"><path class="av" d="M538.548,123.6a.8.8,0,0,1-.8-.8v-5.651a.8.8,0,1,1,1.6,0V122.8A.8.8,0,0,1,538.548,123.6Z" transform="translate(-537.747 -116.347)"/></g><g transform="translate(0 2.826)"><path class="av" d="M541.9,120.253h-5.651a.8.8,0,1,1,0-1.6H541.9a.8.8,0,0,1,0,1.6Z" transform="translate(-535.444 -118.651)"/></g></g><g transform="translate(688.791 365.943)"><g transform="translate(0 0)"><g transform="translate(2.826)"><path class="av" d="M680.654,366.812a.8.8,0,0,1-.8-.8V360.36a.8.8,0,1,1,1.6,0v5.651A.8.8,0,0,1,680.654,366.812Z" transform="translate(-679.853 -359.559)"/></g><g transform="translate(0 2.825)"><path class="av" d="M684,363.465h-5.651a.8.8,0,1,1,0-1.6H684a.8.8,0,0,1,0,1.6Z" transform="translate(-677.549 -361.862)"/></g></g></g></g><g transform="translate(587.75 208.495)"><path class="k" d="M535.151,181.448v43.1a1.317,1.317,0,0,1-1.319,1.317H491.2a1.314,1.314,0,0,1-1.3-1.317v-43.1a1.311,1.311,0,0,1,1.3-1.3h42.633A1.314,1.314,0,0,1,535.151,181.448Z" transform="translate(-489.897 -180.145)"/><path class="av" d="M530.941,211.792v8.077a1.317,1.317,0,0,1-1.319,1.317H508.477l.9-9.394,9.953-11.007Z" transform="translate(-485.688 -175.469)"/><path class="bt" d="M529.228,222.038H491.2a1.314,1.314,0,0,1-1.3-1.317v-8.077l14.883-15.619Z" transform="translate(-489.897 -176.321)"/><path class="av" d="M523.85,191.2a5.247,5.247,0,1,1-5.247-5.247A5.247,5.247,0,0,1,523.85,191.2Z" transform="translate(-484.582 -178.83)"/><rect class="k" width="45.253" height="3.995" rx="0.791" transform="translate(0 49.115)"/><rect class="k" width="45.253" height="3.995" rx="0.791" transform="translate(0 56.24)"/></g></g></svg>