<svg xmlns="http://www.w3.org/2000/svg" width="89.402" height="50.233" viewBox="0 0 89.402 50.233"><defs><style>.a{fill:#fff;}</style></defs><path class="a" d="M104.581,180.953,100.542,177a1.3,1.3,0,0,0-2.126.468L95.5,185.153l-.526,1.382a1.3,1.3,0,0,0,1.952,1.537l7.479-5.114A1.3,1.3,0,0,0,104.581,180.953Z" transform="translate(-67.176 -140.951)"/><path class="a" d="M165.383,154.322l-86.8,17.147a1.3,1.3,0,0,0-.1,2.529l18.328,5.184a1.3,1.3,0,0,0,.754-.014l40.156-12.911a1.3,1.3,0,0,1,1.112,2.328l-26.57,17.432a1.3,1.3,0,0,0-.2,2.011L128.3,204.151a1.3,1.3,0,0,0,1.951-.134l36.421-47.628A1.3,1.3,0,0,0,165.383,154.322Z" transform="translate(-77.539 -154.296)"/><path class="a" d="M123.774,164.143,91.7,175.357a1.3,1.3,0,0,0-.856,1.428l2.284,14.681a1.3,1.3,0,0,0,2.5.262l4.216-11.1.212-.559.617-.385,23.49-14.729A.451.451,0,0,0,123.774,164.143Z" transform="translate(-69.601 -148.429)"/></svg>