<svg xmlns="http://www.w3.org/2000/svg" width="36.239" height="42.784" viewBox="0 0 36.239 42.784"><defs><style>.a{fill:none;stroke:#9e9e9e;stroke-linecap:round;stroke-linejoin:round;stroke-width:2.5px;stroke-dasharray:0 0;}.b{fill:#f24242;}.c{fill:#fff;font-size:9px;font-family:Poppins-Medium, Poppins;font-weight:500;letter-spacing:0.042em;}</style></defs><g transform="translate(-1402.628 -54.453)"><g transform="translate(1403.878 61.181)"><g transform="translate(0 0)"><g transform="translate(0)"><path class="a" d="M23.05,3.059A10.444,10.444,0,0,0,5.222,10.444C5.222,22.628,0,26.109,0,26.109H31.331s-5.222-3.481-5.222-15.665A10.444,10.444,0,0,0,23.05,3.059Z"/><path class="a" d="M6.022,0A3.481,3.481,0,0,1,4.749,1.27a3.481,3.481,0,0,1-1.738.465A3.481,3.481,0,0,1,1.274,1.27,3.481,3.481,0,0,1,0,0" transform="translate(12.655 33.071)"/></g></g></g><g transform="translate(1419.583 54)"><circle class="b" cx="9.5" cy="9.5" r="9.5" transform="translate(0.283 0.453)"/><text class="c" transform="translate(6.283 13.453)"><tspan x="0" y="0">11</tspan></text></g></g></svg>