<svg xmlns="http://www.w3.org/2000/svg" width="121.056" height="121.239" viewBox="0 0 121.056 121.239"><defs><style>.a{fill:#bebebe;}.b{fill:#fff;}.c{fill:gray;}</style></defs><g transform="translate(0 0.182)"><path class="a" d="M120.528,0A60.513,60.513,0,0,0,86.9,110.833l33.627,10.223,33.627-10.223A60.513,60.513,0,0,0,120.528,0Zm0,0" transform="translate(-60)"/><path class="b" d="M170.176,60a20.176,20.176,0,1,0,20.176,20.176A20.148,20.148,0,0,0,170.176,60Zm0,0" transform="translate(-109.648 -33.099)"/><path class="b" d="M187.253,183.627v9.953a60.417,60.417,0,0,1-67.253,0v-9.953a33.627,33.627,0,1,1,67.253,0Zm0,0" transform="translate(-93.099 -82.746)"/></g><path class="c" d="M29.224,8.643V25.081a2.74,2.74,0,0,1-2.74,2.74H2.74A2.74,2.74,0,0,1,0,25.081V8.643A2.74,2.74,0,0,1,2.74,5.9H7.763l.7-1.878A2.736,2.736,0,0,1,11.027,2.25h7.163a2.736,2.736,0,0,1,2.563,1.775L21.461,5.9h5.023A2.74,2.74,0,0,1,29.224,8.643Zm-7.763,8.219a6.849,6.849,0,1,0-6.849,6.849A6.855,6.855,0,0,0,21.461,16.862Zm-1.826,0a5.023,5.023,0,1,1-5.023-5.023A5.03,5.03,0,0,1,19.635,16.862Z" transform="translate(83.062 -2.25)"/></svg>