<svg xmlns="http://www.w3.org/2000/svg" xmlns:xlink="http://www.w3.org/1999/xlink" width="791.315" height="345.345" viewBox="0 0 791.315 345.345"><defs><style>.a{fill:none;}.b{fill:#dde8fd;}.c{fill:#fc9796;}.d{fill:#0d0d38;}.e{fill:#fdb5b4;}.f{fill:#a83f3f;}.g{fill:#fa7970;}.h{fill:#9e332e;}.i{fill:#fb8a82;}.j{fill:#fff;}.k{fill:#93b3f4;}.l{fill:#c0ccea;}.m{fill:#6d89cf;}.n{fill:#3662c1;}.o{fill:#fa7269;}.p{fill:#fc9492;}.q{fill:#fc9f9d;}.r{fill:#fb928b;}.s,.t{fill:#97b6f4;}.t{opacity:0.6;}.u{fill:#a03732;}.v{fill:#fc9593;}.w{fill:#060632;}.x{fill:#ed6966;}.y{fill:#c7d8fb;}.z{fill:#bed2fa;}.aa{fill:#ea8888;}.ab{fill:#3a49cd;}.ac{fill:#120e59;}.ad{fill:#fca2a1;}.ae{fill:#b15252;}.af{fill:#0b0754;}.ag{clip-path:url(#a);}.ah{fill:#12123c;}.ai{fill:#ea6b69;}.aj{fill:#e75755;}.ak{fill:#fc9290;}.al{fill:#fb9088;}</style><clipPath id="a"><path class="a" d="M1658.393,1112.958H1484.7l-19.672-71.094-1.508-5.45-1.285-4.649-3.019-10.9h171.193l3.312,10.9,1.414,4.649,1.658,5.45Z" transform="translate(-1459.215 -1020.861)"/></clipPath></defs><g transform="translate(-869.068 -710.572)"><g transform="translate(829.281 710.572)"><path class="b" d="M1648.559,1054.9s91.239-95.421,15.431-198.728c-67.263-91.661-145.684-85.4-203.221-48.2-24.506,15.843-113.2,87.823-173.332-5.445-82.007-127.193-348.231-135.921-296.4,59.768,25.082,94.7-100.4,98.142-48.726,192.8Z" transform="translate(-889.913 -710.572)"/><g transform="translate(82.285 174.415)"><path class="c" d="M1115.2,1255.528s-25.6,11.155-30.25,10.952-33.285-8.723-33.285-8.723l.729,4.927s22.1,12.71,29.827,13.432c7.607.71,33.617-6.827,36.129-8.418S1122.5,1257.139,1115.2,1255.528Z" transform="translate(-1045.842 -1214.025)"/><path class="d" d="M1200.745,1151.248s9.445-1.794,14.149,1.641c8.521,6.223,8.979,27.676,12.172,30.872s10.892,1.832,11.578,18.369-3.065,17.918,1.4,25.3-1.89,14.77-1.89,14.77,2.6-4.075,1.487-7.016c0,0-1.084,6.491-5.207,8.012s-4.734,2.637-5.392,4.868c0,0-35.18-18.027-35.219-30.813s-6.923-25.452-3.542-30.993a12.254,12.254,0,0,0-1.69,5.008,6.592,6.592,0,0,1,1.487-7.505c3.516-3.618-4.125-11.107-2.993-19.778C1187.864,1158.029,1192.041,1151.507,1200.745,1151.248Z" transform="translate(-1127.535 -1150.779)"/><path class="e" d="M1204.173,1245.35a24.62,24.62,0,0,0,8.608,3.663c13.267,3.066,18.352-8.148,20.261-15.846a11.4,11.4,0,0,0-4.495-1.381c-.959-.113-1.968-.188-2.8-.23-1.49-1.141-3.71-5.811-4.2-13.062l-.624.167-10.457,2.862s.479,3.324.714,6.466c.182,2.458.21,4.808-.256,5.383-.816.177-1.305.292-1.305.292a.036.036,0,0,1-.005.01A67.309,67.309,0,0,0,1204.173,1245.35Z" transform="translate(-1137.921 -1191.665)"/><path class="c" d="M1220.047,1221.785s.481,3.321.714,6.465c5.924-.593,8.673-6.233,9.743-9.327Z" transform="translate(-1147.506 -1191.924)"/><path class="e" d="M1206.659,1197.229s14.061-.776,13.443-9.526.781-14.741-8.223-14.616-10.51,3.587-11.014,6.558S1202.985,1197.2,1206.659,1197.229Z" transform="translate(-1135.886 -1164.247)"/><path class="d" d="M1197.93,1172c1.982-2.787,3.664-2.327,4.64-1.6a9.842,9.842,0,0,1,12.768,1.114,16.757,16.757,0,0,0,6.174,9.481s-2.446,1.765-8.457.671a10.059,10.059,0,0,1-5.017-2.956,32.863,32.863,0,0,0,6.133,6.483c-7.283-2.753-10.817-12.354-11.173-13.371a11.034,11.034,0,0,0-2.77,4.3c-.541,2.278-2.871,5.84-4.219,5.78C1196.01,1181.9,1194.958,1176.183,1197.93,1172Z" transform="translate(-1132.883 -1161.5)"/><path class="f" d="M1223.969,1291.6c1.27-6.492,5.41-32.427,1.27-40.772-1.487-3-7.322-3.268-13.724-3.006-1.992,1.287-9.582,6.146-12.7,5.539-.033-.006-.094-.021-.175-.041-1.468-.367-2.022-1.4-.8-2.288a27.9,27.9,0,0,0-7.108.435c-2.224.419-8.222,3.522-8.222,3.522s3.021,5.457,7.475,7.341c-.758,6.776.369,9.765,7.4,25.414,5.94,13.228-.8,25.137-.8,25.137s34.964,28.112,35.159,13.8C1231.889,1315.906,1222.346,1299.9,1223.969,1291.6Z" transform="translate(-1124.843 -1209.327)"/><path class="g" d="M1163.807,1372.1a6.5,6.5,0,0,1-4.676-2.847q-.253-.378-.54-.814c-3.98-6.025-5.528-24.476-14.48-44.132-2.181-4.786-10.007-5.646-12.141-11.056,0,0-5.253-17.534,10.054-18.052s41,48.788,41.4,53.959C1183.817,1354.168,1193.544,1375.457,1163.807,1372.1Z" transform="translate(-1093.8 -1237.977)"/><path class="h" d="M1060.1,1471.053h21.787s.814-3.475-.616-5.84c-1.266-2.092-.781-3.284.157-5.015a8.47,8.47,0,0,1-3.67.691,7.669,7.669,0,0,1-3.24-1.139,78.531,78.531,0,0,1-6.208,6.521C1066.886,1467.294,1060.538,1466.929,1060.1,1471.053Z" transform="translate(-1050.931 -1337.332)"/><path class="h" d="M1231.146,1272.685s2.835,25.8-15.555,31.2-23.61-23.737-8.762-25.833A142.974,142.974,0,0,0,1231.146,1272.685Z" transform="translate(-1134.316 -1224.384)"/><path class="i" d="M1107.666,1299.215c-1.312,9.835-6.435,40.879-15.472,56.024-2.913,4.883,7.341,7.62,7.4,7.606,1.375-.36,3.667-2.552,4.723-3.5,7.337-6.612,22.231-25.336,22.231-40.347,0-7.319.128-21.3-5.194-24.851C1118.071,1291.955,1108.187,1295.309,1107.666,1299.215Z" transform="translate(-1069.995 -1236.922)"/><path class="c" d="M1196.628,1369.994s-.807-1.124-2.215-3.258c-1.676-2.538-3.53-7.532-5.78-13.934-2.363-6.72-5.167-14.988-8.67-23.592-1.081-2.655-2.229-5.343-3.451-8.027-2.18-4.786-8.179-4.124-10.313-9.535,0,0-8.327-18.754,6.98-19.271s44.394,50.167,46.066,55.077C1221.076,1352.829,1230,1375.143,1196.628,1369.994Z" transform="translate(-1113.629 -1236.273)"/><path class="f" d="M1100.464,1471.053h21.787s.815-3.475-.616-5.84c-1.266-2.092-.781-3.284.157-5.015a8.468,8.468,0,0,1-3.67.691,7.668,7.668,0,0,1-3.24-1.139,78.493,78.493,0,0,1-6.208,6.521C1107.251,1467.294,1100.9,1466.929,1100.464,1471.053Z" transform="translate(-1075.303 -1337.332)"/><path class="i" d="M1213.053,1386.813c-2.363-6.72-5.167-14.988-8.67-23.592.915-6.518,2.889-12.219,6.207-14.518C1210.591,1348.7,1218.642,1373.645,1213.053,1386.813Z" transform="translate(-1138.048 -1270.283)"/><path class="c" d="M1144.756,1299.112c-1.312,9.836-3.159,41.576-12.2,56.721-2.914,4.883,7.341,7.62,7.4,7.606,1.375-.36,3.666-2.552,4.722-3.5,7.337-6.612,22.231-25.336,22.231-40.347,0-7.319-8.589-20.71-13.912-24.263A5.353,5.353,0,0,0,1144.756,1299.112Z" transform="translate(-1094.367 -1237.516)"/><g transform="translate(0 28.68)"><path class="h" d="M1043.141,1225.541l22.312-2.37a1.441,1.441,0,0,1,1.5.92l7.983,20.976a1.44,1.44,0,0,1-1.288,1.951l-22.14.893a1.44,1.44,0,0,1-1.387-.884l-8.155-19.5A1.44,1.44,0,0,1,1043.141,1225.541Z" transform="translate(-1039.913 -1223.164)"/><path class="f" d="M1038.249,1226.053l22.312-2.37a1.441,1.441,0,0,1,1.5.92l7.983,20.977a1.44,1.44,0,0,1-1.288,1.951l-22.14.893a1.441,1.441,0,0,1-1.387-.884l-8.155-19.5A1.44,1.44,0,0,1,1038.249,1226.053Z" transform="translate(-1036.96 -1223.472)"/><path class="h" d="M1071.294,1252.331a.918.918,0,0,1,.862-1.356,2.145,2.145,0,0,1,1.849,1.356.917.917,0,0,1-.862,1.355A2.145,2.145,0,0,1,1071.294,1252.331Z" transform="translate(-1057.638 -1239.956)"/><path class="h" d="M1041.833,1233.666a.451.451,0,0,1,.424-.666,1.054,1.054,0,0,1,.909.666.451.451,0,0,1-.424.666A1.055,1.055,0,0,1,1041.833,1233.666Z" transform="translate(-1039.876 -1229.102)"/></g><path class="e" d="M1155.776,1250.562s-30.923,11.388-35.569,11.155c-3-.151-27.966-8.926-27.966-8.926s-1.852-2.849-3.865-3.443c0,0-3.549-1.628-4.563-1.932s-.812,0-.507.966a3.5,3.5,0,0,0,1.233,1.38c-1.705.469-3.39,1.1-4.175,1.255-1.319.254-5.072,1.471-3.956,3.3s6.288,2.231,8.52,1.826a10.339,10.339,0,0,1,5.071.892s24.3,15.617,30.976,15.539c13.187-.152,35.438-8.247,37.949-9.838S1163.074,1252.173,1155.776,1250.562Z" transform="translate(-1060.655 -1209.059)"/><path class="e" d="M1045.885,1250.865s2.237-3.539,2.97-3.684c2.232-.441,2.232,2.5,1.759,4.394-.508,2.034-2.227,3.953-2.7,3.786S1045.358,1252.735,1045.885,1250.865Z" transform="translate(-1042.297 -1208.959)"/><path class="e" d="M1045.718,1258.338a5.924,5.924,0,0,0,3.055,6.042Z" transform="translate(-1042.215 -1215.722)"/><path class="j" d="M1208.939,1220.838s1.329-.525,5.07-.222c0,0-.2,1.459-2.957,1.6A2.2,2.2,0,0,1,1208.939,1220.838Z" transform="translate(-1140.799 -1192.889)"/><path class="f" d="M1236.825,1260.05a16.989,16.989,0,0,0,12.264,10.748s15.686-4.832,7.875-15.518C1256.965,1255.28,1249.243,1249.543,1236.825,1260.05Z" transform="translate(-1157.636 -1212.932)"/></g><g transform="translate(124.517 30.644)"><g transform="translate(24.965)"><path class="k" d="M1211.06,865.351c0-.885.02-1.789.04-2.674a73.769,73.769,0,0,1,3.342-19.344c-1.651.059-3.244.157-4.777.255a75.267,75.267,0,0,0-2.91,16.356c-.118,1.651-.177,3.3-.2,4.974v.433c0,1.671.059,3.342.157,4.993,1.513.708,3.066,1.376,4.7,2.045-.157-1.573-.275-3.165-.315-4.757C1211.08,866.864,1211.06,866.118,1211.06,865.351Zm144.3-30.137a77.556,77.556,0,0,0-101.5-41.225c-1.14.491-2.28,1-3.381,1.533-1.829.885-3.637,1.828-5.367,2.85a76.143,76.143,0,0,0-15.865,12.228c-1,.983-1.966,2.005-2.909,3.067-1.179,1.3-2.3,2.654-3.381,4.03a77.879,77.879,0,0,0-4.8,6.861c-.826,1.317-1.592,2.674-2.34,4.03-1.16,2.143-2.2,4.345-3.165,6.625-.727,1.71-1.376,3.421-1.966,5.171-.373,1.061-.708,2.123-1.022,3.2a75.267,75.267,0,0,0-2.91,16.356c-.118,1.651-.177,3.3-.2,4.974v.433c0,1.671.059,3.342.157,4.993.078,1.357.216,2.713.373,4.07a75.715,75.715,0,0,0,5.564,21.075,77.46,77.46,0,0,0,142.39.727c.1-.236.216-.491.315-.727.433-1.022.845-2.045,1.219-3.067a77.581,77.581,0,0,0-1.219-57.208Zm-4.089,58.427c-.019.039-.019.059-.039.1-.491,1.14-1,2.28-1.553,3.4a73,73,0,0,1-132.895-3.4,71.694,71.694,0,0,1-4.875-17.379c-.217-1.317-.374-2.634-.492-3.971-.157-1.573-.275-3.165-.315-4.757-.02-.767-.04-1.514-.04-2.281,0-.885.02-1.789.04-2.674a73.769,73.769,0,0,1,3.342-19.344c.334-1.062.688-2.1,1.081-3.146.393-1.082.806-2.162,1.258-3.224.649-1.494,1.317-2.969,2.045-4.4.688-1.376,1.415-2.713,2.182-4.03a73.207,73.207,0,0,1,7.353-10.36c1.139-1.337,2.319-2.634,3.558-3.892l.511-.511a72.968,72.968,0,0,1,18.794-13.6c1.435-.727,2.89-1.4,4.384-2.025.393-.177.806-.334,1.2-.491a73,73,0,0,1,94.462,95.995Z" transform="translate(-1206.559 -787.914)"/></g><g transform="translate(0 52.273)"><path class="k" d="M1331.724,960.62l-6-.138c1.926,2.5,2.359,4.8,1.159,6.744-1.2,1.985-4.069,3.617-8.355,4.856a48.735,48.735,0,0,1-5.308,1.219,119.452,119.452,0,0,1-19.443,1.573c-19.345.236-43.368-2.4-67.627-7.372a325.84,325.84,0,0,1-44.076-12.071c-1.926-.688-3.794-1.4-5.583-2.1-1.061-.413-2.1-.845-3.126-1.278-1.632-.668-3.185-1.337-4.7-2.045-1.062-.471-2.084-.963-3.087-1.454-13.938-6.8-20.307-13.368-17.457-18.027,2.3-3.775,10.675-6.33,23.493-7.274,1.533-.1,3.126-.2,4.777-.255.334-1.062.688-2.1,1.081-3.146-1.671.039-3.283.118-4.836.2-16.16.963-24.81,3.807-27.955,8.958-3.657,6,1.337,14.043,17.32,21.867,2.2,1.081,4.561,2.143,7.038,3.2,1.553.649,3.165,1.3,4.817,1.946l2.3.885c1.887.708,3.813,1.415,5.8,2.1a343.757,343.757,0,0,0,42.424,11.4c21.723,4.443,43.309,7.077,61.769,7.509,2.713.079,5.347.079,7.9.059a140.553,140.553,0,0,0,17.575-1.179c1.907-.256,3.7-.57,5.367-.924,7.883-1.632,13.073-4.187,15.137-7.569C1333.572,965.967,1333.395,963.372,1331.724,960.62Z" transform="translate(-1143.55 -919.847)"/></g><g transform="translate(25.481 3.697)"><path class="k" d="M1337.462,884.676c-.076.141-.157.279-.242.413-2.372,3.765-7.671,5.709-15.113,5.708a61.371,61.371,0,0,1-12.062-1.348c-14.64-2.969-31.947-10.429-48.731-21.006-16.5-10.4-30.5-22.544-39.514-34.28-.157-.2-.311-.408-.465-.61q-1.284-1.7-2.394-3.352c-6.577-9.764-8.554-18.043-5.4-23.042,2.372-3.765,7.671-5.707,15.112-5.707a61.354,61.354,0,0,1,12.063,1.348q2.535.513,5.173,1.208,3,.783,6.115,1.794,2.157-1.089,4.4-2.034c.4-.168.792-.332,1.191-.491q-3.212-1.164-6.337-2.116c-3.331-1.016-6.575-1.85-9.705-2.484-15.8-3.206-27.012-.99-31.567,6.24-4.335,6.878-1.974,17.231,6.631,29.306q.658.925,1.365,1.863.791,1.05,1.635,2.1c9.328,11.66,23.234,23.59,39.461,33.814,17.2,10.839,35.01,18.5,50.138,21.569A65.356,65.356,0,0,0,1322.1,895c9.023,0,15.487-2.6,18.679-7.673a13.249,13.249,0,0,0,1.284-2.655Z" transform="translate(-1207.861 -797.244)"/></g><g transform="translate(64.998 5.045)"><path class="k" d="M1317.679,944.028a7.685,7.685,0,0,1-2.627-.452c-13.285-4.819-7.142-44.122,5.383-78.656,11.584-31.939,30.3-64.272,43.663-64.272a7.684,7.684,0,0,1,2.627.453c7.566,2.744,8.027,16.283,7.081,27.157-1.263,14.533-5.69,32.822-12.464,51.5C1349.759,911.7,1331.041,944.028,1317.679,944.028ZM1364.1,804.751c-8.405,0-26.014,23.539-39.807,61.568-6.655,18.35-11,36.268-12.233,50.455-1.327,15.261,1.4,21.859,4.393,22.945a3.541,3.541,0,0,0,1.229.207c8.405,0,26.014-23.539,39.807-61.568,6.655-18.35,11-36.268,12.233-50.455,1.327-15.262-1.4-21.859-4.393-22.945A3.547,3.547,0,0,0,1364.1,804.751Z" transform="translate(-1307.599 -800.648)"/></g><g transform="translate(55.334 15.641)"><path class="k" d="M1382.2,875.111a179.276,179.276,0,0,1-40.391-4.208c-14.437-3.352-26.85-8.7-36.894-15.9-17.286-12.385-21.534-25.85-21.706-26.417l3.924-1.2c.039.128,4.146,12.912,20.457,24.484,15.159,10.755,44.237,22.636,96.683,18.154l.349,4.088Q1392.98,875.111,1382.2,875.111Z" transform="translate(-1283.206 -827.391)"/></g><g transform="translate(29.955 100.467)"><path class="k" d="M1328.97,1084.953a203.508,203.508,0,0,0-75.753-35.184c-20.233-4.605-33.78-4.172-33.914-4.166l-.15-4.1c.571-.022,14.223-.458,34.975,4.266a207.638,207.638,0,0,1,77.292,35.894Z" transform="translate(-1219.153 -1041.483)"/></g></g><g transform="translate(512.242 311.723)"><path class="c" d="M2646.189,1512.538A16.195,16.195,0,0,1,2630,1528.731H2498.078v-31.4h132.907a15.182,15.182,0,0,1,15.2,15.208Z" transform="translate(-2349.124 -1497.33)"/><path class="l" d="M2307.292,1512.855a15.825,15.825,0,0,1-4.6,11.178l-.049.049a15.824,15.824,0,0,1-11.224,4.649h-149.88v-31.4h150.232a15.526,15.526,0,0,1,15.521,15.525Z" transform="translate(-2133.849 -1497.33)"/><path class="i" d="M2308.031,1567.074a2.348,2.348,0,0,1-2.347,2.351h-181.2a2.349,2.349,0,1,1,0-4.7h181.2A2.348,2.348,0,0,1,2308.031,1567.074Z" transform="translate(-2122.131 -1538.024)"/><path class="i" d="M2308.031,1499.677a2.35,2.35,0,0,1-2.347,2.351h-181.2a2.349,2.349,0,1,1,0-4.7h181.2A2.348,2.348,0,0,1,2308.031,1499.677Z" transform="translate(-2122.131 -1497.33)"/><path class="m" d="M2141.542,1536.957l20.1.527-20.1.318Z" transform="translate(-2133.851 -1521.256)"/><path class="m" d="M2141.542,1549.391l47.809.528-47.809.318Z" transform="translate(-2133.851 -1528.764)"/><path class="i" d="M2633.433,1497.525l-43.374,31.206h-91.981v-31.4h132.907A15.348,15.348,0,0,1,2633.433,1497.525Z" transform="translate(-2349.124 -1497.33)"/></g><g transform="translate(79.528 306.201)"><path class="n" d="M1389.211,1520.317h-87.863V1483.4h89.024a17.88,17.88,0,0,1,17.881,17.88h0A19.042,19.042,0,0,1,1389.211,1520.317Z" transform="translate(-1193.838 -1483.395)"/><path class="l" d="M0,0H101.383a18.254,18.254,0,0,1,18.254,18.254v0a18.668,18.668,0,0,1-18.668,18.668H0a0,0,0,0,1,0,0V0A0,0,0,0,1,0,0Z" transform="translate(5.55)"/><path class="n" d="M1161.419,1568.167H1032.764a2.761,2.761,0,0,1-2.761-2.761h0a2.761,2.761,0,0,1,2.761-2.76H1161.42a2.761,2.761,0,0,1,2.761,2.76h0A2.761,2.761,0,0,1,1161.419,1568.167Z" transform="translate(-1030.003 -1531.245)"/><path class="n" d="M1161.42,1488.917H1032.764a2.761,2.761,0,0,1-2.761-2.761h0a2.761,2.761,0,0,1,2.761-2.76H1161.42a2.761,2.761,0,0,1,2.761,2.76h0A2.761,2.761,0,0,1,1161.42,1488.917Z" transform="translate(-1030.003 -1483.395)"/><path class="m" d="M1044.01,1529.988l14.5.621-14.5.374Z" transform="translate(-1038.46 -1511.527)"/><path class="m" d="M1044.01,1544.609l34.507.621-34.507.374Z" transform="translate(-1038.46 -1520.355)"/></g><g transform="translate(182.643 86.1)"><path class="o" d="M1638.679,1145.513l-13.469,160.142s-1.411,9.707,5.81,9.725c11.872.028,59.093,0,59.093,0s-8.936-2.021-8.828-6.567c.128-5.36,15.742-164.815,15.742-164.815Z" transform="translate(-1492.429 -1058.37)"/><path class="p" d="M1699.858,1308.047c-2.335.007-47.436.148-59,0-5.039-.063-5.922-4.48-5.964-7.339a14.365,14.365,0,0,1,.153-2.384l.35-4.162.893-10.609.788-9.373,1.014-12.044.853-10.166,9.57-113.792,58.349-1.514s-6.576,66.731-11.228,115.306c-.519,5.412-1.013,10.6-1.47,15.446q-.222,2.32-.429,4.531c-.432,4.6-.826,8.816-1.168,12.543-.181,1.964-.348,3.789-.5,5.461-.593,6.551-.941,10.734-.946,11.53a6.716,6.716,0,0,0,.114,1.3C1692.2,1307.879,1698.982,1308.047,1699.858,1308.047Z" transform="translate(-1498.344 -1053.942)"/><path class="q" d="M1301.73,927.881l32.807,131.777,4.492,18.047,15.28,61.378H1638.18l-56.319-211.2Z" transform="translate(-1297.183 -927.881)"/><path class="p" d="M1294.8,927.881l-4.547,1.516,51.08,214.272,6.045-4.584Z" transform="translate(-1290.254 -927.881)"/><path class="o" d="M1419.176,1465.521H1701.3l7.791-4.584h-283.87Z" transform="translate(-1368.095 -1249.734)"/><rect class="q" width="61.084" height="2.903" transform="translate(211.239 257.071) rotate(180)"/><path class="q" d="M1623.736,1100.167l-46.062-169.493h-277.09v-2.792h280.585l45.908,171.909Z" transform="translate(-1296.491 -927.881)"/><path class="o" d="M1696.184,1472.5l-.315,2.219-57.447,11.606.789-9.373.376-4.452Z" transform="translate(-1500.474 -1256.718)"/><path class="r" d="M1699.861,1541.64c-2.335.007-47.436.148-59,0-5.039-.063-5.922-4.48-5.964-7.34l57.175-10.757c-.594,6.551-.941,10.734-.946,11.529a6.7,6.7,0,0,0,.114,1.3C1692.2,1541.472,1698.985,1541.64,1699.861,1541.64Z" transform="translate(-1498.347 -1287.535)"/><path class="r" d="M1535.848,1324.646l-124.7,42.756-15.28-61.379Z" transform="translate(-1354.022 -1156.199)"/><path class="j" d="M1301.729,927.881h280.131l45.452,169.74h-284.77Z" transform="translate(-1297.183 -927.881)"/><path class="o" d="M1788.468,1398.959a9.6,9.6,0,0,0-9-7.537,6.032,6.032,0,0,0-6.072,7.537,9.6,9.6,0,0,0,9,7.538A6.032,6.032,0,0,0,1788.468,1398.959Z" transform="translate(-1581.882 -1207.761)"/><path class="b" d="M1631.784,1104.122H1369.5l-29.7-118.33-2.277-9.074-1.943-7.74-4.555-18.149h258.508l5,18.149,2.134,7.74,2.5,9.074Z" transform="translate(-1314.866 -941.737)"/><path class="s" d="M1594.527,968.978H1335.572l-4.555-18.149h258.508Z" transform="translate(-1314.866 -941.737)"/><g transform="translate(26.775 15.026)"><path class="b" d="M1357.9,968.073a1.714,1.714,0,0,1,1.7-2.269,3.1,3.1,0,0,1,2.834,2.269,1.714,1.714,0,0,1-1.7,2.269A3.1,3.1,0,0,1,1357.9,968.073Z" transform="translate(-1357.831 -965.804)"/><path class="b" d="M1376.926,968.073a1.714,1.714,0,0,1,1.7-2.269,3.1,3.1,0,0,1,2.834,2.269,1.714,1.714,0,0,1-1.7,2.269A3.1,3.1,0,0,1,1376.926,968.073Z" transform="translate(-1369.318 -965.804)"/><path class="b" d="M1397.414,968.073a1.714,1.714,0,0,1,1.7-2.269,3.1,3.1,0,0,1,2.835,2.269,1.714,1.714,0,0,1-1.7,2.269A3.1,3.1,0,0,1,1397.414,968.073Z" transform="translate(-1381.688 -965.804)"/></g></g><g transform="translate(242.91 220.93)"><path class="j" d="M1442.361,1277.66a9.8,9.8,0,1,1,9.791,9.48A9.64,9.64,0,0,1,1442.361,1277.66Z" transform="translate(-1442.361 -1268.179)"/><path class="b" d="M1462.284,1277.588l5.625,4.864a1.047,1.047,0,0,1-.01,1.6l-5.529,4.665a1.108,1.108,0,0,1-1.829-.795l-.1-9.529A1.108,1.108,0,0,1,1462.284,1277.588Z" transform="translate(-1453.28 -1273.695)"/><path class="s" d="M1714.292,1292.15a1.8,1.8,0,0,1-1.787,1.787H1512.7a1.787,1.787,0,0,1,0-3.573h199.8A1.793,1.793,0,0,1,1714.292,1292.15Z" transform="translate(-1483.755 -1281.573)"/><path class="j" d="M1534.947,1290.363v3.573H1512.7a1.787,1.787,0,0,1,0-3.573Z" transform="translate(-1483.755 -1281.573)"/></g><path class="s" d="M1658.393,1112.958H1484.7l-19.672-71.094-1.508-5.45-1.285-4.649-3.019-10.9h171.193l3.312,10.9,1.414,4.649,1.658,5.45Z" transform="translate(-1209.628 -897.921)"/><g transform="translate(356.721 132.103)"><path class="b" d="M1795.1,1074.269h-57.108l-6.468-23.375-.5-1.792-.423-1.528-.993-3.585H1785.9l1.088,3.585.465,1.528.545,1.792Z" transform="translate(-1729.61 -1043.988)"/><g transform="translate(6.194 3.419)"><path class="t" d="M1775.468,1089.791h-19.8l-2.243-8.1-.172-.621-.147-.53-.344-1.243h19.516l.378,1.243.161.53.189.621Z" transform="translate(-1749.783 -1068.723)"/><path class="t" d="M1839.092,1089.791h-19.8l-2.243-8.1-.172-.621-.147-.53-.344-1.243H1835.9l.378,1.243.161.53.189.621Z" transform="translate(-1788.199 -1068.723)"/><path class="s" d="M1781.949,1053.648H1745.76a.517.517,0,0,1-.516-.516h0a.517.517,0,0,1,.516-.516h36.189a.517.517,0,0,1,.515.516h0A.517.517,0,0,1,1781.949,1053.648Z" transform="translate(-1745.244 -1052.617)"/><path class="s" d="M1785.333,1060.675h-36.19a.517.517,0,0,1-.515-.515h0a.517.517,0,0,1,.515-.516h36.19a.517.517,0,0,1,.515.516h0A.517.517,0,0,1,1785.333,1060.675Z" transform="translate(-1747.287 -1056.86)"/></g></g><path class="s" d="M1794.086,1070.685h-40.744a.582.582,0,0,1-.581-.58h0a.583.583,0,0,1,.581-.58h40.744a.582.582,0,0,1,.581.58h0A.582.582,0,0,1,1794.086,1070.685Z" transform="translate(-1386.867 -927.303)"/><g transform="translate(367.393 168.655)"><path class="b" d="M1822.031,1166.521h-57.108l-6.468-23.375-.5-1.792-.422-1.528-.993-3.585h56.286l1.089,3.585.465,1.528.545,1.792Z" transform="translate(-1756.544 -1136.241)"/><g transform="translate(6.194 3.419)"><path class="t" d="M1802.4,1182.043h-19.8l-2.243-8.1-.172-.621-.147-.53-.344-1.243h19.516l.378,1.243.161.53.189.621Z" transform="translate(-1776.716 -1160.975)"/><path class="t" d="M1866.026,1182.043h-19.8l-2.243-8.1-.172-.621-.147-.53-.344-1.243h19.516l.378,1.243.161.53.189.621Z" transform="translate(-1815.132 -1160.975)"/><path class="s" d="M1808.883,1145.9h-36.189a.517.517,0,0,1-.516-.516h0a.517.517,0,0,1,.516-.516h36.189a.517.517,0,0,1,.516.516h0A.517.517,0,0,1,1808.883,1145.9Z" transform="translate(-1772.178 -1144.87)"/><path class="s" d="M1812.265,1152.928h-36.19a.517.517,0,0,1-.515-.516h0a.517.517,0,0,1,.515-.515h36.19a.516.516,0,0,1,.516.515h0A.517.517,0,0,1,1812.265,1152.928Z" transform="translate(-1774.22 -1149.113)"/><path class="s" d="M1814.737,1159.953h-36.19a.517.517,0,0,1-.516-.515h0a.518.518,0,0,1,.516-.516h36.19a.517.517,0,0,1,.516.516h0A.517.517,0,0,1,1814.737,1159.953Z" transform="translate(-1775.713 -1153.355)"/></g></g><g transform="translate(107.445 323.337)"><path class="c" d="M1123.595,1526.643s-3.155,1.515-4.2,4a4.08,4.08,0,0,0-.327,1.393c-.174,3.308,0,10.8,0,10.8l-9.315-3.744-9.291,3.744v-10.148a6.475,6.475,0,0,1,2.277-5.008,4.075,4.075,0,0,1,2.573-1.038Z" transform="translate(-1100.461 -1526.643)"/><path class="i" d="M1124,1526.643s-3.155,1.515-4.2,4l-18.668.149a5.549,5.549,0,0,1,4.585-4.153Z" transform="translate(-1100.866 -1526.643)"/></g><g transform="translate(564.608 264.228)"><g transform="translate(0)"><path class="f" d="M0,0H107.453A24.637,24.637,0,0,1,132.09,24.637v0a23.135,23.135,0,0,1-23.135,23.135H0a0,0,0,0,1,0,0V0A0,0,0,0,1,0,0Z" transform="translate(132.09 47.772) rotate(-180)"/><path class="l" d="M2556.707,1425.231h123.668v-47.772h-124.2a23.618,23.618,0,0,0-23.618,23.618h0A24.154,24.154,0,0,0,2556.707,1425.231Z" transform="translate(-2422.304 -1377.459)"/><path class="f" d="M2508.089,1487.143h158.642a3.572,3.572,0,0,0,3.573-3.572h0a3.572,3.572,0,0,0-3.573-3.572H2508.089a3.572,3.572,0,0,0-3.572,3.572h0A3.572,3.572,0,0,0,2508.089,1487.143Z" transform="translate(-2405.377 -1439.371)"/><path class="f" d="M2508.089,1384.6h158.642a3.572,3.572,0,0,0,3.573-3.572h0a3.572,3.572,0,0,0-3.573-3.572H2508.089a3.572,3.572,0,0,0-3.572,3.572h0A3.572,3.572,0,0,0,2508.089,1384.6Z" transform="translate(-2405.377 -1377.459)"/><path class="m" d="M2878.329,1437.744l-17.922.8,17.922.484Z" transform="translate(-2620.259 -1413.859)"/><path class="m" d="M2840.666,1410l-42.637.8,42.637.484Z" transform="translate(-2582.596 -1397.104)"/></g><g transform="translate(215.873 13.535)"><path class="f" d="M2799.138,1411.62a8.956,8.956,0,0,1,3.745,4,4.491,4.491,0,0,1,.292,1.393c.156,3.308,0,10.8,0,10.8l8.308-3.744,8.286,3.744v-10.148a6.829,6.829,0,0,0-2.031-5.007,3.432,3.432,0,0,0-2.3-1.038Z" transform="translate(-2799.138 -1411.62)"/><path class="u" d="M2799.138,1411.62a8.956,8.956,0,0,1,3.745,4l16.648.148s-.653-3.565-4.089-4.153Z" transform="translate(-2799.138 -1411.62)"/></g></g><g transform="translate(510.796 122.939)"><path class="v" d="M2183.068,1242.709s-5.933,3.374-7.594,3.373-8.181-1.26-10-.332-5.107,4.665-5.725,5.886c-1.11,2.195,4.469,1.225,7.105-.645a1.665,1.665,0,0,1,1.318-.271c1.365.3,4.2.813,5.572.306,1.842-.682,11.546-1.439,11.546-1.439Z" transform="translate(-2143.312 -1154.809)"/><path class="w" d="M2163.319,1545.223s-.639,10.3-2.633,10.452c-.265.02-10.111.02-10.111.02l-12.569-.073s.083-3.029,3.756-3.669,9.823-3.222,12.049-8.078C2156.154,1538.766,2163.319,1545.223,2163.319,1545.223Z" transform="translate(-2130.271 -1335.462)"/><path class="x" d="M2254.4,1117.427s-6.152,43.718-16.337,47.633c-5.025,1.932-27.236,6.313-33.806,6.752,0,0-1.609-1.306-1.217-6.621,0,0,23.27-8.543,26.576-13.189,4.92-6.915-3.054-28.248,3.119-34.742S2249.308,1107.974,2254.4,1117.427Z" transform="translate(-2169.5 -1075.48)"/><path class="k" d="M2233.237,1320.073a76.659,76.659,0,0,1-6.009,8.6c-6.611,8.346-13.807,15.227-15.061,21.732a29.456,29.456,0,0,1-1.162,4.163c-.524,1.49-1.171,3.057-1.918,4.676a144.045,144.045,0,0,1-11.189,19.129c-7.241,10.73-14.05,19.683-14.05,19.683l-12.487-.532c.5-1.251,5.947-16.067,13.233-34.171,2.958-7.35,6.1-15.168,9.139-22.707q.608-1.51,1.21-3c.928-2.308,1.841-4.578,2.733-6.79,6.841-17,12.29-30.538,12.29-30.538s27.342-10.357,30.182-3.646C2242.488,1302.2,2240.58,1307.622,2233.237,1320.073Z" transform="translate(-2150.409 -1186.021)"/><path class="w" d="M2264.907,1475.978s8.686,5.581,7.843,7.394c-.112.241-4.912,8.838-4.912,8.838l-6.19,10.939s-2.6-1.548-1.372-5.068,1.975-10.148-1.179-14.458C2255.776,1479.088,2264.907,1475.978,2264.907,1475.978Z" transform="translate(-2202.944 -1295.654)"/><path class="y" d="M2194.251,1378.136s5.428-4.787,6.385-8.3c0,0-22.367-26.8-27.219-32.805-.222-.275-.166-.578.128-.91,3.663-4.13,44.359-12.526,49.678-20.8a25.632,25.632,0,0,0,3.437-7.923,18.732,18.732,0,0,0,.253-8.537l-40.643-1.176s-33.84,21.071-37.672,35.437S2194.251,1378.136,2194.251,1378.136Z" transform="translate(-2136.537 -1188.002)"/><path class="z" d="M2211.887,1338.943c3.663-4.13,44.359-12.526,49.678-20.8a25.635,25.635,0,0,0,3.436-7.923v-5.144l-17.274-2.717s-4.9,15.073-19.407,20.726C2214.732,1328.378,2212.159,1337.773,2211.887,1338.943Z" transform="translate(-2174.879 -1190.824)"/><path class="v" d="M2272.069,1090.865c8.222,2.126,21.854-5.492,21.854-5.492a20.173,20.173,0,0,1-7.255-11.371c-.1-.394-.188-.8-.27-1.212-.861-.183-2.485-.528-4.222-.895l-6.28,5.626a54.015,54.015,0,0,0,.928,6.351q.2,1.051.473,2.254A19.369,19.369,0,0,0,2272.069,1090.865Z" transform="translate(-2211.216 -1051.674)"/><path class="o" d="M2284.759,1140.525c-1.177,15.84.372,39.931-.964,44.1-1.153,3.6-14.291,1.46-19.535.257-1.941-.445-4.292-1.08-6.72-1.831-6.773-2.1-14.153-5.092-14.945-7.315a1.849,1.849,0,0,1-.073-.256,2.022,2.022,0,0,1,.014-.931c.264-1.133,1.281-2.36,1.4-5.165.134-3.133.114-6.822.231-10.788.006-.447.012-.934.061-1.379l0-.162c0-.085,0-.169.007-.254.113-4.424.344-9.075.613-13.688.17-2.9.367-5.766.595-8.514a113.964,113.964,0,0,1,2.44-17.4,27.931,27.931,0,0,1,8.974-13.852l2.5-2.144a14.455,14.455,0,0,0,9.069-1.208c3.227-1.533,4.343-2.631,4.9-2.217C2280.788,1103.536,2286.15,1121.161,2284.759,1140.525Z" transform="translate(-2193.347 -1067.252)"/><path class="x" d="M2257.613,1219.968c-6.773-2.1-14.153-5.092-14.945-7.315a1.883,1.883,0,0,1-.073-.256c0-.311.008-.621.014-.932.264-1.133,1.281-2.359,1.4-5.165.134-3.133.114-6.822.231-10.788.007-.447.012-.934.061-1.378v-.162c0-.085,0-.169.007-.254l27.38-34.883S2290.1,1197.16,2257.613,1219.968Z" transform="translate(-2193.42 -1104.166)"/><path class="aa" d="M2281.729,1077.522a54.015,54.015,0,0,0,.928,6.351c6.133-1.982,8.914-7.521,9.843-9.871-.1-.394-.188-.8-.27-1.212-.861-.183-2.485-.528-4.222-.895Z" transform="translate(-2217.048 -1051.674)"/><path class="v" d="M2268.35,1058.79s13.373-2.232,11.856-10.539-.814-14.19-9.418-13.117-9.678,4.547-9.846,7.443S2264.832,1059.157,2268.35,1058.79Z" transform="translate(-2204.494 -1029.401)"/><g transform="translate(0 69.585)"><rect class="ab" width="1.24" height="32.472" transform="translate(0 0.383) rotate(-17.994)"/><rect class="ab" width="34.075" height="2.039" transform="matrix(1, -0.021, 0.021, 1, 9.989, 29.228)"/></g><path class="v" d="M2191.9,1268.223s-10.947,2.886-15.051,2.583-7.519-2.255-8.035-3.274-1.6-2.827,1.193-2.493,6.609.928,6.728.391-2.278-.485-2.278-.485-.725-1.054.188-1.092,3.573-.76,4.561-.266,1.9,2.318,2.623,2.243,9.159-3.8,9.159-3.8Z" transform="translate(-2148.48 -1166.474)"/><path class="o" d="M2256.146,1123.5s-1.294,44.129-10.986,49.145c-4.782,2.474-26.375,9.276-32.856,10.438,0,0-1.744-1.12-1.94-6.446,0,0,22.187-11.056,24.96-16.039,4.128-7.415-6.15-27.739-.73-34.875S2250.042,1114.664,2256.146,1123.5Z" transform="translate(-2173.959 -1079.757)"/><path class="ac" d="M2272.3,1043.186a6.326,6.326,0,0,0-1.606-4.483s.613-2.857-.518-3.328-1.366,1.931-1.884,1.554a11.541,11.541,0,0,1-3.816-4.8c-.989-2.638-10.042.557-11.1,1.032s-4.447-1.268-5.106-2.681a19.831,19.831,0,0,0,2.732-2.638c.848-1.13,6.783-8.762,15.073-6.594s9.421,6.123,8.95,9.515S2275.7,1042.048,2272.3,1043.186Z" transform="translate(-2196.848 -1020.858)"/></g><g transform="translate(628.926 138.208)"><g transform="translate(0)"><path class="ad" d="M2523.606,1169.647s4.245,6.282,6.666,19.488c2.121,11.566,3.98,15.836,7.043,18.208s20.125,9.375,20.125,9.375l-1.276,2.989s-25.008-3.405-27.817-7.585-13.518-28.874-12.687-34.562S2523.606,1169.647,2523.606,1169.647Z" transform="translate(-2476.394 -1125.964)"/><g transform="translate(107.105 164.36)"><path class="e" d="M2688.3,1491.505c-.225,2.439,3.17,3.032,7.1,3.228s2.745,1,8.134,1.978,7.549-.5,7.94-1.227c.347-.646-2.158-1.657-4.829-2.8-.336-.142-.673-.289-1.009-.436-3.006-1.321-4.692-4.017-7.035-6.516-2.219-2.367-4.327-9.946-4.327-9.946l-7.324-1.564s2.057,6.821,2.77,9.733a9.019,9.019,0,0,1-.749,5.085A9.579,9.579,0,0,0,2688.3,1491.505Z" transform="translate(-2686.951 -1474.223)"/><path class="ae" d="M2697.438,1517.315c3.932.2,2.745,1,8.134,1.978s7.549-.5,7.939-1.227c.347-.646-2.158-1.657-4.829-2.8l-.042.046a15.352,15.352,0,0,1-8.164.1c-3.565-.968-7.012-3.1-9.469-3.787a9.579,9.579,0,0,0-.674,2.464C2690.109,1516.526,2693.5,1517.119,2697.438,1517.315Z" transform="translate(-2688.987 -1496.805)"/></g><path class="w" d="M2491.723,1290.282s48.667-3.663,57.83,2.119,23.857,73.136,23.857,73.136a5.977,5.977,0,0,1-2.932.946c-1.884.2-6.033-.9-6.033-.9s-21.118-30.137-22.605-37.728-1.125-14.367-4.511-14.549-45.611,5.133-52-6.118-1.107-22.39-1.107-22.39Z" transform="translate(-2456.204 -1195.489)"/><g transform="translate(88.482 172.176)"><path class="e" d="M2641.3,1511.233c-.225,2.44,3.17,3.033,7.1,3.228s2.744,1,8.134,1.977,7.549-.5,7.939-1.227c.347-.646-2.158-1.656-4.829-2.8-.335-.142-.673-.29-1.009-.437-3.006-1.322-4.691-4.017-7.035-6.516-2.219-2.367-4.326-9.946-4.326-9.946l-7.324-1.564s2.056,6.822,2.77,9.734a9.014,9.014,0,0,1-.75,5.085A9.585,9.585,0,0,0,2641.3,1511.233Z" transform="translate(-2639.949 -1493.951)"/><path class="ae" d="M2650.437,1537.044c3.933.2,2.744,1,8.134,1.977s7.549-.5,7.939-1.227c.347-.646-2.158-1.656-4.829-2.8l-.041.046a15.352,15.352,0,0,1-8.164.1c-3.565-.968-7.012-3.1-9.469-3.787a9.593,9.593,0,0,0-.674,2.463C2643.108,1536.255,2646.5,1536.848,2650.437,1537.044Z" transform="translate(-2641.986 -1516.533)"/></g><path class="af" d="M2461.247,1306.255s43.233,2.046,52.164,8.181,20.992,74.009,20.992,74.009a5.974,5.974,0,0,1-2.967.831c-1.889.13-5.993-1.138-5.993-1.138s-19.929-30.935-21.119-38.579-.565-14.4-3.943-14.713-45.776,3.354-51.72-8.138S2461.247,1306.255,2461.247,1306.255Z" transform="translate(-2435.259 -1208.447)"/><path class="f" d="M2458.023,1062.067a11.216,11.216,0,0,0-5.978-1.562,2.842,2.842,0,0,1,1.317-.521c-1.026-.223-3.408.651-3.408.651-14.047-6.516-17.729,14.561-17.754,19.514s-.37,10.63-7.862,14.574c-14.741,7.759-3.805,23.749-3.805,23.749.106.073,9.823,12.94,9.823,12.94-.1-4.01,15.721-25.264,25.735-30.924,2.565-3.283,3.8-9.3,3.894-9.775-.724,4.789-1.728,7.435-2.566,8.907C2466.041,1092.683,2463.108,1065.422,2458.023,1062.067Z" transform="translate(-2416.63 -1059.396)"/><path class="e" d="M2477.534,1151.125a48.658,48.658,0,0,1,8.052,0,25.865,25.865,0,0,1,6.988,1.753c3.81,1.593,3.411,8.339-4.585,7.089S2476.973,1153.126,2477.534,1151.125Z" transform="translate(-2453.364 -1114.678)"/><path class="e" d="M2492.9,1140.956c.046.025,1.14,5.8-4.095,5.572-3.437-.152-10.849-4.31-10.194-7.252.311-1.4,2.908-5.028,3.43-13.311l.626.167,10.519,2.822s-.466,3.339-.685,6.5C2492.321,1138.1,2492.314,1140.631,2492.9,1140.956Z" transform="translate(-2454.03 -1099.589)"/><path class="ad" d="M2499.432,1129.208s-.466,3.339-.685,6.5c-5.953-.566-8.743-6.217-9.834-9.32Z" transform="translate(-2460.274 -1099.844)"/><path class="f" d="M2481.306,1090.485s-2.8-5.148-3.265-9.421c-.335-3.051,1.946-14.125,13.071-11.767a15.3,15.3,0,0,1,6.169,2.814c2.328,1.81,5.61,5.6,1.025,15.091l-1.242,3.227Z" transform="translate(-2453.69 -1065.177)"/><path class="e" d="M2499.307,1104.479s-14.128-.708-13.552-9.5-.859-14.8,8.186-14.724,10.577,3.55,11.1,6.531S2503,1104.436,2499.307,1104.479Z" transform="translate(-2458.356 -1071.99)"/><path class="f" d="M2493.623,1077.693s-4.551,10.056-10.583,11.185-8.5-.63-8.5-.63a16.832,16.832,0,0,0,6.154-9.555S2491.035,1072.589,2493.623,1077.693Z" transform="translate(-2451.596 -1069.214)"/><path class="f" d="M2520.145,1080.429s2.732,2.495,3.286,4.781.563,6.915,1.917,6.848c0,0,3.379-6.816.372-11C2522.531,1076.622,2520.145,1080.429,2520.145,1080.429Z" transform="translate(-2479.131 -1071.177)"/><path class="af" d="M2487.284,1210.466c-1.143,1.367-4.713,1.787-8.529,2.415-3,.5-6.156,1.117-8.4,2.434-5.093,2.99-21.733,13.1-26.61,12.637-1.891-.178-1.538-3.788-.392-8.577,1.8-7.564,5.577-18.068,5.577-22.635a132.668,132.668,0,0,1,1.937-15.135c.089-.544.182-1.092.273-1.645,2.191-13.112,5.226-28.573,5.226-28.573s3.384,7.383,9.978,7.383,5.061-5.631,5.061-5.631,6.016.708,7.438,2.239,5.027,8.149,5.743,9.954c0,0,.146,2.3-5.541,3.39a74.648,74.648,0,0,1,1.549,10.39c.122,3.07-2.094,12.678-2.732,18.655-.226,2.117-.257,3.777.087,4.531.44.965,1.863,1.927,3.482,2.87C2484.645,1207.04,2488.641,1208.841,2487.284,1210.466Z" transform="translate(-2432.196 -1114.939)"/><path class="w" d="M2481.431,1242.629c3.649,6.222-9.9,8.093-12.141,9.41-5.093,2.99-20.668,13.832-25.545,13.372-1.891-.178-1.538-3.788-.392-8.577,1.8-7.564,5.577-18.068,5.577-22.635a132.661,132.661,0,0,1,1.937-15.135l5.87-5.637s6.291,16.259,12.287,18.923a50.448,50.448,0,0,0,8.837,2.876c-.226,2.117-.257,3.777.087,4.531C2478.389,1240.724,2479.812,1241.686,2481.431,1242.629Z" transform="translate(-2432.196 -1152.399)"/><g transform="translate(56.605 76.255)"><rect class="h" width="13.616" height="1.609" transform="translate(0 18.589)"/><path class="h" d="M2586.562,1271.832c.133-.532,12.516-19.977,12.516-19.977h27.553l-13.82,19.455Z" transform="translate(-2575.838 -1251.855)"/><path class="f" d="M2589.488,1272.053c.132-.532,12.557-20.2,12.557-20.2H2628.4l-13.147,20.2Z" transform="translate(-2577.605 -1251.855)"/><path class="h" d="M2643.65,1275.335a2.2,2.2,0,0,1-1.918,1.427.983.983,0,0,1-.935-1.427,2.2,2.2,0,0,1,1.918-1.427A.983.983,0,0,1,2643.65,1275.335Z" transform="translate(-2608.534 -1265.17)"/></g><path class="e" d="M2494.108,1209.062c-.773-.332-6.741.754-8.445,1.075-5.4-1.058-23.172-4.61-24.037-5.721-1.02-1.313-3.248-41.3-5.8-41.97,0,0-5.02-3.048-9.873,2.734s3.449,47.118,10.64,49.242c7.987,2.359,31.062-.378,31.062-.378h0c1.9.647,5.209,1.011,6.968,1.6,2.322.774,4.386.129,4.9-.774S2495.011,1209.449,2494.108,1209.062Z" transform="translate(-2433.46 -1121.131)"/><path class="af" d="M2451.466,1151.384s-10.308.93-13.3,4.32-3.869,12.578-3.869,12.578,9.078,7.328,20.015,4.485Z" transform="translate(-2427.296 -1114.937)"/></g></g><path class="d" d="M1619.546,1578.641H830.33a1.115,1.115,0,0,1-1.049-1.164h0a1.115,1.115,0,0,1,1.05-1.165h789.215a1.115,1.115,0,0,1,1.05,1.165h0A1.115,1.115,0,0,1,1619.546,1578.641Z" transform="translate(-789.494 -1233.295)"/><g transform="translate(249.587 122.94)"><g class="ag"><g transform="translate(47.456 5.492)"><path class="e" d="M1730.336,1099.43s.962-3.811,2.569-4.014,4.022-1.219,4.528.063-3.838,7.907-5.568,6.271S1730.336,1099.43,1730.336,1099.43Z" transform="translate(-1670.367 -1071.022)"/><path class="w" d="M1675.391,1425.388a12.986,12.986,0,0,1,2.474,4.415.706.706,0,0,1-.7.958h-7.875a1.605,1.605,0,0,1-1.527-1.457c-.02-1.442.182-3.621,1.4-4.943C1671.11,1422.251,1675.391,1425.388,1675.391,1425.388Z" transform="translate(-1632.592 -1269.541)"/><path class="w" d="M1717.045,1419.206s2.409,7.3,3.849,7.406c.192.014,7.168.014,7.168.014h9a4.377,4.377,0,0,0-3.465-2.651c-2.725-.454-7.572-2.283-10.071-5.724C1720.9,1414.631,1717.045,1419.206,1717.045,1419.206Z" transform="translate(-1662.346 -1265.451)"/><g transform="translate(23.063 70.166)"><path class="ah" d="M1652.98,1250.3c1.4,4.056,2.3,7.258,2.291,8.776-.038,6.791,13.383,37.453,13.383,37.453,4.329,1.835,9.28-.02,9.28-.02-1.469-4.248-9.637-42.27-13.974-65.466-1.823-9.738-3.058-16.552-3.058-16.552l-23.7-2.676S1648.116,1236.211,1652.98,1250.3Z" transform="translate(-1637.2 -1211.813)"/><path class="ah" d="M1637.2,1211.813s10.916,24.4,15.78,38.485l10.98-19.257c-1.823-9.738-3.058-16.552-3.058-16.552Z" transform="translate(-1637.2 -1211.813)"/></g><path class="ah" d="M1637.688,1220.213s6.518,67.746,8.031,80.864a15.1,15.1,0,0,1-8.986-.668s-9.011-31.48-10.029-40.964-11.208-38.8-9.483-41.526S1637.688,1220.213,1637.688,1220.213Z" transform="translate(-1601.955 -1144.844)"/><path class="e" d="M1612.609,1078.421s2.506,6.021,2.6,7.819-5.629,2.776-8.529,1.29-2.44-2.81-2.44-2.81-1.32-6.12-1.1-6.612S1612.609,1078.421,1612.609,1078.421Z" transform="translate(-1593.554 -1060.822)"/><path class="ai" d="M1645.859,1098.829s-10.24,12.732-10.664,14.372c-5.879-6.852-14.924-15.445-15.335-15.779a12.268,12.268,0,0,0-5.34-1.86,46.23,46.23,0,0,0-6.482-.54c-.1-.011-.148-.013-.146,0,.272,1.016-.833,2.9-3.259,3.065-2.88.186-6.938-1.372-7.391-3.065-.023-.085-6.75.339-5.568,12.9a5.107,5.107,0,0,0,.061.542,72.062,72.062,0,0,0,4.487,17c.97,2.608,4.175,21.962,5.128,21.979a16.252,16.252,0,0,0,2.659.948c.953.271,2.2.577,3.736.864a76.581,76.581,0,0,0,14.041,1.151c11.294,0,14.157-3.217,14.157-3.217.607,0-6.282-15.568-9.888-28.941,3.748,2.186,7.73,4.27,8.154,4.528a9.911,9.911,0,0,0,4.143,1.682l.006,0a.979.979,0,0,0,.126,0,1.788,1.788,0,0,0,1.218-.365,8.311,8.311,0,0,0,3.19-3.6c1.553-2.858,3.4-8.643,4.981-12.5.877-2.135,1.553-4.469,2.447-6.4C1650.319,1101.6,1648.137,1099.265,1645.859,1098.829Z" transform="translate(-1586.565 -1071.123)"/><path class="aj" d="M1609.443,1150.016c2.255,9.364-2.036,15.341-5.13,18.2a16.284,16.284,0,0,1-2.658-.948c-.953-.017-4.157-19.371-5.128-21.979a72.032,72.032,0,0,1-4.487-17c.244-.288.39-.441.39-.441S1606.1,1136.131,1609.443,1150.016Z" transform="translate(-1586.87 -1090.952)"/><path class="ak" d="M1612.972,1080.852s-1.443,3.27-3.889,3.3-5.828-3.249-5.828-3.249Z" transform="translate(-1593.642 -1062.575)"/><path class="e" d="M1607.044,1060.573a11.2,11.2,0,0,1-2.805,1.665,3.947,3.947,0,0,1-2.765.058c-1.479-.466-3.724-1.2-4.327-1.51-1.428-.744-1.753-2.252-2.378-4.348a36.445,36.445,0,0,1-1.619-5.859c-.129-1.711.7-2.684,3.66-2.948,5.445-.483,8.142.912,8.74,2.781.16.5.311.98.449,1.433C1607.784,1057.675,1607.877,1059.742,1607.044,1060.573Z" transform="translate(-1587.532 -1042.459)"/><path class="ah" d="M1602.555,1043.365a2.956,2.956,0,0,0-2.848-.818c-1.574.528-1.357,1.994-4.352,1.759s-4.071-1.622-4.412-.928.451,4.793.451,4.793-9.5-13.442,2.452-13.442c0,0,12.114-.744,9.857,12.92Z" transform="translate(-1584.319 -1034.722)"/><path class="e" d="M1688.4,1088.668l-.014.009C1688.4,1088.684,1688.4,1088.668,1688.4,1088.668Z" transform="translate(-1645.043 -1067.294)"/><path class="x" d="M1691.685,1039.631c.04-.223.072-.369.072-.369A.946.946,0,0,0,1691.685,1039.631Z" transform="translate(-1647.034 -1037.463)"/><g transform="translate(61.703 11.804)"><path class="ah" d="M1736.679,1095.944l-1.957-.3,5.493-31.135h0Z" transform="translate(-1734.722 -1064.514)"/></g><path class="e" d="M1732.717,1099.842s1.808,1.793,2.11.811,2.594-2.111,2.763-2.571-2.638-.661-3.048-.672S1732.424,1099.211,1732.717,1099.842Z" transform="translate(-1671.788 -1072.572)"/><path class="af" d="M1616.323,1101.339a18.757,18.757,0,0,1,5.143-.186s.215,2.6-.53,2.813a9.293,9.293,0,0,1-2.635,0C1617.974,1103.931,1616.323,1101.339,1616.323,1101.339Z" transform="translate(-1601.531 -1074.766)"/><path class="af" d="M1621.316,1108.42s8.709,36.582,11.026,38.91a13.947,13.947,0,0,0,4.138,3.057s1.828-2.21,1.8-3.268-14.325-38.7-14.325-38.7Z" transform="translate(-1604.546 -1079.22)"/><path class="e" d="M1651.459,1193.611s5.922,1.919,7.7,1.989,3.878-2.974,3.181-3.871c-.2-.259-2.786.932-3.523.528-1.118-.612-2.55-.145-3.448-.039s-4.342-1.83-4.342-1.83Z" transform="translate(-1622.488 -1128.711)"/><path class="ai" d="M1610.037,1132.789a132.883,132.883,0,0,0-18.5-11.234c.588-5.028.324-13.024-1.87-26.541,0,0-9.338,1.036-10.336,4.3-1.439,4.705,1.948,17.8,4.755,28.28,0,0,.039.025.108.064a3.57,3.57,0,0,0,.9,1.03c3.974,3.194,25.026,9.326,25.026,9.326C1611.647,1135.8,1610.037,1132.789,1610.037,1132.789Z" transform="translate(-1578.99 -1071.126)"/><g transform="translate(18.129 56.508)"><path class="l" d="M1643.374,1185.557l-15.794-4.7-.5,2.262,16.915,4.761Z" transform="translate(-1626.157 -1179.465)"/><path class="m" d="M1676.188,1177.342l-7.987,6.092.623,2.325,9.193-6.271Z" transform="translate(-1650.984 -1177.342)"/><g transform="translate(0 3.122)"><path class="ah" d="M1642.767,1191.185l-18.02-5.5.059-.467,17.781,5.295Z" transform="translate(-1624.747 -1185.221)"/></g><g transform="translate(17.84 1.577)"><path class="ah" d="M1669.953,1188.83l10.2-7.086-.415-.423-9.966,6.84Z" transform="translate(-1669.773 -1181.321)"/></g></g><path class="af" d="M1608.582,1095.667s-4.13-4.287-4.466-4.005-.762,1.228-.563,1.5,5.531,3.275,5.531,3.275Z" transform="translate(-1593.79 -1069.093)"/><path class="af" d="M1628.789,1095.055a34.807,34.807,0,0,1,.964-4.107c.137.164,1.468,1.344,1.516,1.641s-1.661,2.706-2.458,2.891S1628.789,1095.055,1628.789,1095.055Z" transform="translate(-1608.854 -1068.668)"/></g><g transform="translate(890.242 6.837)"><path class="e" d="M3887.557,1112.72s2.287-4.395,4.2-4.628,5.014-1.405,5.2.073-6.867,9.116-8.356,7.23S3887.557,1112.72,3887.557,1112.72Z" transform="translate(-3815.625 -1079.968)"/><path class="ai" d="M3778.738,1107.656s3.051,12.313,7.551,21.518c1.262,2.581,13.475,9.944,14.211,10.479,7.691,5.586,7.538-2.62,7.538-2.62.434-5.415-15.711-26.05-16.25-26.609-1.042-1.086-3.263-1.744-5.582-2.145A50.285,50.285,0,0,0,3778.738,1107.656Z" transform="translate(-3749.958 -1080.103)"/><path class="w" d="M3723.017,1488.535a11.138,11.138,0,0,1,1.488,5.091,1.1,1.1,0,0,1-1.1,1.1h-9.079a1.35,1.35,0,0,1-1.311-1.679,11.188,11.188,0,0,1,3.141-5.7C3719.051,1484.918,3723.017,1488.535,3723.017,1488.535Z" transform="translate(-3710.251 -1308.85)"/><path class="w" d="M3774.578,1481.408s.523,8.418,2.151,8.539c.217.016,8.26.016,8.26.016h10.375a3.546,3.546,0,0,0-3.177-3.056c-3-.523-8.025-2.632-9.843-6.6C3780.433,1476.134,3774.578,1481.408,3774.578,1481.408Z" transform="translate(-3747.446 -1304.135)"/><g transform="translate(16.482 80.897)"><path class="al" d="M3754,1286.664c.363,4.676.41,8.368-.069,10.118-2.142,7.829,3.859,43.182,3.859,43.182,4.424,2.116,10.706-.023,10.706-.023-.382-4.9,1.947-48.736,4.113-75.479.907-11.228,1.588-19.084,1.588-19.084l-26.5-3.085S3752.747,1270.422,3754,1286.664Z" transform="translate(-3747.698 -1242.293)"/><path class="al" d="M3747.7,1242.293s5.049,28.13,6.3,44.371l18.608-22.2c.907-11.228,1.588-19.084,1.588-19.084Z" transform="translate(-3747.698 -1242.293)"/></g><path class="p" d="M3740.888,1251.977s-13.415,78.108-15.722,93.233a16.946,16.946,0,0,1-10.154-.771s-.663-36.3,1.093-47.229-.935-44.734,1.895-47.878S3740.888,1251.977,3740.888,1251.977Z" transform="translate(-3711.406 -1165.081)"/><path class="e" d="M3759.122,1088.5s1.029,6.942.578,9.015-7.348,3.2-10.232,1.487-1.945-3.24-1.945-3.24.368-7.056.773-7.623S3759.122,1088.5,3759.122,1088.5Z" transform="translate(-3731.023 -1068.208)"/><path class="ai" d="M3758.32,1167.783s-4.295,3.709-17.316,3.709a82.311,82.311,0,0,1-15.833-1.327,40.689,40.689,0,0,1-4.041-1,14.264,14.264,0,0,1-2.772-1.094c-1.094-.019,1.19-22.334.878-25.34a75.481,75.481,0,0,1,.078-19.6,5.836,5.836,0,0,1,.1-.625c2.518-14.486,10.406-14.974,10.406-14.876,0,1.952,4.2,3.749,7.575,3.533,2.851-.2,4.705-2.362,4.705-3.533a23.813,23.813,0,0,1,2.362.351c7.2,1.25,11.4,11.949,11.4,26.239C3755.86,1149.685,3759.022,1167.783,3758.32,1167.783Z" transform="translate(-3713.32 -1080.085)"/><path class="aj" d="M3732.667,1171.043c-.292,10.8-7.086,17.688-11.537,20.987a14.264,14.264,0,0,1-2.772-1.094c-1.094-.019,1.19-22.334.878-25.34a75.481,75.481,0,0,1,.078-19.6c.371-.332.585-.508.585-.508S3733.1,1155.035,3732.667,1171.043Z" transform="translate(-3713.32 -1102.946)"/><path class="ak" d="M3760.2,1091.3s-2.675,3.77-5.5,3.8-5.715-3.745-5.715-3.745Z" transform="translate(-3731.99 -1070.229)"/><path class="e" d="M3758.017,1067.92a18.125,18.125,0,0,1-3.749,1.92,4.632,4.632,0,0,1-3.205.068,42.475,42.475,0,0,1-4.523-1.741c-1.417-.859-1.325-2.6-1.4-5.012-.087-2.86-.375-5.106-.056-6.755.38-1.972,1.63-3.094,5.131-3.4,6.427-.558,9.105,1.052,9.217,3.207.029.579.056,1.13.075,1.653C3759.766,1064.58,3759.235,1066.962,3758.017,1067.92Z" transform="translate(-3729.55 -1047.036)"/><path class="ah" d="M3757.194,1048.081a2.7,2.7,0,0,0-3.03-.943c-1.978.609-2.181,2.3-5.562,2.028s-4.192-1.87-4.8-1.07-.96,5.526-.96,5.526-6.8-15.5,6.979-15.5c0,0,14.2-.858,7.373,14.9Z" transform="translate(-3727.272 -1038.116)"/><path class="ai" d="M3722.6,1107.63s-11.087,1.195-13.247,4.958c-3.112,5.425-3.253,20.526-3.253,32.605,0,0,4.708,3.576,7.93-1.708C3717.081,1138.483,3720.333,1129.087,3722.6,1107.63Z" transform="translate(-3706.1 -1080.088)"/><path class="e" d="M3844.77,1100.313l-.018.01C3844.767,1100.331,3844.77,1100.313,3844.77,1100.313Z" transform="translate(-3789.816 -1075.67)"/><path class="x" d="M3863.536,1043.776c.115-.258.2-.426.2-.426A1.381,1.381,0,0,0,3863.536,1043.776Z" transform="translate(-3801.158 -1041.276)"/><g transform="translate(73.479 10.61)"><path class="ah" d="M3893.478,1101.217l-1.925-.324,6.661-36,.664.112Z" transform="translate(-3891.553 -1064.894)"/></g><path class="e" d="M3890.561,1114.285s2.618.785,2.679-.373,2.38-3.585,2.441-4.142-3.246.822-3.724,1.041S3890.038,1113.816,3890.561,1114.285Z" transform="translate(-3817.407 -1081.301)"/><path class="ai" d="M3861.967,1121.935s-1.8-2.694-4.286-3.2a122.309,122.309,0,0,1-11.852,10.8,17.468,17.468,0,0,0-6.591,10.657c-1.251,6.271,1.877,8.09,1.877,8.09s2.49.313,6.451-4.569c2.673-3.295,6.585-9.964,9.6-14.411C3858.84,1126.848,3860.34,1124.156,3861.967,1121.935Z" transform="translate(-3786.309 -1086.795)"/><path class="af" d="M3757.617,1114.922a22.566,22.566,0,0,1,5.988-.215s-.557,3-1.48,3.243a10.647,10.647,0,0,1-3.038,0C3758.721,1117.91,3757.617,1114.922,3757.617,1114.922Z" transform="translate(-3737.205 -1084.284)"/><path class="af" d="M3760.716,1123.086s-1.26,42.177.692,44.861a10.973,10.973,0,0,0,3.827,3.525s2.791-2.548,3.081-3.768-4.562-44.618-4.562-44.618Z" transform="translate(-3738.835 -1089.42)"/><path class="e" d="M3768.994,1221.308s6.235,2.212,8.269,2.293,5.39-3.429,4.864-4.463c-.153-.3-3.5,1.074-4.225.609-1.1-.706-2.9-.168-3.964-.045s-4.44-2.109-4.44-2.109Z" transform="translate(-3744.074 -1146.482)"/><path class="ai" d="M3715.842,1183.814s7.61,3.778,18.571,13.331a6.779,6.779,0,0,1-1.519,6.024s-22.377-7.07-25.972-10.752S3712.486,1183.1,3715.842,1183.814Z" transform="translate(-3706.099 -1126.05)"/><g transform="translate(13.904 65.151)"><path class="l" d="M3761.863,1212.021,3745.1,1206.6l-1.273,2.608,18.031,5.49Z" transform="translate(-3742.786 -1204.998)"/><path class="m" d="M3800.431,1202.55l-11.09,7.024v2.68l12.536-7.23Z" transform="translate(-3770.264 -1202.55)"/><g transform="translate(0 3.599)"><path class="ah" d="M3760.269,1218.51l-19.077-6.338.212-.538,18.865,6.1Z" transform="translate(-3741.192 -1211.634)"/></g><g transform="translate(19.077 1.818)"><path class="ah" d="M3789.341,1215.8l13.951-8.171-.348-.487-13.6,7.886Z" transform="translate(-3789.341 -1207.138)"/></g></g><path class="af" d="M3749.935,1108.382s-3.437-4.943-3.913-4.618-1.258,1.417-1.11,1.726,5.365,3.776,5.365,3.776Z" transform="translate(-3729.523 -1077.744)"/><path class="af" d="M3771.948,1107.677a51.867,51.867,0,0,1,2.381-4.735c.107.189,1.278,1.549,1.241,1.891s-2.751,3.12-3.727,3.333S3771.948,1107.677,3771.948,1107.677Z" transform="translate(-3745.548 -1077.254)"/></g></g></g></g></g></svg>