<svg xmlns="http://www.w3.org/2000/svg" width="1920" height="837.828" viewBox="0 0 1920 837.828"><defs><style>.a{fill:#f1f1fb;opacity:0.73;}</style></defs><path class="a" d="M1848.037,710.615V666.006h-49.081V622.744H1680.581v43.263h-11.549v44.609H1642.09V389.992h-20.7V352.279H1556v37.712h-11.116V336.507H1523.23v53.485h-20.214V633.914h-32.659V591.571h-80.841v42.343h-28.872V541.848H1336.1v92.066h-24.314V198.538H1270.6v-27.98H1142.293v27.98H1109.7V479.188H896.711v-37.8H789.885v37.8H763.78l.411-122.983H731.526V312.262H714.109v-23.9H653.478v23.9H628.937V356.2h-29.9l-.607,181.939H478.069V493.163H466.52v44.981H444.75V429.364h-40.3v-25.15H323.032v25.15H292.638V366.729H267.3v62.635H251.351v272.67H198.012v-25.01H96.96v25.01H0v306.353H1920V710.615Z" transform="translate(0 -170.559)"/></svg>